<svg width="57" height="120" viewBox="0 0 57 120" fill="none" xmlns="http://www.w3.org/2000/svg">
<path d="M20.5039 92.6115C20.5039 92.6115 -4.91514 56.658 0.947843 47.5151C6.81082 38.3722 21.8089 54.8186 21.8089 54.8186C21.8089 54.8186 8.76835 21.2997 15.9459 6.6695C23.1235 -7.96073 35.4924 6.66948 36.0969 17.0335C36.7015 27.3976 33.4965 45.0652 33.4965 45.0652C33.4965 45.0652 38.707 8.50118 51.0854 19.4681C63.4639 30.4349 35.4444 67.0066 35.4444 67.0066C35.4444 67.0066 54.348 58.5052 53.6763 69.4489C53.0046 80.3926 30.8673 90.1692 30.8673 90.1692" fill="white"/>
<path d="M20.7246 85.9108C20.7246 85.9108 -2.80406 68.2354 8.65322 60.3136C20.1105 52.3918 26.1462 68.8151 26.1462 68.8151C26.1462 68.8151 13.4799 18.2315 33.9955 16.3998C54.5111 14.5681 39.4171 60.2827 39.4171 60.2827C39.4171 60.2827 56.91 40.7758 55.7298 56.6271C54.5495 72.4785 28.5643 85.9108 28.5643 85.9108" stroke="#263238" stroke-miterlimit="10"/>
<path d="M48.8977 77.9967H4.93018L9.32501 119.77H44.5029L48.8977 77.9967Z" fill="#263238"/>
</svg>
