<svg width="93" height="91" viewBox="0 0 93 91" fill="none" xmlns="http://www.w3.org/2000/svg">
<path d="M46.4002 0.227786C21.009 0.218762 0.452148 20.8936 0.452148 46.4145C0.452148 66.593 13.3137 83.7483 31.2247 90.0473C33.6373 90.661 33.2696 88.9283 33.2696 87.7551V79.7505C19.3408 81.3929 18.7758 72.1159 17.843 70.5727C15.9505 67.333 11.493 66.5027 12.8204 64.9505C15.9954 63.3081 19.2242 65.3657 22.9732 70.9337C25.6819 74.9676 30.9736 74.2908 33.6463 73.6229C34.2293 71.1954 35.485 69.0295 37.207 67.342C22.7759 64.743 16.7577 55.881 16.7577 45.3406C16.7577 40.2238 18.4349 35.5311 21.7176 31.7409C19.6278 25.496 21.9149 20.1446 22.2198 19.3504C28.1842 18.809 34.3818 23.646 34.8661 24.025C38.2564 23.1046 42.122 22.6172 46.454 22.6172C50.804 22.6172 54.6875 23.1226 58.1047 24.0521C59.2617 23.1677 65.0108 19.0165 70.5536 19.5219C70.8496 20.316 73.0919 25.5411 71.1187 31.7048C74.4462 35.504 76.1413 40.2418 76.1413 45.3677C76.1413 55.9262 70.0873 64.7971 55.6113 67.36C58.1137 69.8417 59.5218 73.2259 59.5218 76.7544V88.3778C59.6025 89.3073 59.5218 90.2278 61.0645 90.2278C79.2446 84.0641 92.3303 66.7825 92.3303 46.4235C92.3303 20.8936 71.7645 0.227786 46.4002 0.227786Z" fill="#263238"/>
</svg>
