<svg width="48" height="46" viewBox="0 0 48 46" fill="none" xmlns="http://www.w3.org/2000/svg">
<path d="M28.1371 35.1387C27.5031 35.0467 26.961 35.5376 26.961 36.1512V43.3103H2.41554V2.40125H26.961V9.52969C26.961 10.041 27.3291 10.5012 27.8303 10.5729C28.4644 10.6649 29.0065 10.174 29.0065 9.56037V1.37859C29.0065 0.816062 28.5462 0.355835 27.9837 0.355835H1.39287C0.830344 0.355835 0.370117 0.816062 0.370117 1.37859V44.3331C0.370117 44.8956 0.830344 45.3558 1.39287 45.3558H27.9837C28.5462 45.3558 29.0065 44.8956 29.0065 44.3331V36.182C29.0065 35.6706 28.6383 35.2103 28.1371 35.1387Z" fill="#C4C4C4"/>
<path d="M47.1192 22.1399L36.892 11.9126C36.4828 11.524 35.8385 11.5342 35.4499 11.933C35.0715 12.3319 35.0715 12.9558 35.4499 13.3547L43.9283 21.8331H12.6738C12.1726 21.8331 11.7226 22.1808 11.6409 22.6819C11.5284 23.3262 12.0295 23.8785 12.6534 23.8785H43.9385L35.4499 32.3569C35.0408 32.7455 35.0306 33.4001 35.4295 33.799C35.8181 34.2081 36.4727 34.2183 36.8715 33.8194C36.8818 33.8091 36.892 33.799 36.892 33.799L47.1193 23.5717C47.518 23.1933 47.518 22.5388 47.1192 22.1399Z" fill="#C4C4C4"/>
</svg>
