<svg width="101" height="136" viewBox="0 0 101 136" fill="none" xmlns="http://www.w3.org/2000/svg">
<path d="M1.16797 120.328C10.3086 120.328 16.168 119.094 18.7461 116.628C21.3242 114.103 22.6133 109.346 22.6133 102.357V32.8529C22.6133 28.3896 22.0859 25.2183 21.0312 23.339C20.0352 21.4597 18.1602 20.5201 15.4062 20.5201C13.9414 20.5201 11.6855 21.0193 8.63867 22.0177C6.70508 22.6049 4.06836 23.5446 0.728516 24.8366V20.2558L46.168 0.61145H49.332V103.414C49.332 109.992 50.3867 114.455 52.4961 116.804C54.6055 119.153 59.9961 120.328 68.668 120.328V124.644H1.16797V120.328Z" fill="#FE941B"/>
<path d="M64.4053 108.391C64.4053 108.391 38.9862 72.3556 44.8492 63.1918C50.7122 54.028 65.7103 70.512 65.7103 70.512C65.7103 70.512 52.6697 36.9166 59.8473 22.2529C67.0249 7.58929 79.3938 22.2529 79.9983 32.6406C80.6028 43.0284 77.3979 60.7363 77.3979 60.7363C77.3979 60.7363 82.6083 24.0888 94.9868 35.0807C107.365 46.0726 79.3458 82.7279 79.3458 82.7279C79.3458 82.7279 98.2493 74.207 97.5776 85.1757C96.9059 96.1444 74.7686 105.943 74.7686 105.943" fill="white"/>
<path d="M64.626 101.675C64.626 101.675 41.0973 83.9596 52.5546 76.0197C64.0119 68.0798 70.0476 84.5405 70.0476 84.5405C70.0476 84.5405 57.3812 33.8414 77.8969 32.0055C98.4125 30.1697 83.3184 75.9887 83.3184 75.9887C83.3184 75.9887 100.811 56.4372 99.6311 72.3247C98.4509 88.2123 72.4657 101.675 72.4657 101.675" stroke="#263238" stroke-miterlimit="10"/>
<path d="M92.7991 93.743H48.8315L53.2264 135.612H88.4042L92.7991 93.743Z" fill="#263238"/>
</svg>
