<svg width="213" height="133" viewBox="0 0 213 133" fill="none" xmlns="http://www.w3.org/2000/svg">
<path d="M154.273 20.2462C177.256 28.562 191.41 54.9645 178.534 85.3473C173.359 97.5592 182.872 113.528 189.945 121.9C178.255 116.295 183.308 118.154 166.31 107.628C145.062 94.4704 115.77 126.868 69.477 119.98C23.1841 113.092 15.5115 76.367 18.6706 60.7077C23.6849 35.8519 40.9417 22.1162 61.8027 17.0911C88.0891 10.7591 124.462 9.46016 154.273 20.2462Z" fill="#4FCB64"/>
<path d="M149.576 20.86C172.367 32.0336 188.317 55.1132 178.868 94.3534C175.742 107.336 190.183 119.486 192.783 125.686C190.33 120.555 180.029 116.636 163.037 106.05C141.797 92.8168 116.448 120.174 70.1566 113.271C23.8652 106.367 16.1846 66.467 21.5097 51.2692C28.3581 31.7237 35.9232 20.9903 69.7093 12.774C96.002 6.38001 121.087 6.89286 149.576 20.86Z" stroke="black"/>
<path d="M58.1555 77.7086C57.8675 77.7086 57.6515 77.6546 57.5075 77.5466C57.3815 77.4386 57.3185 77.2586 57.3185 77.0066V73.4696C57.0845 73.3076 56.6435 73.1636 55.9955 73.0376C55.3475 72.9116 54.7355 72.8306 54.1595 72.7946C53.9615 73.1726 53.8175 73.6316 53.7275 74.1716L53.6195 74.7116C53.6015 74.8376 53.5475 75.1166 53.4575 75.5486C53.3675 75.9806 53.2685 76.3586 53.1605 76.6826C53.0525 76.9886 52.9445 77.2316 52.8365 77.4116C52.1525 77.4116 51.7565 77.2316 51.6485 76.8716C51.8465 76.5836 52.0715 75.7376 52.3235 74.3336L53.2145 69.3926C53.6105 67.0526 53.9705 65.0546 54.2945 63.3986C54.6365 61.7426 54.9965 60.3566 55.3745 59.2406C55.7885 57.9986 56.1845 57.3776 56.5625 57.3776C56.9405 57.3776 57.2285 57.4496 57.4265 57.5936C57.4265 58.3136 57.5975 60.0506 57.9395 62.8046C58.2995 65.5046 58.4795 67.3496 58.4795 68.3396C58.4795 69.2936 58.5785 70.6616 58.7765 72.4436C58.9565 74.2616 59.0465 75.7106 59.0465 76.7906C59.0465 77.4026 58.7495 77.7086 58.1555 77.7086ZM56.7515 71.9036C56.8955 71.9036 57.0755 71.8766 57.2915 71.8226C57.2375 71.0306 57.1475 70.0496 57.0215 68.8796C56.6075 64.8116 56.4005 62.3186 56.4005 61.4006V61.1846C56.2205 61.3646 55.9685 62.1836 55.6445 63.6416C55.3385 65.0816 55.0505 66.6296 54.7805 68.2856C54.5105 69.9416 54.3665 71.0396 54.3485 71.5796C55.1045 71.7956 55.9055 71.9036 56.7515 71.9036ZM63.1399 77.8706C62.8879 77.8706 62.6899 77.7986 62.5459 77.6546C62.4199 77.4926 62.3749 77.2946 62.4109 77.0606L63.4099 73.4966C63.4279 73.4246 63.4369 73.3256 63.4369 73.1996C63.4369 73.0736 63.4279 72.9836 63.4099 72.9296L63.2479 72.2276C63.1939 71.9936 63.1039 71.6156 62.9779 71.0936C62.8699 70.5536 62.7799 70.0766 62.7079 69.6626C62.5819 69.1046 62.3839 67.9346 62.1139 66.1526C61.8439 64.3526 61.6099 62.7416 61.4119 61.3196L61.2769 60.4826C61.0789 59.3666 60.9799 58.5926 60.9799 58.1606C60.9799 57.8006 61.0249 57.5666 61.1149 57.4586C61.2049 57.3686 61.3399 57.3236 61.5199 57.3236C61.6639 57.3236 61.8079 57.3506 61.9519 57.4046C62.1139 57.4406 62.2399 57.4946 62.3299 57.5666C62.4379 57.6746 62.4919 57.8546 62.4919 58.1066L62.4649 58.6466C62.4649 58.7366 62.5729 59.3936 62.7889 60.6176L63.0589 62.3726C63.0409 62.8946 63.0589 63.4256 63.1129 63.9656C63.1849 64.5056 63.2929 65.1536 63.4369 65.9096C63.4729 66.0536 63.5089 66.2336 63.5449 66.4496C63.6529 67.0796 63.7609 67.9886 63.8689 69.1766C63.8869 69.3926 63.9139 69.6446 63.9499 69.9326C63.9859 70.2206 64.0129 70.4366 64.0309 70.5806C64.2109 69.6626 64.3639 68.5556 64.4899 67.2596C64.4899 67.1156 64.5079 66.9176 64.5439 66.6656C64.6519 65.6036 64.7779 64.0736 64.9219 62.0756C64.9579 61.7696 64.9939 61.2206 65.0299 60.4286L65.0839 59.4566C65.1199 59.2046 65.1379 58.9616 65.1379 58.7276C65.1379 58.6736 65.1379 58.5476 65.1379 58.3496C65.1559 58.1336 65.1829 57.9536 65.2189 57.8096C65.2549 57.6656 65.3089 57.5486 65.3809 57.4586C65.4889 57.2966 65.6779 57.2156 65.9479 57.2156C66.2719 57.2156 66.5419 57.3056 66.7579 57.4856C66.8839 57.5936 66.9469 57.7736 66.9469 58.0256C66.9469 58.1876 66.9379 58.3406 66.9199 58.4846C66.9019 58.6106 66.8839 58.7276 66.8659 58.8356C66.7579 59.7716 66.6409 60.8966 66.5149 62.2106L66.1909 65.2076C66.1369 65.6216 66.0559 66.2786 65.9479 67.1786C65.6779 69.6626 65.4349 71.4626 65.2189 72.5786C65.1469 73.0466 64.9669 73.8746 64.6789 75.0626C64.3909 76.2506 64.2109 76.9346 64.1389 77.1146C64.0849 77.3306 63.9679 77.5106 63.7879 77.6546C63.6079 77.7986 63.3919 77.8706 63.1399 77.8706ZM77.0964 80.5166C76.9344 80.5166 76.7724 80.4266 76.6104 80.2466C76.4664 80.0846 76.3944 79.8956 76.3944 79.6796C76.3944 79.3736 76.4484 78.5186 76.5564 77.1146C76.1604 77.0066 75.7644 76.9526 75.3684 76.9526C74.9904 76.9526 74.4594 76.9976 73.7754 77.0876L73.1274 77.1686C71.8134 77.3126 70.7784 77.4116 70.0224 77.4656C69.9504 77.4656 69.4734 77.4926 68.5914 77.5466C68.5914 77.7266 68.5914 77.9876 68.5914 78.3296C68.6094 78.6716 68.6094 78.9506 68.5914 79.1666C68.5734 79.4006 68.5014 79.5896 68.3754 79.7336C68.2674 79.8776 68.1324 79.9496 67.9704 79.9496C67.8804 79.9496 67.7634 79.9136 67.6194 79.8416C67.4754 79.7156 67.3224 79.4726 67.1604 79.1126C67.1244 79.0046 67.1064 78.6176 67.1064 77.9516L67.0794 77.2226C67.0614 77.0786 67.1334 76.9256 67.2954 76.7636C67.4574 76.5836 67.6824 76.4846 67.9704 76.4666C68.7804 76.4126 69.3024 75.9536 69.5364 75.0896C69.6624 74.6756 69.7794 74.1806 69.8874 73.6046C69.9954 73.0106 70.0674 72.4886 70.1034 72.0386C70.3554 69.6626 70.4814 67.8446 70.4814 66.5846C70.4814 66.1526 70.4634 65.5226 70.4274 64.6946C70.3914 64.1186 70.3734 63.6956 70.3734 63.4256C70.3734 62.6696 70.3644 62.1026 70.3464 61.7246C70.3464 60.1946 70.3284 59.2226 70.2924 58.8086C70.2564 58.4486 70.3194 58.1516 70.4814 57.9176C70.6434 57.6656 70.8954 57.5216 71.2374 57.4856C72.1014 57.3956 72.6234 57.3506 72.8034 57.3506C73.1814 57.3506 73.5144 57.3956 73.8024 57.4856C73.9284 57.5216 74.0364 57.5396 74.1264 57.5396C74.2344 57.5396 74.3154 57.5486 74.3694 57.5666C74.7114 57.6026 74.9454 57.6746 75.0714 57.7826C75.2154 57.8906 75.2874 58.1516 75.2874 58.5656L75.2604 60.4286C75.2604 60.8426 75.2694 61.1486 75.2874 61.3466C75.3414 63.3086 75.4404 66.3326 75.5844 70.4186L75.6114 71.1476C75.6474 72.0656 75.6924 73.0016 75.7464 73.9556C75.8004 74.8916 75.8724 75.5486 75.9624 75.9266C76.6284 75.9266 77.1324 75.9716 77.4744 76.0616C77.8344 76.1516 78.0144 76.3766 78.0144 76.7366C78.0144 76.8266 78.0054 76.8986 77.9874 76.9526C77.9334 77.3126 77.8794 77.7086 77.8254 78.1406C77.7714 78.5726 77.7354 78.9416 77.7174 79.2476C77.6994 79.3376 77.6904 79.5086 77.6904 79.7606C77.6904 80.0126 77.6454 80.2016 77.5554 80.3276C77.4834 80.4536 77.3304 80.5166 77.0964 80.5166ZM70.6164 76.2506C71.4084 76.1786 72.0564 76.1336 72.5604 76.1156L74.4774 75.9806C74.5134 75.5846 74.5314 75.2966 74.5314 75.1166C74.5314 74.8646 74.5134 74.4326 74.4774 73.8206C74.4774 73.6946 74.4594 73.4876 74.4234 73.1996C74.4054 72.9116 74.3964 72.6506 74.3964 72.4166L74.2074 68.1236V65.4506L73.8834 59.2406C73.8834 58.9526 73.8564 58.7276 73.8024 58.5656C73.6044 58.4756 73.2804 58.4306 72.8304 58.4306C72.4344 58.4306 72.0564 58.4576 71.6964 58.5116V62.7506V64.8026C71.6424 67.2506 71.5524 69.4196 71.4264 71.3096C71.3724 72.1916 71.2554 73.1096 71.0754 74.0636C70.9134 75.0176 70.7604 75.7466 70.6164 76.2506ZM80.4933 77.9786C80.2233 77.9786 79.9803 77.8616 79.7643 77.6276C79.5483 77.3936 79.4493 77.1326 79.4673 76.8446C79.5213 75.9266 79.5483 74.9906 79.5483 74.0366C79.5483 73.2086 79.5303 71.9486 79.4943 70.2566C79.4763 69.4826 79.4133 68.3216 79.3053 66.7736C79.2873 66.4676 79.2603 66.0266 79.2243 65.4506C79.1883 64.8566 79.1613 64.3346 79.1433 63.8846C79.1253 63.5786 79.1163 63.1196 79.1163 62.5076L79.1433 59.7536C79.1433 59.5916 79.1253 59.3666 79.0893 59.0786L79.0623 58.4576C79.0623 58.1696 79.1343 57.9446 79.2783 57.7826C79.4403 57.6206 79.6473 57.5396 79.8993 57.5396C80.4213 57.5396 80.7183 57.7826 80.7903 58.2686C80.8623 58.8086 80.8983 59.2136 80.8983 59.4836C80.8983 59.8076 80.8713 60.1316 80.8173 60.4556C80.7273 61.1216 80.6823 61.7246 80.6823 62.2646L80.7093 63.0746C80.7813 64.7306 80.8173 66.2516 80.8173 67.6376V70.8506C80.8173 71.4086 80.8353 72.2456 80.8713 73.3616L81.0333 73.3886L81.3573 72.3356C81.8973 70.5176 82.4103 68.8616 82.8963 67.3676C83.1483 66.6656 83.4183 65.5766 83.7063 64.1006C83.8323 63.4526 83.9493 62.9306 84.0573 62.5346L85.4073 57.6746C85.5333 57.4406 85.6863 57.2696 85.8663 57.1616C86.0463 57.0356 86.2263 56.9816 86.4063 56.9996C86.6223 57.0536 86.8293 57.2066 87.0273 57.4586C87.2253 57.6926 87.3153 57.9266 87.2973 58.1606C87.2793 58.7906 87.2253 59.4476 87.1353 60.1316C86.9733 62.3816 86.8833 63.7946 86.8653 64.3706C86.7933 66.7826 86.7573 68.5916 86.7573 69.7976C86.7573 70.3736 86.8023 71.2826 86.8923 72.5246C86.9823 73.7486 87.0363 74.5586 87.0543 74.9546L87.1623 76.3046C87.1803 76.6826 87.0903 76.9796 86.8923 77.1956C86.6943 77.4116 86.4333 77.5196 86.1093 77.5196C85.9113 77.5196 85.7403 77.4566 85.5963 77.3306C85.4523 77.1866 85.3713 76.9976 85.3533 76.7636V76.5206L85.3803 71.0936V70.1216C85.3443 69.1856 85.3083 67.7456 85.2723 65.8016V64.6946V62.9126C85.2543 62.8946 85.2093 62.8856 85.1373 62.8856C85.0293 62.9036 84.8673 63.3176 84.6513 64.1276C84.4533 64.9196 84.2643 65.7206 84.0843 66.5306C83.9043 67.3226 83.7873 67.8266 83.7333 68.0426C83.5713 68.8166 83.4723 69.2576 83.4363 69.3656C82.9323 71.0756 82.5273 72.5066 82.2213 73.6586C81.9153 74.7926 81.6633 75.9446 81.4653 77.1146C81.3573 77.6906 81.0333 77.9786 80.4933 77.9786ZM94.2361 78.4646C93.7501 78.4646 93.3091 78.3026 92.9131 77.9786C92.5171 77.6546 92.1751 77.2136 91.8871 76.6556C91.3651 75.6836 90.9781 74.3516 90.7261 72.6596C90.5461 71.4896 90.4111 70.1396 90.3211 68.6096L90.2941 67.1786V65.7206C90.2761 65.2526 90.2671 64.6856 90.2671 64.0196C90.2671 62.9396 90.3121 61.9856 90.4021 61.1576C90.4741 60.2936 90.6541 59.4386 90.9421 58.5926C91.2301 57.8546 91.6441 57.3326 92.1841 57.0266C92.5081 56.8826 92.8321 56.8106 93.1561 56.8106C94.1101 56.8106 94.8661 57.1886 95.4241 57.9446C96.0361 58.7906 96.4411 59.7356 96.6391 60.7796C96.9271 62.0396 97.0891 63.2456 97.1251 64.3976C97.1971 65.6756 97.2331 66.8816 97.2331 68.0156V69.5546C97.2331 69.8606 97.1881 70.4366 97.0981 71.2826C97.0261 71.9486 96.9901 72.5156 96.9901 72.9836V73.0916C96.8821 73.5956 96.8281 74.1896 96.8281 74.8736C96.8281 75.3776 96.7201 75.8996 96.5041 76.4396C96.2881 76.9796 95.9821 77.4386 95.5861 77.8166C95.1901 78.2486 94.7401 78.4646 94.2361 78.4646ZM94.2901 76.9796C94.6501 76.9796 94.9561 76.6466 95.2081 75.9806C95.4241 75.3866 95.5771 74.6666 95.6671 73.8206C95.7751 72.9566 95.8651 71.9846 95.9371 70.9046C95.9731 70.4366 95.9911 69.8336 95.9911 69.0956L95.9641 66.6116C95.9281 65.6396 95.8201 64.4246 95.6401 62.9666C95.4961 61.7246 95.2261 60.6266 94.8301 59.6726C94.6501 59.2226 94.4251 58.8716 94.1551 58.6196C93.8851 58.3676 93.5971 58.2416 93.2911 58.2416C92.8411 58.2416 92.5081 58.5926 92.2921 59.2946C92.0221 60.0326 91.8421 60.8426 91.7521 61.7246C91.6441 62.6786 91.5811 63.5876 91.5631 64.4516L91.5361 65.3426C91.5181 65.5946 91.5091 65.9366 91.5091 66.3686V66.4766C91.5091 67.6826 91.6351 69.1676 91.8871 70.9316C92.1751 73.3256 92.5981 75.0266 93.1561 76.0346C93.5161 76.6646 93.8941 76.9796 94.2901 76.9796ZM101.566 77.9246C100.738 77.9246 100.324 77.6996 100.324 77.2496L100.378 73.9286L100.432 70.6076C100.432 69.4016 100.405 67.5746 100.351 65.1266C100.297 62.6966 100.27 60.8696 100.27 59.6456V59.4836C100.27 59.0156 100.315 58.5836 100.405 58.1876C100.513 57.7016 100.801 57.4586 101.269 57.4586C102.529 57.4586 103.528 57.8636 104.266 58.6736C105.004 59.4836 105.373 60.5546 105.373 61.8866C105.373 62.6966 105.157 63.5426 104.725 64.4246C104.293 65.3066 103.78 65.9636 103.186 66.3956C104.23 67.0976 104.995 68.0066 105.481 69.1226C105.985 70.2206 106.237 71.4356 106.237 72.7676C106.237 73.3976 106.021 74.1806 105.589 75.1166C105.067 76.2326 104.356 77.0336 103.456 77.5196C102.916 77.7896 102.322 77.9246 101.674 77.9246H101.566ZM101.836 65.9906C102.304 65.8826 102.7 65.4956 103.024 64.8296C103.294 64.3256 103.546 63.7136 103.78 62.9936C103.834 62.7956 103.924 62.5436 104.05 62.2376V61.2926C104.05 60.7526 103.852 60.2306 103.456 59.7266C103.06 59.2226 102.61 58.9706 102.106 58.9706C101.854 58.9706 101.728 59.2496 101.728 59.8076C101.728 60.9956 101.746 62.0576 101.782 62.9936L101.836 65.9906ZM101.944 76.5206C102.826 76.3946 103.528 75.9896 104.05 75.3056C104.572 74.6216 104.833 73.8026 104.833 72.8486C104.833 72.0206 104.761 71.2646 104.617 70.5806C104.491 69.8786 104.32 69.3476 104.104 68.9876C103.906 68.6456 103.708 68.3576 103.51 68.1236C103.312 67.8896 103.141 67.7366 102.997 67.6646L102.781 67.5836H101.809C101.899 69.6536 101.944 72.6326 101.944 76.5206ZM116.941 76.6016C116.977 76.7816 116.995 76.9076 116.995 76.9796C116.995 77.1776 116.95 77.3486 116.86 77.4926C116.77 77.6186 116.644 77.6906 116.482 77.7086C116.158 77.7266 115.915 77.6726 115.753 77.5466C115.609 77.4206 115.528 77.1776 115.51 76.8176L115.483 75.6836C115.483 75.1976 115.465 74.4506 115.429 73.4426C115.393 72.1826 115.357 71.2376 115.321 70.6076L115.186 66.4226C115.15 64.6766 115.114 63.3536 115.078 62.4536L115.024 60.8336V58.9436V57.9716C115.042 57.7556 115.096 57.5666 115.186 57.4046C115.294 57.2426 115.438 57.1616 115.618 57.1616C115.762 57.1616 115.897 57.1976 116.023 57.2696C116.239 57.3776 116.374 57.5306 116.428 57.7286C116.482 57.9086 116.5 58.1336 116.482 58.4036V61.9406C116.446 63.0566 116.41 64.6226 116.374 66.6386C116.392 66.6566 116.41 66.8816 116.428 67.3136C116.446 67.7456 116.464 68.5016 116.482 69.5816C116.59 70.9316 116.653 71.9126 116.671 72.5246C116.743 74.7566 116.833 76.1156 116.941 76.6016ZM113.242 68.2856C113.44 68.6636 113.602 69.2486 113.728 70.0406C113.854 70.8326 113.917 71.5076 113.917 72.0656C113.917 72.8756 113.719 73.7666 113.323 74.7386C112.945 75.7106 112.441 76.4396 111.811 76.9256C111.451 77.1776 111.154 77.3486 110.92 77.4386C110.704 77.5106 110.38 77.5736 109.948 77.6276C109.84 77.6456 109.705 77.6546 109.543 77.6546C109.255 77.6546 109.021 77.6096 108.841 77.5196C108.679 77.4116 108.58 77.2766 108.544 77.1146C108.544 76.1786 108.571 75.2966 108.625 74.4686C108.697 73.2806 108.733 72.2096 108.733 71.2556C108.733 69.9416 108.688 68.5286 108.598 67.0166C108.562 66.4406 108.526 65.7656 108.49 64.9916C108.472 64.1996 108.454 63.5966 108.436 63.1826L108.409 61.9406C108.409 61.1306 108.427 59.8976 108.463 58.2416C108.481 57.9896 108.58 57.7916 108.76 57.6476C108.958 57.5036 109.192 57.4496 109.462 57.4856C109.714 57.5216 109.912 57.6386 110.056 57.8366C110.218 58.0166 110.272 58.2236 110.218 58.4576C110.038 59.2136 109.948 60.2576 109.948 61.5896C109.948 62.0576 109.939 62.4086 109.921 62.6426C109.903 62.8586 109.894 63.1286 109.894 63.4526C109.894 63.7586 109.885 64.0646 109.867 64.3706L109.84 66.0446C110.02 66.0086 110.164 65.9906 110.272 65.9906C110.83 65.9906 111.379 66.2246 111.919 66.6926C112.477 67.1426 112.918 67.6736 113.242 68.2856ZM111.919 75.3596C112.171 74.7836 112.36 74.2346 112.486 73.7126C112.63 73.1906 112.702 72.6056 112.702 71.9576C112.702 70.8056 112.387 69.6176 111.757 68.3936C111.289 67.4936 110.677 67.0976 109.921 67.2056L110.002 72.4976C110.038 72.8576 110.056 73.5326 110.056 74.5226C110.056 74.9366 110.047 75.1796 110.029 75.2516C109.993 75.4316 109.975 75.5576 109.975 75.6296C109.975 75.8636 110.029 76.0886 110.137 76.3046C110.263 76.2686 110.47 76.2056 110.758 76.1156C111.046 76.0076 111.289 75.8996 111.487 75.7916C111.685 75.6656 111.829 75.5216 111.919 75.3596ZM122.819 77.9246C122.189 77.8526 121.739 77.5286 121.469 76.9526C121.361 76.7366 121.289 76.5746 121.253 76.4666C121.073 76.1066 120.938 75.7916 120.848 75.5216C120.758 75.2516 120.713 74.9726 120.713 74.6846L120.74 74.3876C120.758 74.1896 120.812 74.0186 120.902 73.8746C120.992 73.7306 121.109 73.6406 121.253 73.6046C121.451 73.5686 121.649 73.6226 121.847 73.7666C122.063 73.8926 122.198 74.0546 122.252 74.2526C122.324 74.4326 122.396 74.6846 122.468 75.0086C122.576 75.4946 122.72 75.9626 122.9 76.4126C123.008 76.6466 123.188 76.7636 123.44 76.7636C123.512 76.7636 123.62 76.7456 123.764 76.7096C124.412 76.4396 124.853 76.0346 125.087 75.4946C125.519 74.4506 125.735 73.4426 125.735 72.4706C125.735 72.0926 125.69 71.6516 125.6 71.1476C125.582 70.9676 125.564 70.7966 125.546 70.6346C125.528 70.4546 125.51 70.2746 125.492 70.0946C125.402 69.4826 125.195 68.9966 124.871 68.6366C124.547 68.2766 124.079 68.0156 123.467 67.8536C123.413 67.8356 123.269 67.8086 123.035 67.7726C122.801 67.7186 122.603 67.6286 122.441 67.5026C122.297 67.3586 122.225 67.1876 122.225 66.9896C122.189 66.4856 122.594 66.1436 123.44 65.9636C123.908 65.8376 124.286 65.5586 124.574 65.1266C125.258 64.4966 125.6 63.5786 125.6 62.3726C125.6 61.6526 125.483 60.9146 125.249 60.1586C125.141 59.7446 124.898 59.4296 124.52 59.2136C124.142 58.9796 123.737 58.8626 123.305 58.8626C122.693 58.8626 122.18 59.1236 121.766 59.6456C121.694 59.7356 121.568 59.9246 121.388 60.2126C121.082 60.7166 120.866 61.0136 120.74 61.1036C120.596 61.2476 120.452 61.3196 120.308 61.3196C120.092 61.3196 119.921 61.2656 119.795 61.1576C119.687 61.0316 119.624 60.8966 119.606 60.7526C119.588 60.6806 119.579 60.5726 119.579 60.4286C119.579 59.8346 119.75 59.2946 120.092 58.8086C120.452 58.3226 120.902 57.9356 121.442 57.6476C122 57.3596 122.549 57.2156 123.089 57.2156C123.719 57.2156 124.376 57.3866 125.06 57.7286C126.014 58.1966 126.599 58.9436 126.815 59.9696C126.941 60.5276 127.004 61.0946 127.004 61.6706C127.004 62.4626 126.887 63.2726 126.653 64.1006C126.437 64.9286 125.969 65.7206 125.249 66.4766L124.709 66.7196C125.303 66.8456 125.834 67.2776 126.302 68.0156C126.77 68.7536 127.004 69.4916 127.004 70.2296C127.004 70.5356 127.031 70.8416 127.085 71.1476C127.121 71.4716 127.139 71.6966 127.139 71.8226C127.157 72.0026 127.166 72.2636 127.166 72.6056C127.166 73.6316 127.022 74.5766 126.734 75.4406C126.194 77.1506 125.168 78.0056 123.656 78.0056C123.404 78.0056 123.125 77.9786 122.819 77.9246ZM133.233 78.4646C132.747 78.4646 132.306 78.3026 131.91 77.9786C131.514 77.6546 131.172 77.2136 130.884 76.6556C130.362 75.6836 129.975 74.3516 129.723 72.6596C129.543 71.4896 129.408 70.1396 129.318 68.6096L129.291 67.1786V65.7206C129.273 65.2526 129.264 64.6856 129.264 64.0196C129.264 62.9396 129.309 61.9856 129.399 61.1576C129.471 60.2936 129.651 59.4386 129.939 58.5926C130.227 57.8546 130.641 57.3326 131.181 57.0266C131.505 56.8826 131.829 56.8106 132.153 56.8106C133.107 56.8106 133.863 57.1886 134.421 57.9446C135.033 58.7906 135.438 59.7356 135.636 60.7796C135.924 62.0396 136.086 63.2456 136.122 64.3976C136.194 65.6756 136.23 66.8816 136.23 68.0156V69.5546C136.23 69.8606 136.185 70.4366 136.095 71.2826C136.023 71.9486 135.987 72.5156 135.987 72.9836V73.0916C135.879 73.5956 135.825 74.1896 135.825 74.8736C135.825 75.3776 135.717 75.8996 135.501 76.4396C135.285 76.9796 134.979 77.4386 134.583 77.8166C134.187 78.2486 133.737 78.4646 133.233 78.4646ZM133.287 76.9796C133.647 76.9796 133.953 76.6466 134.205 75.9806C134.421 75.3866 134.574 74.6666 134.664 73.8206C134.772 72.9566 134.862 71.9846 134.934 70.9046C134.97 70.4366 134.988 69.8336 134.988 69.0956L134.961 66.6116C134.925 65.6396 134.817 64.4246 134.637 62.9666C134.493 61.7246 134.223 60.6266 133.827 59.6726C133.647 59.2226 133.422 58.8716 133.152 58.6196C132.882 58.3676 132.594 58.2416 132.288 58.2416C131.838 58.2416 131.505 58.5926 131.289 59.2946C131.019 60.0326 130.839 60.8426 130.749 61.7246C130.641 62.6786 130.578 63.5876 130.56 64.4516L130.533 65.3426C130.515 65.5946 130.506 65.9366 130.506 66.3686V66.4766C130.506 67.6826 130.632 69.1676 130.884 70.9316C131.172 73.3256 131.595 75.0266 132.153 76.0346C132.513 76.6646 132.891 76.9796 133.287 76.9796ZM140.563 77.9246C139.735 77.9246 139.321 77.6996 139.321 77.2496L139.375 73.9286L139.429 70.6076C139.429 69.4016 139.402 67.5746 139.348 65.1266C139.294 62.6966 139.267 60.8696 139.267 59.6456V59.4836C139.267 59.0156 139.312 58.5836 139.402 58.1876C139.51 57.7016 139.798 57.4586 140.266 57.4586C141.526 57.4586 142.525 57.8636 143.263 58.6736C144.001 59.4836 144.37 60.5546 144.37 61.8866C144.37 62.6966 144.154 63.5426 143.722 64.4246C143.29 65.3066 142.777 65.9636 142.183 66.3956C143.227 67.0976 143.992 68.0066 144.478 69.1226C144.982 70.2206 145.234 71.4356 145.234 72.7676C145.234 73.3976 145.018 74.1806 144.586 75.1166C144.064 76.2326 143.353 77.0336 142.453 77.5196C141.913 77.7896 141.319 77.9246 140.671 77.9246H140.563ZM140.833 65.9906C141.301 65.8826 141.697 65.4956 142.021 64.8296C142.291 64.3256 142.543 63.7136 142.777 62.9936C142.831 62.7956 142.921 62.5436 143.047 62.2376V61.2926C143.047 60.7526 142.849 60.2306 142.453 59.7266C142.057 59.2226 141.607 58.9706 141.103 58.9706C140.851 58.9706 140.725 59.2496 140.725 59.8076C140.725 60.9956 140.743 62.0576 140.779 62.9936L140.833 65.9906ZM140.941 76.5206C141.823 76.3946 142.525 75.9896 143.047 75.3056C143.569 74.6216 143.83 73.8026 143.83 72.8486C143.83 72.0206 143.758 71.2646 143.614 70.5806C143.488 69.8786 143.317 69.3476 143.101 68.9876C142.903 68.6456 142.705 68.3576 142.507 68.1236C142.309 67.8896 142.138 67.7366 141.994 67.6646L141.778 67.5836H140.806C140.896 69.6536 140.941 72.6326 140.941 76.5206Z" fill="white"/>
<path fill-rule="evenodd" clip-rule="evenodd" d="M156.145 30.806L164.811 28.8674C164.991 28.8271 165.175 28.9394 165.216 29.123L169.39 47.7832C169.43 47.9626 169.317 48.1456 169.132 48.1869L160.462 50.1264C159.295 50.3829 158.131 49.6486 157.872 48.4886L154.496 33.3961C154.236 32.2319 154.979 31.0667 156.145 30.806ZM197.943 12.8164C200.705 15.3008 203.045 18.2649 204.814 21.6066C206.52 24.8265 207.697 28.3969 208.212 32.212C208.684 35.6992 208.572 39.1373 207.948 42.4273C207.424 45.1863 206.539 47.8423 205.343 50.3269C205.159 50.7272 204.971 51.1243 204.773 51.5191L204.747 51.5029C204.651 51.6822 204.555 51.8615 204.453 52.0375L204.158 52.568L203.671 52.2036L201.699 50.7258L201.334 50.4525L201.553 50.0531C202.968 47.445 203.987 44.6013 204.535 41.6177C205.063 38.7436 205.152 35.7356 204.733 32.6833C204.274 29.2898 203.23 26.1189 201.718 23.2585C200.321 20.6136 198.524 18.2289 196.419 16.1804L196.409 16.1739C196.032 15.8246 195.642 15.4823 195.244 15.1553L195.271 15.1186L195.243 15.094L195.583 14.7026L195.831 14.4149L196.763 13.2469L196.812 13.2886L197.179 12.8646L197.536 12.4518L197.943 12.8164ZM198.044 14.3711C197.904 14.2359 197.769 14.1041 197.625 13.9741L197.615 13.9852C197.761 14.1101 197.905 14.2401 198.044 14.3711ZM192.11 18.9977C194.146 20.8557 195.869 23.0685 197.173 25.5545C198.432 27.9544 199.298 30.6043 199.685 33.4358C200.014 35.8509 199.967 38.2405 199.588 40.5422C199.196 42.9215 198.451 45.2 197.403 47.3053L197.117 47.8775L196.604 47.4927L194.318 46.5626L193.969 46.3032L194.154 45.9112C195.027 44.0861 195.94 42.0637 196.259 40.0293C196.568 38.0631 196.301 36.0811 196.016 34.0022C195.679 31.5101 194.922 29.1865 193.823 27.0883C192.79 25.1109 191.449 23.3254 189.877 21.7887C189.672 21.6022 189.463 21.4167 189.247 21.2372L189.264 21.2159L189.01 20.9836L189.346 20.5973L191.349 19.0408L191.71 18.6271L192.11 18.9977ZM191.164 20.4974L190.99 20.3303L190.983 20.3364L191.164 20.4974ZM166.944 28.031C171.375 24.1437 175.811 20.2555 180.243 16.3724C180.671 16.0007 181.35 16.5979 181.473 17.1487L189.13 51.3813C189.26 51.9613 188.877 52.8446 188.306 52.6743L171.316 47.5758C171.207 47.5432 171.095 47.5332 171.07 47.4206L166.788 28.2764C166.763 28.1637 166.86 28.1069 166.944 28.031Z" fill="#263238"/>
<path d="M29.1511 75.7058C30.1888 76.5813 33.1152 77.3757 33.1152 77.3757C33.1152 77.3757 33.0585 75.2842 33.0341 75.1545C32.7909 73.6305 31.4128 70.8256 29.7186 70.5581C29.4334 70.5216 29.1438 70.5457 28.8685 70.6287C28.5933 70.7118 28.3387 70.8521 28.1214 71.0403C27.9041 71.2285 27.729 71.4605 27.6075 71.721C27.486 71.9816 27.4209 72.2649 27.4163 72.5523C27.3515 73.7683 28.2675 74.96 29.1511 75.7058Z" fill="#263238"/>
<path d="M16.6268 98.8826C16.8781 99.142 17.1213 99.4095 17.3726 99.6932C18.5805 100.958 19.8045 102.214 20.9394 103.487C21.3448 103.933 21.7501 104.387 22.1149 104.841L21.5069 104.371C20.2017 103.56 17.1861 102.749 15.8323 103.836C15.6188 104.028 15.448 104.263 15.3312 104.526C15.2143 104.788 15.1539 105.072 15.1539 105.36C15.1539 105.647 15.2143 105.931 15.3312 106.194C15.448 106.456 15.6188 106.691 15.8323 106.884C16.7078 107.735 18.2157 107.832 19.3506 107.694C20.646 107.307 21.8738 106.722 22.9904 105.96C23.3714 106.438 23.7524 106.908 24.101 107.394C24.328 107.727 24.5712 108.027 24.7819 108.375L25.4223 109.38C25.7142 109.883 26.0141 110.386 26.2978 110.88L26.922 110.142C26.6788 109.737 26.4275 109.332 26.16 108.902L25.4953 107.905C25.2845 107.573 25.017 107.24 24.7738 106.908C24.1901 106.097 23.5659 105.384 22.9174 104.646C24.1191 103.981 25.2124 103.136 26.16 102.141C26.5548 101.659 26.8399 101.097 26.9953 100.494C27.1507 99.8902 27.1727 99.2602 27.0598 98.6475C26.9879 98.3724 26.8593 98.1154 26.6823 97.8929C26.5053 97.6704 26.2839 97.4873 26.0321 97.3553C25.7803 97.2233 25.5037 97.1453 25.22 97.1264C24.9364 97.1074 24.6518 97.1478 24.3847 97.245C22.7634 97.926 22.1635 100.982 22.3094 102.514C22.3094 102.612 22.5445 103.706 22.6823 104.306C22.2851 103.86 21.8717 103.414 21.4907 102.984C20.299 101.728 19.0587 100.488 17.8265 99.2473L16.7078 98.1124C16.9105 97.9908 19.3425 96.5884 20.0964 95.5265C20.4915 95.0462 20.7768 94.4853 20.9322 93.8832C21.0876 93.281 21.1095 92.6522 20.9962 92.0407C20.9195 91.7641 20.7856 91.5066 20.6031 91.285C20.4207 91.0634 20.1938 90.8826 19.937 90.7543C19.6803 90.6259 19.3995 90.5528 19.1127 90.5398C18.826 90.5268 18.5397 90.5742 18.2724 90.6788C16.6511 91.3597 16.0512 94.4159 16.1971 95.9561C16.1971 96.0696 16.5295 97.6423 16.6349 98.0395C15.8242 97.2288 15.0136 96.3533 14.2029 95.494C13.161 94.3321 12.1969 93.1027 11.317 91.8137C11.4143 91.7569 13.9597 90.2978 14.7299 89.2196C15.1245 88.7391 15.4095 88.1782 15.5649 87.5761C15.7203 86.974 15.7424 86.3453 15.6297 85.7338C15.553 85.4572 15.4191 85.1998 15.2366 84.9782C15.0542 84.7566 14.8273 84.5758 14.5705 84.4474C14.3138 84.319 14.033 84.246 13.7462 84.233C13.4595 84.22 13.1732 84.2673 12.9059 84.3719C11.2846 85.0529 10.6847 88.109 10.8306 89.6492C10.8306 89.7708 11.1954 91.457 11.2765 91.7569L11.1144 91.5381C10.268 90.2207 9.5383 88.8319 8.93372 87.3875C8.59325 86.5769 8.30952 85.8149 8.05012 85.0529C9.35006 84.5213 10.5611 83.7941 11.6413 82.8965C12.4114 82.0291 13.1491 80.724 12.914 79.5242C12.8644 79.2433 12.7567 78.9757 12.5978 78.7387C12.4389 78.5018 12.2323 78.3006 11.9912 78.148C11.7501 77.9954 11.4798 77.8947 11.1976 77.8526C10.9154 77.8104 10.6275 77.8275 10.3524 77.9029C8.73106 78.4055 7.74206 81.3806 7.70963 82.9209C7.70963 83.0019 7.7907 83.8612 7.85556 84.4854C7.75017 84.1368 7.62857 83.7801 7.52319 83.4478C7.14218 82.1994 6.87467 81.0158 6.64768 79.9863C6.51798 79.3945 6.4126 78.8595 6.32343 78.365C7.22704 77.2981 7.9599 76.0976 8.49596 74.8062C8.69292 74.2164 8.75799 73.5905 8.68655 72.9728C8.61512 72.3551 8.40892 71.7606 8.08254 71.2313C7.91172 71.0001 7.69405 70.8077 7.44376 70.6664C7.19348 70.5252 6.9162 70.4383 6.63006 70.4115C6.34391 70.3848 6.05534 70.4187 5.78319 70.511C5.51104 70.6034 5.26144 70.7521 5.0507 70.9475C3.81041 72.1554 4.32112 75.2359 5.0507 76.6221C5.11555 76.7437 6.25858 78.5028 6.27479 78.4785C6.35586 78.9649 6.44503 79.4837 6.55041 80.0511C6.76118 81.0969 7.00437 82.2723 7.36106 83.537C7.7222 84.9136 8.16617 86.2671 8.69052 87.5902C9.27089 89.0676 9.97883 90.4916 10.8063 91.8461C10.8098 91.8594 10.8098 91.8733 10.8063 91.8866C10.4253 91.5624 9.31473 90.6707 9.22556 90.6139C7.92041 89.8033 4.90479 88.9926 3.55101 90.087C3.33766 90.2786 3.16702 90.5129 3.05022 90.7748C2.93341 91.0367 2.87305 91.3202 2.87305 91.607C2.87305 91.8937 2.93341 92.1772 3.05022 92.4391C3.16702 92.701 3.33766 92.9354 3.55101 93.1269C4.42651 93.9862 5.92621 94.0754 7.06922 93.9376C8.35816 93.743 10.7171 92.1947 10.9036 92.0731C11.7876 93.4251 12.7569 94.7194 13.8057 95.948C14.4137 96.6614 15.046 97.3666 15.6945 98.0638L14.9974 97.5126C13.6922 96.7019 10.6766 95.8913 9.32283 96.9856C9.10814 97.1773 8.93637 97.4121 8.81876 97.6747C8.70114 97.9374 8.64034 98.2219 8.64034 98.5096C8.64034 98.7974 8.70114 99.0819 8.81876 99.3446C8.93637 99.6072 9.10814 99.842 9.32283 100.034C10.1902 100.885 11.698 100.982 12.8329 100.804C14.1896 100.364 15.4696 99.7161 16.6268 98.8826Z" fill="#263238"/>
<path d="M7.7737 84.907C7.7737 84.907 6.56585 83.1884 6.47667 83.0912C5.43904 81.9563 2.74769 80.3674 1.17503 81.0889C0.917641 81.2165 0.690089 81.3971 0.507222 81.6187C0.324356 81.8403 0.190289 82.098 0.113785 82.3749C0.0372813 82.6519 0.0200624 82.9419 0.0632434 83.2259C0.106424 83.51 0.209033 83.7817 0.364379 84.0234C0.980472 85.0772 2.39911 85.5636 3.55023 85.7014C4.92834 85.8555 7.7737 84.907 7.7737 84.907Z" fill="#263238"/>
<path d="M27.6257 84.4366C28.8092 84.9797 31.6303 85.0041 31.8573 85.0041C31.8416 86.6162 31.9337 88.2276 32.1329 89.8274C32.2464 90.7597 32.3923 91.7 32.5463 92.6404C32.4085 92.2189 32.2869 91.8297 32.2626 91.8297C31.6303 90.4192 29.5712 88.0764 27.8527 88.271C27.568 88.3112 27.295 88.4109 27.0514 88.5634C26.8077 88.716 26.5988 88.918 26.4383 89.1565C26.2778 89.395 26.1692 89.6646 26.1196 89.9478C26.07 90.2309 26.0804 90.5214 26.1503 90.8002C26.4097 91.9919 27.6095 92.8998 28.6633 93.3862C29.9931 93.7859 31.3768 93.9773 32.7652 93.9536C32.83 94.3103 32.8868 94.667 32.9517 95.0237C33.2597 96.7504 33.5758 98.469 33.8353 100.155C33.8353 100.406 33.892 100.658 33.9244 100.909L34.4351 99.4499C34.1595 97.942 33.8515 96.4262 33.5515 94.9102C33.4461 94.3914 33.3408 93.8645 33.2435 93.3457C34.3488 93.412 35.4577 93.3876 36.559 93.2727L37.9858 89.1465L39.1126 88.1656C38.9638 88.0926 38.8055 88.0407 38.6424 88.0116C36.94 87.7035 34.7351 89.9004 34.0055 91.2542C33.9487 91.3596 33.357 92.8755 33.1948 93.2403C32.976 92.081 32.7652 90.9299 32.6031 89.7869C32.3738 88.2432 32.2465 86.6861 32.2221 85.1257C32.3356 85.1257 35.262 85.3202 36.5023 84.8501C37.0984 84.6639 37.6466 84.3498 38.1087 83.9298C38.5707 83.5097 38.9355 82.9938 39.1774 82.4181C39.2667 82.1451 39.2974 81.8563 39.2675 81.5707C39.2376 81.285 39.1479 81.0089 39.004 80.7603C38.8602 80.5117 38.6656 80.2962 38.4329 80.1279C38.2002 79.9595 37.9345 79.8422 37.6534 79.7835C35.951 79.4673 33.738 81.6723 33.0084 83.0261C32.9516 83.1315 32.3193 84.7365 32.1977 85.0365C32.1977 84.9473 32.1977 84.8581 32.1977 84.7609C32.2219 83.1966 32.3792 81.6372 32.6679 80.0996C32.8219 79.289 33.0165 78.4783 33.2192 77.6677C33.7623 77.7568 36.2429 78.1459 37.4021 77.8379C38.5613 77.5299 39.834 76.8651 40.3285 75.7383C40.4464 75.4766 40.508 75.193 40.5094 74.9059C40.5107 74.6189 40.4518 74.3347 40.3364 74.0719C40.221 73.809 40.0518 73.5733 39.8396 73.38C39.6273 73.1867 39.3769 73.0401 39.1045 72.9497C37.4832 72.4552 35.0512 74.4008 34.1352 75.6735C34.0866 75.7383 33.6812 76.4841 33.3894 77.0516C33.4867 76.703 33.584 76.3382 33.6812 76.0058C34.0622 74.7574 34.4919 73.6306 34.8567 72.6335C35.0836 72.0742 35.2944 71.5716 35.489 71.1014C36.0726 70.9068 38.3911 70.1286 39.2666 69.3342C40.1421 68.5397 41.0014 67.3319 40.8879 66.0916C40.8722 65.8044 40.7964 65.5237 40.6652 65.2677C40.534 65.0118 40.3505 64.7863 40.1265 64.6058C39.9025 64.4254 39.6431 64.2941 39.3651 64.2205C39.087 64.1469 38.7966 64.1325 38.5127 64.1784C36.8103 64.5027 35.5457 67.3562 35.3593 68.8883C35.3593 69.0261 35.3187 71.1257 35.3593 71.1176C35.1566 71.5716 34.9458 72.0499 34.727 72.5849C34.3216 73.5739 33.8758 74.6926 33.4705 75.941C33.0227 77.2833 32.6519 78.6502 32.3599 80.0348C32.0303 81.5876 31.8377 83.1663 31.7843 84.7528V84.8419C31.6465 84.3555 31.2087 83.0017 31.1682 82.9045C30.5278 81.4939 28.4688 79.1512 26.7502 79.3457C26.4657 79.3858 26.1929 79.4854 25.9495 79.638C25.7061 79.7907 25.4977 79.993 25.3378 80.2317C25.1779 80.4704 25.0702 80.7401 25.0216 81.0233C24.973 81.3064 24.9847 81.5966 25.0559 81.875C25.4045 83.0423 26.6043 83.9502 27.6257 84.4366Z" fill="#263238"/>
</svg>
