<svg width="271" height="169" viewBox="0 0 271 169" fill="none" xmlns="http://www.w3.org/2000/svg">
<path d="M196.433 25.7541C225.645 36.3493 243.635 69.9892 227.27 108.7C220.692 124.26 232.784 144.607 241.772 155.273C226.914 148.131 233.337 150.5 211.733 137.088C184.727 120.324 147.496 161.603 88.6572 152.827C29.8185 144.051 20.0665 97.2585 24.0817 77.3068C30.455 45.6376 52.3886 28.1367 78.903 21.7342C112.313 13.6664 158.543 12.0114 196.433 25.7541Z" fill="#4FCB64"/>
<path d="M190.464 26.5359C219.432 40.7725 239.705 70.1785 227.695 120.175C223.721 136.717 242.077 152.197 245.381 160.096C242.263 153.559 229.171 148.566 207.574 135.078C180.578 118.217 148.358 153.073 89.5217 144.278C30.6849 135.482 20.9229 84.6447 27.6911 65.2808C36.3955 40.3776 46.0107 26.702 88.9531 16.2335C122.371 8.08679 154.254 8.74022 190.464 26.5359Z" stroke="black"/>
<path d="M70.933 96.8511C70.5442 96.8511 70.2527 96.7782 70.0583 96.6324C69.8882 96.4866 69.8032 96.2436 69.8032 95.9035V91.129C69.4873 90.9103 68.892 90.7159 68.0173 90.5458C67.1426 90.3758 66.3165 90.2664 65.5389 90.2178C65.2717 90.7281 65.0773 91.3477 64.9558 92.0766L64.81 92.8055C64.7857 92.9756 64.7128 93.3522 64.5913 93.9354C64.4698 94.5185 64.3362 95.0288 64.1904 95.4661C64.0446 95.8792 63.8988 96.2072 63.7531 96.4502C62.8297 96.4502 62.2952 96.2072 62.1494 95.7212C62.4167 95.3325 62.7204 94.1905 63.0606 92.2953L64.2633 85.6256C64.7979 82.4669 65.2838 79.7698 65.7212 77.5344C66.1828 75.2991 66.6688 73.4281 67.179 71.9217C67.7379 70.2452 68.2724 69.4069 68.7827 69.4069C69.2929 69.4069 69.6817 69.5041 69.949 69.6985C69.949 70.6704 70.1798 73.0151 70.6414 76.7326C71.1274 80.3773 71.3704 82.8678 71.3704 84.2042C71.3704 85.4919 71.504 87.3385 71.7713 89.744C72.0143 92.1981 72.1357 94.154 72.1357 95.6119C72.1357 96.438 71.7348 96.8511 70.933 96.8511ZM69.0378 89.0151C69.2322 89.0151 69.4752 88.9786 69.7667 88.9057C69.6938 87.8367 69.5723 86.5124 69.4023 84.9331C68.8434 79.4418 68.564 76.0766 68.564 74.8374V74.5458C68.321 74.7888 67.9808 75.8944 67.5435 77.8625C67.1304 79.8063 66.7417 81.8959 66.3772 84.1313C66.0127 86.3666 65.8184 87.8488 65.7941 88.5777C66.8146 88.8693 67.8958 89.0151 69.0378 89.0151Z" fill="white"/>
<path d="M77.6614 97.0698C77.3212 97.0698 77.0539 96.9726 76.8595 96.7782C76.6895 96.5595 76.6287 96.2922 76.6773 95.9764L78.0258 91.1654C78.0501 91.0682 78.0623 90.9346 78.0623 90.7645C78.0623 90.5944 78.0501 90.4729 78.0258 90.4001L77.8072 89.4524C77.7343 89.1366 77.6128 88.6263 77.4427 87.9217C77.2969 87.1928 77.1754 86.5489 77.0782 85.99C76.9081 85.2368 76.6409 83.6575 76.2764 81.252C75.9119 78.8222 75.5961 76.6476 75.3288 74.7281L75.1466 73.5982C74.8793 72.0918 74.7457 71.047 74.7457 70.4638C74.7457 69.9779 74.8064 69.662 74.9279 69.5162C75.0494 69.3947 75.2316 69.334 75.4746 69.334C75.669 69.334 75.8633 69.3704 76.0577 69.4433C76.2764 69.4919 76.4465 69.5648 76.568 69.662C76.7138 69.8078 76.7867 70.0508 76.7867 70.3909L76.7502 71.1199C76.7502 71.2414 76.896 72.1282 77.1876 73.7805L77.552 76.1495C77.5277 76.8541 77.552 77.5709 77.6249 78.2998C77.7221 79.0288 77.8679 79.9035 78.0623 80.924C78.1109 81.1184 78.1595 81.3613 78.2081 81.6529C78.3539 82.5033 78.4996 83.7303 78.6454 85.334C78.6697 85.6256 78.7062 85.9657 78.7548 86.3545C78.8034 86.7433 78.8398 87.0348 78.8641 87.2292C79.1071 85.99 79.3136 84.4957 79.4837 82.7463C79.4837 82.5519 79.508 82.2846 79.5566 81.9445C79.7024 80.5109 79.8725 78.4456 80.0668 75.7486C80.1154 75.3355 80.164 74.5944 80.2126 73.5253L80.2855 72.2133C80.3341 71.8731 80.3584 71.5451 80.3584 71.2292C80.3584 71.1563 80.3584 70.9862 80.3584 70.719C80.3827 70.4274 80.4192 70.1844 80.4678 69.99C80.5163 69.7956 80.5892 69.6377 80.6864 69.5162C80.8322 69.2975 81.0873 69.1882 81.4518 69.1882C81.8892 69.1882 82.2536 69.3097 82.5452 69.5527C82.7153 69.6985 82.8003 69.9414 82.8003 70.2816C82.8003 70.5003 82.7882 70.7068 82.7639 70.9012C82.7396 71.0713 82.7153 71.2292 82.691 71.375C82.5452 72.6385 82.3873 74.1571 82.2172 75.9308L81.7798 79.9764C81.7069 80.5352 81.5976 81.4221 81.4518 82.637C81.0873 85.99 80.7593 88.4198 80.4678 89.9262C80.3706 90.558 80.1276 91.6757 79.7388 93.2793C79.3501 94.883 79.1071 95.8063 79.0099 96.0493C78.937 96.3408 78.7791 96.5838 78.5361 96.7782C78.2931 96.9726 78.0015 97.0698 77.6614 97.0698Z" fill="white"/>
<path d="M96.5008 100.642C96.2821 100.642 96.0634 100.52 95.8447 100.277C95.6504 100.058 95.5532 99.8032 95.5532 99.5117C95.5532 99.0986 95.6261 97.9445 95.7719 96.0493C95.2373 95.9035 94.7028 95.8306 94.1682 95.8306C93.658 95.8306 92.9412 95.8913 92.0179 96.0128L91.1431 96.1221C89.3694 96.3165 87.9723 96.4502 86.9518 96.5231C86.8546 96.5231 86.2107 96.5595 85.0201 96.6324C85.0201 96.8754 85.0201 97.2277 85.0201 97.6893C85.0444 98.151 85.0444 98.5276 85.0201 98.8192C84.9958 99.1351 84.8987 99.3902 84.7286 99.5846C84.5828 99.7789 84.4006 99.8761 84.1819 99.8761C84.0604 99.8761 83.9025 99.8275 83.7081 99.7303C83.5137 99.5603 83.3072 99.2322 83.0885 98.7463C83.0399 98.6005 83.0156 98.0781 83.0156 97.1791L82.9791 96.195C82.9548 96.0007 83.052 95.7941 83.2707 95.5755C83.4894 95.3325 83.7931 95.1988 84.1819 95.1745C85.2753 95.1016 85.9799 94.4821 86.2958 93.3158C86.4659 92.7569 86.6238 92.0887 86.7696 91.3112C86.9154 90.5094 87.0125 89.8048 87.0611 89.1973C87.4013 85.99 87.5714 83.536 87.5714 81.8351C87.5714 81.252 87.5471 80.4016 87.4985 79.2839C87.4499 78.5064 87.4256 77.9354 87.4256 77.5709C87.4256 76.5504 87.4135 75.785 87.3892 75.2748C87.3892 73.2095 87.3649 71.8974 87.3163 71.3385C87.2677 70.8526 87.3527 70.4517 87.5714 70.1358C87.7901 69.7956 88.1302 69.6013 88.5919 69.5527C89.7582 69.4312 90.4628 69.3704 90.7058 69.3704C91.216 69.3704 91.6655 69.4312 92.0543 69.5527C92.2244 69.6013 92.3702 69.6256 92.4917 69.6256C92.6375 69.6256 92.7468 69.6377 92.8197 69.662C93.2813 69.7106 93.5972 69.8078 93.7673 69.9536C93.9617 70.0994 94.0589 70.4517 94.0589 71.0105L94.0224 73.5253C94.0224 74.0842 94.0346 74.4972 94.0589 74.7645C94.1318 77.413 94.2654 81.495 94.4598 87.0105L94.4962 87.9946C94.5448 89.2338 94.6056 90.4972 94.6785 91.785C94.7514 93.0485 94.8485 93.9354 94.97 94.4456C95.869 94.4456 96.5494 94.5064 97.011 94.6278C97.497 94.7493 97.74 95.053 97.74 95.539C97.74 95.6605 97.7278 95.7577 97.7035 95.8306C97.6306 96.3165 97.5577 96.8511 97.4848 97.4342C97.4119 98.0174 97.3633 98.5155 97.339 98.9285C97.3148 99.05 97.3026 99.2808 97.3026 99.621C97.3026 99.9612 97.2419 100.216 97.1204 100.386C97.0232 100.556 96.8167 100.642 96.5008 100.642ZM87.7536 94.883C88.8227 94.7858 89.6974 94.725 90.3778 94.7007L92.9655 94.5185C93.0141 93.984 93.0384 93.5952 93.0384 93.3522C93.0384 93.012 93.0141 92.4289 92.9655 91.6028C92.9655 91.4327 92.9412 91.1533 92.8926 90.7645C92.8683 90.3758 92.8561 90.0234 92.8561 89.7076L92.601 83.9126V80.3044L92.1637 71.9217C92.1637 71.5329 92.1272 71.2292 92.0543 71.0105C91.787 70.889 91.3497 70.8283 90.7422 70.8283C90.2077 70.8283 89.6974 70.8647 89.2115 70.9376V76.6597V79.4297C89.1386 82.7341 89.0171 85.662 88.847 88.2133C88.7741 89.4038 88.6162 90.643 88.3732 91.9308C88.1545 93.2186 87.948 94.2026 87.7536 94.883Z" fill="white"/>
<path d="M101.086 97.2155C100.722 97.2155 100.394 97.0576 100.102 96.7417C99.8106 96.4259 99.6769 96.0736 99.7012 95.6848C99.7741 94.4456 99.8106 93.1821 99.8106 91.8944C99.8106 90.7767 99.7863 89.0758 99.7377 86.7919C99.7134 85.7471 99.6283 84.1799 99.4826 82.0903C99.4583 81.6772 99.4218 81.0819 99.3732 80.3044C99.3246 79.5026 99.2882 78.7979 99.2639 78.1905C99.2396 77.7774 99.2274 77.1578 99.2274 76.3317L99.2639 72.6142C99.2639 72.3955 99.2396 72.0918 99.191 71.703L99.1545 70.8647C99.1545 70.476 99.2517 70.1723 99.4461 69.9536C99.6648 69.7349 99.9442 69.6256 100.284 69.6256C100.989 69.6256 101.39 69.9536 101.487 70.6096C101.584 71.3385 101.633 71.8852 101.633 72.2497C101.633 72.6871 101.596 73.1244 101.524 73.5618C101.402 74.4608 101.341 75.2748 101.341 76.0037L101.378 77.0971C101.475 79.3325 101.524 81.3856 101.524 83.2565V87.5937C101.524 88.3469 101.548 89.4767 101.596 90.9832L101.815 91.0196L102.252 89.5982C102.981 87.1442 103.674 84.9088 104.33 82.8921C104.67 81.9445 105.035 80.4745 105.423 78.4821C105.593 77.6073 105.751 76.9027 105.897 76.3682L107.719 69.8078C107.89 69.4919 108.096 69.2611 108.339 69.1153C108.582 68.9452 108.825 68.8723 109.068 68.8966C109.36 68.9695 109.639 69.1761 109.906 69.5162C110.174 69.8321 110.295 70.148 110.271 70.4638C110.246 71.3143 110.174 72.2011 110.052 73.1244C109.833 76.1616 109.712 78.069 109.688 78.8465C109.59 82.1024 109.542 84.5443 109.542 86.1723C109.542 86.9498 109.603 88.1768 109.724 89.8534C109.846 91.5056 109.918 92.599 109.943 93.1335L110.088 94.9559C110.113 95.4661 109.991 95.867 109.724 96.1586C109.457 96.4502 109.104 96.596 108.667 96.596C108.4 96.596 108.169 96.5109 107.975 96.3408C107.78 96.1464 107.671 95.8913 107.647 95.5755V95.2474L107.683 87.9217V86.6096C107.634 85.3461 107.586 83.4023 107.537 80.7782V79.2839V76.8784C107.513 76.8541 107.452 76.842 107.355 76.842C107.209 76.8663 106.991 77.4251 106.699 78.5185C106.432 79.5876 106.177 80.6688 105.934 81.7622C105.691 82.8313 105.533 83.5117 105.46 83.8032C105.241 84.848 105.107 85.4433 105.059 85.5891C104.379 87.8974 103.832 89.8291 103.419 91.3841C103.006 92.9149 102.666 94.4699 102.398 96.0493C102.252 96.8268 101.815 97.2155 101.086 97.2155Z" fill="white"/>
<path d="M119.637 97.8716C118.981 97.8716 118.386 97.6529 117.851 97.2155C117.317 96.7782 116.855 96.1829 116.466 95.4297C115.762 94.1176 115.239 92.3196 114.899 90.0356C114.656 88.4562 114.474 86.6339 114.352 84.5686L114.316 82.637V80.6688C114.292 80.0371 114.28 79.2717 114.28 78.3727C114.28 76.9149 114.34 75.6271 114.462 74.5094C114.559 73.3431 114.802 72.189 115.191 71.047C115.579 70.0508 116.138 69.3461 116.867 68.9331C117.305 68.7387 117.742 68.6415 118.179 68.6415C119.467 68.6415 120.488 69.1518 121.241 70.1723C122.067 71.3143 122.614 72.5899 122.881 73.9991C123.27 75.7 123.488 77.3279 123.537 78.883C123.634 80.6081 123.683 82.236 123.683 83.7668V85.8442C123.683 86.2573 123.622 87.0348 123.5 88.1768C123.403 89.0758 123.355 89.8412 123.355 90.4729V90.6187C123.209 91.2991 123.136 92.1009 123.136 93.0242C123.136 93.7045 122.99 94.4092 122.699 95.1381C122.407 95.867 121.994 96.4866 121.459 96.9969C120.925 97.58 120.317 97.8716 119.637 97.8716ZM119.71 95.867C120.196 95.867 120.609 95.4175 120.949 94.5185C121.241 93.7167 121.447 92.7448 121.569 91.6028C121.715 90.4365 121.836 89.1244 121.933 87.6666C121.982 87.0348 122.006 86.2209 122.006 85.2247L121.97 81.8716C121.921 80.5595 121.775 78.9194 121.532 76.9513C121.338 75.2748 120.974 73.7926 120.439 72.5048C120.196 71.8974 119.892 71.4236 119.528 71.0834C119.163 70.7433 118.775 70.5732 118.362 70.5732C117.754 70.5732 117.305 71.047 117.013 71.9946C116.649 72.9908 116.406 74.0842 116.284 75.2748C116.138 76.5625 116.053 77.7896 116.029 78.9559L115.993 80.1586C115.968 80.4988 115.956 80.9604 115.956 81.5436V81.6893C115.956 83.3173 116.126 85.3218 116.466 87.703C116.855 90.9346 117.426 93.2307 118.179 94.5914C118.665 95.4418 119.176 95.867 119.71 95.867Z" fill="white"/>
<path d="M129.531 97.1426C128.414 97.1426 127.855 96.8389 127.855 96.2315L127.928 91.7486L128 87.2657C128 85.6377 127.964 83.1715 127.891 79.867C127.818 76.5868 127.782 74.1206 127.782 72.4684V72.2497C127.782 71.618 127.843 71.0348 127.964 70.5003C128.11 69.8442 128.499 69.5162 129.13 69.5162C130.831 69.5162 132.18 70.0629 133.176 71.1563C134.172 72.2497 134.67 73.6954 134.67 75.4934C134.67 76.5868 134.379 77.7288 133.795 78.9194C133.212 80.11 132.52 80.9969 131.718 81.58C133.127 82.5276 134.16 83.7546 134.816 85.2611C135.496 86.7433 135.836 88.3833 135.836 90.1814C135.836 91.0318 135.545 92.0887 134.962 93.3522C134.257 94.8587 133.297 95.9399 132.082 96.596C131.354 96.9604 130.552 97.1426 129.677 97.1426H129.531ZM129.896 81.0333C130.527 80.8875 131.062 80.3651 131.499 79.4661C131.864 78.7858 132.204 77.9597 132.52 76.9878C132.593 76.7205 132.714 76.3803 132.884 75.9673V74.6916C132.884 73.9627 132.617 73.2581 132.082 72.5777C131.548 71.8974 130.941 71.5572 130.26 71.5572C129.92 71.5572 129.75 71.9338 129.75 72.6871C129.75 74.2907 129.774 75.7243 129.823 76.9878L129.896 81.0333ZM130.041 95.2474C131.232 95.0773 132.18 94.5307 132.884 93.6073C133.589 92.684 133.941 91.5785 133.941 90.2907C133.941 89.173 133.844 88.1525 133.65 87.2292C133.48 86.2816 133.249 85.5648 132.957 85.0789C132.69 84.6172 132.423 84.2284 132.155 83.9126C131.888 83.5967 131.657 83.3902 131.463 83.293L131.171 83.1837H129.859C129.981 85.9779 130.041 89.9991 130.041 95.2474Z" fill="white"/>
<path d="M150.286 95.3568C150.334 95.5997 150.359 95.7698 150.359 95.867C150.359 96.1343 150.298 96.3651 150.176 96.5595C150.055 96.7296 149.885 96.8268 149.666 96.8511C149.229 96.8754 148.901 96.8025 148.682 96.6324C148.488 96.4623 148.378 96.1343 148.354 95.6483L148.318 94.1176C148.318 93.4616 148.293 92.4532 148.245 91.0925C148.196 89.3917 148.148 88.1161 148.099 87.2657L147.917 81.6165C147.868 79.2596 147.82 77.4737 147.771 76.2588L147.698 74.072V71.5208V70.2087C147.722 69.9171 147.795 69.662 147.917 69.4433C148.063 69.2247 148.257 69.1153 148.5 69.1153C148.694 69.1153 148.877 69.1639 149.047 69.2611C149.338 69.4069 149.52 69.6134 149.593 69.8807C149.666 70.1237 149.69 70.4274 149.666 70.7919V75.5663C149.618 77.0728 149.569 79.1867 149.52 81.908C149.545 81.9323 149.569 82.236 149.593 82.8192C149.618 83.4023 149.642 84.4228 149.666 85.8807C149.812 87.703 149.897 89.0272 149.921 89.8534C150.019 92.8663 150.14 94.7007 150.286 95.3568ZM145.293 84.1313C145.56 84.6415 145.779 85.4312 145.949 86.5003C146.119 87.5694 146.204 88.4805 146.204 89.2338C146.204 90.3272 145.937 91.5299 145.402 92.842C144.892 94.154 144.211 95.1381 143.361 95.7941C142.875 96.1343 142.474 96.3651 142.158 96.4866C141.867 96.5838 141.429 96.6688 140.846 96.7417C140.7 96.766 140.518 96.7782 140.299 96.7782C139.911 96.7782 139.595 96.7174 139.352 96.596C139.133 96.4502 139 96.2679 138.951 96.0493C138.951 94.7858 138.987 93.5952 139.06 92.4775C139.157 90.8739 139.206 89.4281 139.206 88.1404C139.206 86.3666 139.145 84.4593 139.024 82.4183C138.975 81.6408 138.927 80.7296 138.878 79.6848C138.854 78.6157 138.829 77.8017 138.805 77.2429L138.769 75.5663C138.769 74.4729 138.793 72.8086 138.842 70.5732C138.866 70.233 139 69.9657 139.243 69.7714C139.51 69.577 139.826 69.5041 140.19 69.5527C140.53 69.6013 140.798 69.7592 140.992 70.0265C141.211 70.2695 141.284 70.5489 141.211 70.8647C140.968 71.8852 140.846 73.2945 140.846 75.0925C140.846 75.7243 140.834 76.1981 140.81 76.5139C140.785 76.8055 140.773 77.17 140.773 77.6073C140.773 78.0204 140.761 78.4335 140.737 78.8465L140.7 81.1062C140.943 81.0576 141.138 81.0333 141.284 81.0333C142.037 81.0333 142.778 81.3492 143.507 81.9809C144.26 82.5884 144.855 83.3051 145.293 84.1313ZM143.507 93.6802C143.847 92.9027 144.102 92.1616 144.272 91.457C144.467 90.7524 144.564 89.9627 144.564 89.088C144.564 87.5329 144.138 85.9293 143.288 84.277C142.656 83.0622 141.83 82.5276 140.81 82.6734L140.919 89.8169C140.968 90.3029 140.992 91.214 140.992 92.5504C140.992 93.1092 140.98 93.4373 140.956 93.5344C140.907 93.7774 140.883 93.9475 140.883 94.0447C140.883 94.3606 140.955 94.6643 141.101 94.9559C141.271 94.9073 141.551 94.8222 141.94 94.7007C142.328 94.5549 142.656 94.4092 142.924 94.2634C143.191 94.0933 143.385 93.8989 143.507 93.6802Z" fill="white"/>
<path d="M158.22 97.1426C157.369 97.0455 156.762 96.6081 156.397 95.8306C156.252 95.539 156.154 95.3203 156.106 95.1745C155.863 94.6886 155.681 94.2634 155.559 93.8989C155.438 93.5344 155.377 93.1578 155.377 92.7691L155.413 92.3682C155.438 92.1009 155.511 91.8701 155.632 91.6757C155.754 91.4813 155.911 91.3598 156.106 91.3112C156.373 91.2626 156.64 91.3355 156.908 91.5299C157.199 91.7 157.381 91.9187 157.454 92.1859C157.552 92.4289 157.649 92.7691 157.746 93.2064C157.892 93.8625 158.086 94.4942 158.329 95.1016C158.475 95.4175 158.718 95.5755 159.058 95.5755C159.155 95.5755 159.301 95.5512 159.495 95.5026C160.37 95.1381 160.965 94.5914 161.281 93.8625C161.864 92.4532 162.156 91.0925 162.156 89.7805C162.156 89.2702 162.095 88.6749 161.974 87.9946C161.949 87.7516 161.925 87.5208 161.901 87.3021C161.877 87.0591 161.852 86.8161 161.828 86.5732C161.706 85.7471 161.427 85.091 160.99 84.6051C160.552 84.1191 159.921 83.7668 159.094 83.5481C159.022 83.5238 158.827 83.4874 158.511 83.4388C158.195 83.3659 157.928 83.2444 157.709 83.0743C157.515 82.8799 157.418 82.6491 157.418 82.3818C157.369 81.7015 157.916 81.2398 159.058 80.9969C159.69 80.8268 160.2 80.4502 160.589 79.867C161.512 79.0166 161.974 77.7774 161.974 76.1495C161.974 75.1776 161.816 74.1814 161.5 73.1609C161.354 72.602 161.026 72.1768 160.516 71.8852C160.006 71.5694 159.459 71.4114 158.876 71.4114C158.05 71.4114 157.357 71.7638 156.798 72.4684C156.701 72.5899 156.531 72.845 156.288 73.2338C155.875 73.9141 155.583 74.315 155.413 74.4365C155.219 74.6309 155.025 74.7281 154.83 74.7281C154.539 74.7281 154.308 74.6552 154.138 74.5094C153.992 74.3393 153.907 74.1571 153.883 73.9627C153.858 73.8655 153.846 73.7197 153.846 73.5253C153.846 72.7235 154.077 71.9946 154.539 71.3385C155.025 70.6825 155.632 70.1601 156.361 69.7714C157.114 69.3826 157.855 69.1882 158.584 69.1882C159.435 69.1882 160.321 69.419 161.245 69.8807C162.533 70.5124 163.322 71.5208 163.614 72.9057C163.784 73.659 163.869 74.4243 163.869 75.2019C163.869 76.271 163.711 77.3644 163.395 78.4821C163.104 79.5997 162.472 80.6688 161.5 81.6893L160.771 82.0174C161.573 82.1874 162.29 82.7706 162.921 83.7668C163.553 84.763 163.869 85.7592 163.869 86.7554C163.869 87.1685 163.905 87.5815 163.978 87.9946C164.027 88.4319 164.051 88.7357 164.051 88.9057C164.075 89.1487 164.088 89.501 164.088 89.9627C164.088 91.3477 163.893 92.6233 163.504 93.7896C162.776 96.0978 161.391 97.252 159.35 97.252C159.009 97.252 158.633 97.2155 158.22 97.1426Z" fill="white"/>
<path d="M172.278 97.8716C171.622 97.8716 171.027 97.6529 170.492 97.2155C169.958 96.7782 169.496 96.1829 169.107 95.4297C168.403 94.1176 167.88 92.3196 167.54 90.0356C167.297 88.4562 167.115 86.6339 166.993 84.5686L166.957 82.637V80.6688C166.933 80.0371 166.92 79.2717 166.92 78.3727C166.92 76.9149 166.981 75.6271 167.103 74.5094C167.2 73.3431 167.443 72.189 167.832 71.047C168.22 70.0508 168.779 69.3461 169.508 68.9331C169.946 68.7387 170.383 68.6415 170.82 68.6415C172.108 68.6415 173.129 69.1518 173.882 70.1723C174.708 71.3143 175.255 72.5899 175.522 73.9991C175.911 75.7 176.129 77.3279 176.178 78.883C176.275 80.6081 176.324 82.236 176.324 83.7668V85.8442C176.324 86.2573 176.263 87.0348 176.141 88.1768C176.044 89.0758 175.996 89.8412 175.996 90.4729V90.6187C175.85 91.2991 175.777 92.1009 175.777 93.0242C175.777 93.7045 175.631 94.4092 175.34 95.1381C175.048 95.867 174.635 96.4866 174.1 96.9969C173.566 97.58 172.958 97.8716 172.278 97.8716ZM172.351 95.867C172.837 95.867 173.25 95.4175 173.59 94.5185C173.882 93.7167 174.088 92.7448 174.21 91.6028C174.356 90.4365 174.477 89.1244 174.574 87.6666C174.623 87.0348 174.647 86.2209 174.647 85.2247L174.611 81.8716C174.562 80.5595 174.416 78.9194 174.173 76.9513C173.979 75.2748 173.614 73.7926 173.08 72.5048C172.837 71.8974 172.533 71.4236 172.169 71.0834C171.804 70.7433 171.416 70.5732 171.002 70.5732C170.395 70.5732 169.946 71.047 169.654 71.9946C169.289 72.9908 169.047 74.0842 168.925 75.2748C168.779 76.5625 168.694 77.7896 168.67 78.9559L168.633 80.1586C168.609 80.4988 168.597 80.9604 168.597 81.5436V81.6893C168.597 83.3173 168.767 85.3218 169.107 87.703C169.496 90.9346 170.067 93.2307 170.82 94.5914C171.306 95.4418 171.816 95.867 172.351 95.867Z" fill="white"/>
<path d="M182.172 97.1426C181.054 97.1426 180.496 96.8389 180.496 96.2315L180.569 91.7486L180.641 87.2657C180.641 85.6377 180.605 83.1715 180.532 79.867C180.459 76.5868 180.423 74.1206 180.423 72.4684V72.2497C180.423 71.618 180.483 71.0348 180.605 70.5003C180.751 69.8442 181.14 69.5162 181.771 69.5162C183.472 69.5162 184.821 70.0629 185.817 71.1563C186.813 72.2497 187.311 73.6954 187.311 75.4934C187.311 76.5868 187.02 77.7288 186.436 78.9194C185.853 80.11 185.161 80.9969 184.359 81.58C185.768 82.5276 186.801 83.7546 187.457 85.2611C188.137 86.7433 188.477 88.3833 188.477 90.1814C188.477 91.0318 188.186 92.0887 187.603 93.3522C186.898 94.8587 185.938 95.9399 184.723 96.596C183.995 96.9604 183.193 97.1426 182.318 97.1426H182.172ZM182.537 81.0333C183.168 80.8875 183.703 80.3651 184.14 79.4661C184.505 78.7858 184.845 77.9597 185.161 76.9878C185.234 76.7205 185.355 76.3803 185.525 75.9673V74.6916C185.525 73.9627 185.258 73.2581 184.723 72.5777C184.189 71.8974 183.581 71.5572 182.901 71.5572C182.561 71.5572 182.391 71.9338 182.391 72.6871C182.391 74.2907 182.415 75.7243 182.464 76.9878L182.537 81.0333ZM182.682 95.2474C183.873 95.0773 184.821 94.5307 185.525 93.6073C186.23 92.684 186.582 91.5785 186.582 90.2907C186.582 89.173 186.485 88.1525 186.291 87.2292C186.121 86.2816 185.89 85.5648 185.598 85.0789C185.331 84.6172 185.064 84.2284 184.796 83.9126C184.529 83.5967 184.298 83.3902 184.104 83.293L183.812 83.1837H182.5C182.622 85.9779 182.682 89.9991 182.682 95.2474Z" fill="white"/>
<path fill-rule="evenodd" clip-rule="evenodd" d="M198.814 39.2084L209.83 36.7385C210.059 36.6871 210.292 36.8302 210.344 37.0641L215.649 60.8394C215.7 61.068 215.557 61.3012 215.322 61.3538L204.301 63.8249C202.819 64.1517 201.34 63.2162 201.01 61.7382L196.719 42.5085C196.388 41.0252 197.333 39.5406 198.814 39.2084ZM251.941 16.2876C255.45 19.453 258.425 23.2296 260.673 27.4874C262.842 31.5898 264.339 36.139 264.992 40.9999C265.592 45.443 265.45 49.8235 264.656 54.0153C263.992 57.5306 262.866 60.9147 261.346 64.0804C261.113 64.5904 260.873 65.0963 260.621 65.5993L260.589 65.5787C260.466 65.8071 260.344 66.0356 260.215 66.2599L259.84 66.9358L259.221 66.4715L256.714 64.5886L256.25 64.2404L256.528 63.7315C258.327 60.4084 259.623 56.7852 260.319 52.9838C260.99 49.3219 261.103 45.4893 260.571 41.6004C259.987 37.2766 258.66 33.2365 256.739 29.5921C254.963 26.2221 252.679 23.1838 250.004 20.5737L249.991 20.5655C249.511 20.1204 249.017 19.6842 248.51 19.2676L248.544 19.2208L248.509 19.1896L248.94 18.6909L249.256 18.3243L250.44 16.8361L250.502 16.8892L250.97 16.349L251.423 15.8231L251.941 16.2876ZM252.069 18.2684C251.891 18.0963 251.719 17.9282 251.537 17.7626L251.523 17.7768C251.71 17.936 251.892 18.1016 252.069 18.2684ZM244.527 24.1633C247.114 26.5307 249.304 29.3499 250.962 32.5174C252.562 35.5752 253.663 38.9515 254.154 42.5591C254.572 45.6363 254.513 48.6808 254.031 51.6135C253.533 54.645 252.586 57.5481 251.254 60.2305L250.89 60.9595L250.238 60.4693L247.333 59.2842L246.889 58.9537L247.125 58.4543C248.234 56.1288 249.394 53.5521 249.801 50.96C250.193 48.4548 249.853 45.9296 249.492 43.2808C249.063 40.1056 248.1 37.1451 246.704 34.4716C245.392 31.9523 243.686 29.6773 241.688 27.7193C241.428 27.4818 241.163 27.2454 240.888 27.0167L240.91 26.9895L240.587 26.6936L241.014 26.2014L243.56 24.2182L244.018 23.6911L244.527 24.1633ZM243.325 26.0741L243.104 25.8612L243.094 25.8689L243.325 26.0741ZM212.541 35.6728C218.173 30.72 223.81 25.7659 229.444 20.8183C229.987 20.3448 230.851 21.1057 231.008 21.8075L240.74 65.4238C240.905 66.1628 240.417 67.2881 239.692 67.0712L218.097 60.5752C217.959 60.5336 217.817 60.5209 217.785 60.3773L212.342 35.9854C212.31 35.8418 212.434 35.7694 212.541 35.6728Z" fill="#263238"/>
<path d="M21.486 125.946C21.8054 126.276 22.1145 126.617 22.4339 126.978C23.9691 128.59 25.5249 130.191 26.9674 131.812C27.4826 132.38 27.9978 132.959 28.4614 133.537L27.6887 132.938C26.0298 131.905 22.1969 130.872 20.4763 132.256C20.2048 132.501 19.9878 132.801 19.8393 133.135C19.6907 133.47 19.6139 133.832 19.6139 134.198C19.6139 134.564 19.6907 134.926 19.8393 135.261C19.9878 135.595 20.2048 135.895 20.4763 136.14C21.589 137.224 23.5055 137.348 24.9479 137.173C26.5945 136.68 28.1551 135.934 29.5742 134.962C30.0585 135.572 30.5427 136.171 30.9858 136.791C31.2743 137.214 31.5834 137.596 31.8513 138.04L32.6652 139.321C33.0361 139.961 33.4174 140.602 33.778 141.232L34.5714 140.292C34.2623 139.776 33.9428 139.259 33.6028 138.712L32.7579 137.441C32.4901 137.018 32.15 136.594 31.8409 136.171C31.0991 135.138 30.3057 134.229 29.4815 133.289C31.0087 132.441 32.3984 131.365 33.6028 130.098C34.1046 129.483 34.4669 128.767 34.6644 127.998C34.8619 127.229 34.8899 126.427 34.7465 125.646C34.655 125.296 34.4916 124.968 34.2667 124.685C34.0417 124.401 33.7602 124.168 33.4402 124C33.1202 123.832 32.7686 123.732 32.4081 123.708C32.0475 123.684 31.6859 123.735 31.3464 123.859C29.2857 124.727 28.5232 128.621 28.7087 130.573C28.7087 130.697 29.0075 132.091 29.1827 132.855C28.6778 132.287 28.1523 131.719 27.6681 131.172C26.1534 129.571 24.577 127.991 23.0109 126.41L21.589 124.964C21.8466 124.809 24.9377 123.023 25.8959 121.67C26.3981 121.058 26.7606 120.343 26.9582 119.576C27.1558 118.809 27.1835 118.007 27.0396 117.228C26.9421 116.876 26.7719 116.548 26.54 116.265C26.3081 115.983 26.0197 115.753 25.6933 115.589C25.367 115.426 25.0101 115.333 24.6456 115.316C24.2812 115.299 23.9173 115.36 23.5776 115.493C21.5169 116.361 20.7545 120.254 20.9399 122.217C20.9399 122.362 21.3624 124.365 21.4963 124.871C20.466 123.839 19.4356 122.723 18.4053 121.628C17.081 120.148 15.8556 118.581 14.7373 116.939C14.8609 116.867 18.0962 115.008 19.075 113.634C19.5766 113.022 19.9388 112.307 20.1363 111.54C20.3338 110.773 20.362 109.972 20.2187 109.193C20.1212 108.84 19.951 108.512 19.7191 108.23C19.4872 107.947 19.1988 107.717 18.8725 107.553C18.5462 107.39 18.1892 107.297 17.8248 107.28C17.4603 107.264 17.0965 107.324 16.7567 107.457C14.696 108.325 13.9336 112.219 14.1191 114.181C14.1191 114.336 14.5827 116.485 14.6857 116.867L14.4797 116.588C13.4039 114.909 12.4765 113.14 11.7081 111.3C11.2753 110.267 10.9147 109.296 10.585 108.325C12.2372 107.648 13.7765 106.721 15.1494 105.578C16.1282 104.472 17.0658 102.809 16.767 101.281C16.704 100.923 16.567 100.582 16.3651 100.28C16.1631 99.9781 15.9005 99.7217 15.5941 99.5273C15.2877 99.3329 14.9441 99.2047 14.5855 99.1509C14.2268 99.0971 13.8609 99.119 13.5112 99.2151C11.4505 99.8554 10.1934 103.646 10.1522 105.608C10.1522 105.712 10.2553 106.807 10.3377 107.602C10.2038 107.158 10.0492 106.703 9.91525 106.28C9.43099 104.689 9.09097 103.181 8.80248 101.87C8.63762 101.116 8.50369 100.434 8.39035 99.8038C9.53884 98.4444 10.4703 96.9148 11.1517 95.2695C11.402 94.518 11.4847 93.7206 11.3939 92.9335C11.3031 92.1465 11.041 91.389 10.6262 90.7146C10.4091 90.4201 10.1324 90.1749 9.8143 89.9949C9.49619 89.815 9.14377 89.7043 8.78008 89.6702C8.41638 89.6361 8.0496 89.6792 7.7037 89.7969C7.3578 89.9146 7.04055 90.1041 6.7727 90.3531C5.19628 91.8921 5.84539 95.8169 6.7727 97.5831C6.85513 97.7381 8.30792 99.9794 8.32853 99.9484C8.43156 100.568 8.5449 101.229 8.67884 101.952C8.94673 103.285 9.25583 104.782 9.70919 106.393C10.1682 108.147 10.7325 109.872 11.3989 111.558C12.1366 113.44 13.0364 115.255 14.0881 116.98C14.0925 116.997 14.0925 117.015 14.0881 117.032C13.6039 116.619 12.1923 115.483 12.079 115.41C10.4201 114.377 6.58725 113.345 4.86658 114.739C4.5954 114.983 4.37853 115.282 4.23007 115.615C4.0816 115.949 4.00488 116.31 4.00488 116.676C4.00488 117.041 4.0816 117.402 4.23007 117.736C4.37853 118.07 4.5954 118.368 4.86658 118.612C5.97935 119.707 7.88548 119.821 9.33826 119.645C10.9765 119.397 13.9748 117.424 14.2118 117.27C15.3353 118.992 16.5674 120.641 17.9004 122.207C18.6732 123.116 19.4768 124.014 20.3011 124.902L19.415 124.2C17.7562 123.167 13.9233 122.134 12.2026 123.529C11.9297 123.773 11.7114 124.072 11.5619 124.407C11.4124 124.741 11.3352 125.104 11.3352 125.47C11.3352 125.837 11.4124 126.2 11.5619 126.534C11.7114 126.869 11.9297 127.168 12.2026 127.412C13.3051 128.497 15.2215 128.621 16.664 128.393C18.3884 127.833 20.0152 127.008 21.486 125.946Z" fill="#263238"/>
<path d="M10.2339 108.139C10.2339 108.139 8.69866 105.949 8.58532 105.825C7.26648 104.379 3.84574 102.355 1.84688 103.274C1.51974 103.437 1.23052 103.667 0.998091 103.949C0.765666 104.232 0.595266 104.56 0.498029 104.913C0.400792 105.266 0.378906 105.635 0.43379 105.997C0.488673 106.359 0.619089 106.705 0.816536 107.013C1.5996 108.356 3.4027 108.976 4.86579 109.151C6.61736 109.347 10.2339 108.139 10.2339 108.139Z" fill="#263238"/>
<path d="M35.4654 107.54C36.9697 108.232 40.5553 108.263 40.8437 108.263C40.8238 110.317 40.9408 112.37 41.1941 114.408C41.3383 115.596 41.5238 116.794 41.7195 117.992C41.5444 117.455 41.3898 116.959 41.3589 116.959C40.5553 115.162 37.9382 112.177 35.7539 112.425C35.3921 112.476 35.0451 112.603 34.7354 112.798C34.4257 112.992 34.1602 113.25 33.9562 113.553C33.7522 113.857 33.6142 114.201 33.5511 114.562C33.488 114.922 33.5013 115.292 33.5901 115.648C33.9199 117.166 35.4448 118.323 36.7842 118.943C38.4744 119.452 40.2331 119.696 41.9977 119.666C42.0801 120.12 42.1523 120.574 42.2347 121.029C42.6262 123.229 43.0281 125.419 43.3578 127.567C43.3578 127.887 43.4299 128.207 43.4711 128.528L44.1202 126.668C43.7699 124.747 43.3784 122.816 42.9972 120.884C42.8632 120.223 42.7293 119.552 42.6056 118.891C44.0105 118.975 45.4199 118.944 46.8197 118.798L48.6331 113.541L50.0653 112.291C49.8762 112.198 49.675 112.132 49.4677 112.095C47.304 111.702 44.5014 114.501 43.5741 116.226C43.502 116.36 42.7499 118.292 42.5438 118.757C42.2656 117.28 41.9977 115.813 41.7917 114.357C41.5003 112.39 41.3385 110.406 41.3074 108.418C41.4516 108.418 45.1712 108.666 46.7476 108.067C47.5052 107.829 48.202 107.429 48.7893 106.894C49.3766 106.359 49.8402 105.701 50.1477 104.968C50.2612 104.62 50.3002 104.252 50.2622 103.888C50.2243 103.524 50.1101 103.172 49.9274 102.856C49.7446 102.539 49.4972 102.264 49.2014 102.05C48.9056 101.835 48.568 101.686 48.2107 101.611C46.047 101.208 43.2341 104.018 42.3068 105.743C42.2347 105.877 41.431 107.922 41.2765 108.304C41.2765 108.19 41.2765 108.077 41.2765 107.953C41.3072 105.96 41.5071 103.973 41.8741 102.014C42.0698 100.981 42.3171 99.9482 42.5747 98.9153C43.265 99.0289 46.4179 99.5247 47.8913 99.1322C49.3647 98.7397 50.9823 97.8928 51.6108 96.4571C51.7606 96.1236 51.8389 95.7623 51.8406 95.3966C51.8424 95.0308 51.7675 94.6688 51.6208 94.3339C51.4742 93.999 51.259 93.6986 50.9893 93.4523C50.7196 93.206 50.4013 93.0192 50.055 92.904C47.9943 92.274 44.9033 94.7529 43.739 96.3745C43.6772 96.4571 43.162 97.4074 42.7911 98.1304C42.9147 97.6862 43.0384 97.2214 43.162 96.798C43.6463 95.2073 44.1923 93.7717 44.656 92.5012C44.9445 91.7886 45.2124 91.1482 45.4597 90.5491C46.2015 90.3012 49.1483 89.3097 50.2611 88.2975C51.3738 87.2853 52.466 85.7463 52.3217 84.166C52.3019 83.8001 52.2054 83.4425 52.0387 83.1163C51.872 82.7902 51.6387 82.5029 51.354 82.273C51.0693 82.0431 50.7396 81.8759 50.3862 81.7821C50.0328 81.6882 49.6637 81.67 49.3028 81.7285C47.1391 82.1416 45.5318 85.7773 45.2948 87.7294C45.2948 87.905 45.2433 90.5801 45.2948 90.5698C45.0372 91.1482 44.7693 91.7576 44.4911 92.4393C43.976 93.6994 43.4093 95.1247 42.8941 96.7153C42.325 98.4256 41.8538 100.167 41.4826 101.931C41.0637 103.91 40.8189 105.921 40.751 107.943V108.056C40.5759 107.436 40.0195 105.712 39.9679 105.588C39.154 103.79 36.5369 100.805 34.3526 101.053C33.991 101.104 33.6442 101.231 33.3349 101.426C33.0256 101.62 32.7607 101.878 32.5574 102.182C32.3542 102.486 32.2173 102.83 32.1555 103.191C32.0938 103.551 32.1087 103.921 32.1992 104.276C32.6422 105.763 34.1671 106.92 35.4654 107.54Z" fill="#263238"/>
</svg>
