<svg width="139" height="128" viewBox="0 0 139 128" fill="none" xmlns="http://www.w3.org/2000/svg">
<path d="M39.4852 94.6271C36.4554 103.384 43.8339 108.049 47.9019 109.288C38.8234 107.244 18.0029 99.423 7.34912 84.4874C-5.96812 65.8178 1.98618 41.7586 10.348 29.1611C18.7098 16.5635 65.85 -2.053 82.2438 -0.0940565C98.6377 1.86489 110.837 20.8512 111.539 39.616C112.241 58.3809 93.431 71.4538 72.3043 79.3593C51.1776 87.2648 43.2724 83.6812 39.4852 94.6271Z" fill="#FE941B"/>
<path d="M39.1213 95.2021C36.0915 103.959 43.3618 108.436 47.4297 109.674C38.3512 107.631 19.7396 104.744 9.08579 89.8079C-4.23146 71.1383 0.569748 47.4575 9.8286 35.5038C23.0899 18.3826 64.9362 -0.208366 83.8192 6.38863C99.4059 11.834 112.413 27.3339 113.114 46.0987C113.816 64.8636 97.3365 76.191 76.2098 84.0965C55.0831 92.002 42.9085 84.2562 39.1213 95.2021Z" stroke="black"/>
<path d="M87.6203 45.0672C87.3266 45.1896 86.8946 44.9387 86.3244 44.3145C85.742 43.661 85.1388 42.5852 84.5148 41.0873C84.2946 40.5586 83.908 39.5478 83.355 38.0548C82.9611 36.9436 82.4888 35.7271 81.9383 34.4054L78.8405 27.2169L75.7427 20.0283C75.5469 19.5584 75.5727 19.0823 75.8199 18.6002C76.0549 18.0887 76.4074 17.7351 76.8773 17.5393C77.1711 17.417 77.4635 17.4158 77.7548 17.5357C78.046 17.6557 78.2589 17.8772 78.3935 18.2003C79.4701 20.7849 80.7853 24.356 82.339 28.9133C84.0591 33.9529 85.3595 37.53 86.2404 39.6447C86.8889 41.2014 87.3305 42.3444 87.5654 43.0738C87.8174 43.7615 87.9336 44.2474 87.914 44.5313C87.9238 44.803 87.8259 44.9816 87.6203 45.0672ZM89.9654 52.9312C89.6129 53.0781 89.2079 53.0572 88.7502 52.8687C88.3219 52.668 88.0099 52.3326 87.8142 51.8627C87.5939 51.334 87.5805 50.8054 87.7739 50.2767C87.9551 49.7187 88.2953 49.3357 88.7947 49.1277C89.3233 48.9075 89.8348 48.9357 90.3292 49.2123C90.8407 49.4473 91.2249 49.8732 91.4819 50.49C91.9101 51.518 91.4046 52.3318 89.9654 52.9312Z" fill="white"/>
<path d="M79.4481 57.5759C78.8406 57.7971 78.2293 57.833 77.6142 57.6836C76.9991 57.5341 76.4081 57.241 75.8413 56.8042C74.8285 56.0526 73.8509 54.8732 72.9087 53.2659C72.25 52.1571 71.5809 50.8446 70.9012 49.3284L70.337 47.8843L69.7965 46.4005C69.6006 45.9324 69.3791 45.3594 69.1323 44.6816C68.7319 43.5824 68.4345 42.591 68.2401 41.7073C68.0098 40.7952 67.9179 39.8431 67.9643 38.851C68.0507 37.9688 68.3747 37.249 68.9363 36.6917C69.2879 36.3977 69.6662 36.1769 70.0712 36.0294C71.2637 35.595 72.3488 35.6355 73.3265 36.1509C74.4051 36.7333 75.2617 37.5107 75.8962 38.483C76.7233 39.6343 77.3728 40.7879 77.8448 41.944C78.4086 43.2119 78.9006 44.4229 79.321 45.577L79.8915 47.1433C80.0049 47.4547 80.1622 48.0614 80.3633 48.9634C80.5201 49.674 80.6853 50.2675 80.8588 50.7438L80.8988 50.8537C80.9507 51.4158 81.1034 52.0449 81.3569 52.7411C81.5437 53.254 81.6022 53.8344 81.5324 54.4824C81.4626 55.1303 81.2502 55.7367 80.8954 56.3017C80.5605 56.9217 80.0781 57.3464 79.4481 57.5759ZM78.9651 56.0399C79.4151 55.876 79.6742 55.3978 79.7423 54.6053C79.7921 53.9024 79.7164 53.1 79.5153 52.198C79.3301 51.2695 79.0822 50.2392 78.7719 49.1073C78.6434 48.6146 78.4424 47.9927 78.1688 47.2416L77.2143 44.7258C76.809 43.753 76.2236 42.5656 75.4581 41.1637C74.8177 39.9652 74.0732 38.9706 73.2246 38.18C72.8328 37.804 72.4214 37.5492 71.9905 37.4156C71.5596 37.2821 71.1529 37.285 70.7704 37.4243C70.2079 37.6292 69.9218 38.138 69.912 38.9508C69.8481 39.8248 69.9233 40.7311 70.1378 41.6698C70.3564 42.6899 70.6146 43.6437 70.9124 44.5312L71.2089 45.4503C71.2798 45.715 71.3954 46.0671 71.5555 46.5068L71.5955 46.6167C72.0426 47.8441 72.7505 49.2981 73.7194 50.9787C74.9669 53.284 76.1262 54.8226 77.1973 55.5945C77.8808 56.0717 78.4701 56.2202 78.9651 56.0399Z" fill="white"/>
<path d="M60.4174 67.3009C60.1216 67.4038 59.782 67.3073 59.3984 67.0112C59.051 66.7456 58.7906 66.3638 58.6174 65.8658C58.4974 65.521 58.3963 65.0838 58.3141 64.5541C58.1958 63.9941 58.09 63.58 57.9967 63.3118C56.8106 59.9024 54.4179 53.3913 50.8186 43.7785C47.7125 35.5831 45.3264 29.0911 43.6606 24.3026C43.5406 23.9578 43.5269 23.662 43.6196 23.415C43.6989 23.1298 43.8523 22.9476 44.0798 22.8684C44.3528 22.7735 44.6516 22.8627 44.9763 23.1363C45.2877 23.3715 45.5234 23.719 45.6833 24.1787C46.4829 26.4772 47.7506 29.9011 49.4864 34.4506C51.3726 39.506 52.6289 42.934 53.2553 44.7345L53.5293 45.4121L53.7692 46.1017L53.9091 46.5039L54.0091 46.7912C55.2368 50.1003 57.0034 55.0685 59.309 61.6958L59.8288 63.1898L62.4565 62.2756C63.1342 62.684 63.573 63.1755 63.7729 63.7501C63.9195 64.1715 63.9618 64.5863 63.8997 64.9944C63.847 65.3562 63.707 65.5767 63.4795 65.6559C63.4112 65.6796 63.2728 65.6849 63.0641 65.6716L62.9076 65.6616C62.7844 65.7474 62.5749 65.8417 62.2792 65.9446L61.699 66.1465C61.5265 66.1636 61.3378 66.2077 61.133 66.279C61.0654 66.8178 60.8269 67.1585 60.4174 67.3009Z" fill="white"/>
<path d="M69.8756 63.3038C69.6107 63.4203 69.2846 63.3421 68.8972 63.0693C68.5466 62.8247 68.2651 62.4611 68.053 61.9784C67.9061 61.6442 67.7673 61.2178 67.6366 60.6993C67.4692 60.1526 67.3284 59.7493 67.2142 59.4894C65.7615 56.1847 62.8686 49.88 58.5355 40.5754C54.8062 32.6447 51.9215 26.3586 49.8813 21.7172C49.7344 21.383 49.6914 21.0918 49.7525 20.8434C49.7972 20.5579 49.9214 20.3704 50.1252 20.2808C50.3697 20.1733 50.6571 20.2464 50.9874 20.4999C51.3014 20.7164 51.5563 21.0474 51.7521 21.493C52.7314 23.7208 54.2615 27.0358 56.3424 31.4378C58.6151 36.3314 60.135 39.6508 60.9021 41.396L61.2264 42.0509L61.5202 42.7193L61.6916 43.1091L61.814 43.3876C63.2951 46.5912 65.4475 51.4048 68.2712 57.8285L68.9077 59.2766L71.2613 58.242C71.934 58.6109 72.3928 59.0738 72.6376 59.6308C72.8172 60.0392 72.8989 60.4464 72.8827 60.8522C72.8707 61.212 72.7628 61.4366 72.559 61.5262C72.4979 61.5531 72.3695 61.5652 72.1738 61.5626L72.0271 61.5606C71.9211 61.6515 71.7357 61.7552 71.4708 61.8716L70.9512 62.1C70.7922 62.1256 70.6211 62.1787 70.4377 62.2593C70.4298 62.7944 70.2424 63.1426 69.8756 63.3038Z" fill="white"/>
<path d="M51.6139 70.2688C51.1367 70.4358 50.7003 70.518 50.3047 70.5155C49.8338 70.5393 49.4972 70.2623 49.2951 69.6846L41.6365 47.7946C41.4871 47.3677 41.1877 46.7535 40.7382 45.9522C40.2899 45.2351 39.9779 44.6254 39.8022 44.123L39.7626 44.01C39.9436 43.1573 40.0993 42.5953 40.23 42.3241C40.5816 42.2011 41.0287 41.9883 41.5713 41.6857C42.0636 41.4007 42.5107 41.1878 42.9126 41.0472C43.3145 40.9066 43.7477 40.896 44.2124 41.0154C44.6682 41.1096 44.9533 41.32 45.0675 41.6465C45.3311 42.4 44.8853 42.9789 43.7298 43.3832L43.2024 43.5677C43.0429 43.5953 42.8627 43.6443 42.6617 43.7146C42.4357 43.7937 42.3019 43.8546 42.2605 43.8973C42.5593 44.7513 42.9698 45.7635 43.4921 46.934L43.9365 47.9626L44.7369 50.0084C44.9038 50.4856 45.121 51.2272 45.3884 52.2332L46.0512 54.3694L46.5391 54.0718C46.9888 53.7454 47.3768 53.525 47.7034 53.4108C47.9797 53.3141 48.2704 53.3393 48.5755 53.4862C48.8719 53.6081 49.0684 53.8072 49.1651 54.0835C49.2705 54.3849 49.2667 54.6963 49.1537 55.0178C49.0569 55.3054 48.8704 55.4975 48.5941 55.5941L48.1288 55.7147L47.639 55.886C47.2623 56.0178 47.0293 56.198 46.9401 56.4266L51.0133 68.0686L53.0836 67.2174C54.5153 66.7165 55.3454 66.7925 55.5739 67.4456L55.6266 67.5963C55.5814 67.9504 55.393 68.2983 55.0614 68.6398C54.721 68.9562 54.3712 69.2055 54.012 69.3875L52.7819 69.8602L51.6139 70.2688Z" fill="white"/>
<path d="M45.7206 76.7721C45.2592 76.9326 44.8425 76.8786 44.4705 76.6101C44.1464 76.3647 43.8979 75.9936 43.725 75.4966C41.1441 68.0779 38.8225 61.8622 36.7603 56.8495C35.859 57.0039 35.2309 57.1428 34.8759 57.2663C33.4206 57.7726 32.4166 58.2612 31.8641 58.7319C32.5557 60.7197 33.7589 63.6636 35.4738 67.5635C37.2396 71.7243 38.4313 74.6921 39.0487 76.4669C39.1722 76.8219 39.183 77.1961 39.0812 77.5897C38.967 77.9477 38.7502 78.1823 38.4307 78.2935C37.9693 78.454 37.2593 77.7858 36.3008 76.2888C34.8931 74.0726 32.6719 69.1749 29.6373 61.5957C27.5735 56.4642 25.4981 50.899 23.4112 44.9002C22.9929 43.8121 22.4318 42.2565 21.7279 40.2332C21.5056 39.5942 21.6962 39.1698 22.2996 38.9599C22.6546 38.8364 23.0404 38.8016 23.4571 38.8556C23.9093 38.8973 24.2612 38.9937 24.5128 39.1449C24.766 40.3302 25.1581 41.686 25.6891 43.2124C26.2077 44.7032 26.9085 46.4888 27.7914 48.5692C28.75 50.9814 29.4454 52.8087 29.8776 54.0511L30.211 55.0095C30.2743 55.3058 30.3739 55.6492 30.5097 56.0396C30.6332 56.3946 30.8292 56.8437 31.0978 57.3869C31.3108 57.3128 31.6596 57.1716 32.1442 56.9632C32.6288 56.7548 33.1072 56.5287 33.5794 56.2848C34.7138 55.7708 35.5649 55.415 36.1328 55.2175C35.0585 52.1293 34.0289 49.2842 33.0441 46.6822L29.8442 37.8274L29.3441 36.3898C29.8055 36.2292 30.2446 36.176 30.6613 36.23C31.0657 36.2485 31.3998 36.3511 31.6637 36.5378C32.1191 36.8171 32.5489 37.4236 32.9533 38.3573L33.3794 39.582C34.4414 42.6346 36.6502 48.412 40.006 56.9141C43.0422 64.6122 45.2395 70.4135 46.5979 74.3181C46.7708 74.8151 46.7654 75.3143 46.5818 75.8159C46.4336 76.3052 46.1466 76.6239 45.7206 76.7721Z" fill="white"/>
</svg>
