<svg width="139" height="128" viewBox="0 0 139 128" fill="none" xmlns="http://www.w3.org/2000/svg">
<path d="M39.3143 94.6271C36.2845 103.384 43.663 108.049 47.731 109.288C38.6525 107.244 17.832 99.423 7.17823 84.4874C-6.13902 65.8178 1.81529 41.7586 10.1771 29.1611C18.5389 16.5635 65.6791 -2.053 82.0729 -0.0940565C98.4668 1.86489 110.666 20.8512 111.368 39.616C112.07 58.3809 93.2601 71.4538 72.1334 79.3593C51.0067 87.2648 43.1015 83.6812 39.3143 94.6271Z" fill="#CC62A5"/>
<path d="M38.9504 95.2021C35.9206 103.959 43.1909 108.436 47.2588 109.674C38.1803 107.631 19.5687 104.744 8.91489 89.8079C-4.40236 71.1383 0.398849 47.4575 9.6577 35.5038C22.919 18.3826 64.7653 -0.208366 83.6483 6.38863C99.235 11.834 112.242 27.3339 112.944 46.0987C113.645 64.8636 97.1656 76.191 76.0389 84.0965C54.9122 92.002 42.7376 84.2562 38.9504 95.2021Z" stroke="black"/>
<path d="M87.4494 45.0672C87.1557 45.1896 86.7237 44.9387 86.1535 44.3145C85.5711 43.661 84.9679 42.5852 84.3439 41.0873C84.1237 40.5586 83.7371 39.5478 83.1841 38.0548C82.7902 36.9436 82.3179 35.7271 81.7674 34.4054L78.6696 27.2169L75.5718 20.0283C75.376 19.5584 75.4018 19.0823 75.649 18.6002C75.884 18.0887 76.2365 17.7351 76.7064 17.5393C77.0002 17.417 77.2926 17.4158 77.5839 17.5357C77.8751 17.6557 78.088 17.8772 78.2226 18.2003C79.2992 20.7849 80.6144 24.356 82.1681 28.9133C83.8882 33.9529 85.1886 37.53 86.0695 39.6447C86.718 41.2014 87.1596 42.3444 87.3945 43.0738C87.6465 43.7615 87.7627 44.2474 87.7431 44.5313C87.7529 44.803 87.655 44.9816 87.4494 45.0672ZM89.7945 52.9312C89.442 53.0781 89.037 53.0572 88.5793 52.8687C88.151 52.668 87.839 52.3326 87.6433 51.8627C87.423 51.334 87.4096 50.8054 87.603 50.2767C87.7842 49.7187 88.1244 49.3357 88.6238 49.1277C89.1524 48.9075 89.6639 48.9357 90.1583 49.2123C90.6698 49.4473 91.054 49.8732 91.311 50.49C91.7392 51.518 91.2337 52.3318 89.7945 52.9312Z" fill="white"/>
<path d="M79.2772 57.5759C78.6697 57.7971 78.0584 57.833 77.4433 57.6836C76.8282 57.5341 76.2372 57.241 75.6704 56.8042C74.6576 56.0526 73.68 54.8732 72.7378 53.2659C72.0791 52.1571 71.41 50.8446 70.7303 49.3284L70.1661 47.8843L69.6256 46.4005C69.4297 45.9324 69.2082 45.3594 68.9614 44.6816C68.561 43.5824 68.2636 42.591 68.0692 41.7073C67.8389 40.7952 67.747 39.8431 67.7934 38.851C67.8798 37.9688 68.2038 37.249 68.7654 36.6917C69.117 36.3977 69.4953 36.1769 69.9003 36.0294C71.0928 35.595 72.1779 35.6355 73.1556 36.1509C74.2342 36.7333 75.0908 37.5107 75.7253 38.483C76.5524 39.6343 77.2019 40.7879 77.6739 41.944C78.2377 43.2119 78.7297 44.4229 79.1501 45.577L79.7206 47.1433C79.834 47.4547 79.9913 48.0614 80.1924 48.9634C80.3492 49.674 80.5144 50.2675 80.6879 50.7438L80.7279 50.8537C80.7798 51.4158 80.9325 52.0449 81.186 52.7411C81.3728 53.254 81.4313 53.8344 81.3615 54.4824C81.2917 55.1303 81.0793 55.7367 80.7245 56.3017C80.3896 56.9217 79.9072 57.3464 79.2772 57.5759ZM78.7942 56.0399C79.2442 55.876 79.5033 55.3978 79.5714 54.6053C79.6212 53.9024 79.5455 53.1 79.3444 52.198C79.1592 51.2695 78.9113 50.2392 78.601 49.1073C78.4725 48.6146 78.2715 47.9927 77.9979 47.2416L77.0434 44.7258C76.6381 43.753 76.0527 42.5656 75.2872 41.1637C74.6468 39.9652 73.9023 38.9706 73.0537 38.18C72.6619 37.804 72.2505 37.5492 71.8196 37.4156C71.3887 37.2821 70.982 37.285 70.5995 37.4243C70.037 37.6292 69.7509 38.138 69.7411 38.9508C69.6772 39.8248 69.7524 40.7311 69.9669 41.6698C70.1855 42.6899 70.4437 43.6437 70.7415 44.5312L71.038 45.4503C71.1089 45.715 71.2245 46.0671 71.3846 46.5068L71.4246 46.6167C71.8717 47.8441 72.5797 49.2981 73.5485 50.9787C74.796 53.284 75.9553 54.8226 77.0264 55.5945C77.7099 56.0717 78.2992 56.2202 78.7942 56.0399Z" fill="white"/>
<path d="M60.2465 67.3009C59.9507 67.4038 59.6111 67.3073 59.2275 67.0112C58.8801 66.7456 58.6197 66.3638 58.4465 65.8658C58.3265 65.521 58.2254 65.0838 58.1432 64.5541C58.0249 63.9941 57.9191 63.58 57.8258 63.3118C56.6397 59.9024 54.247 53.3913 50.6477 43.7785C47.5416 35.5831 45.1555 29.0911 43.4897 24.3026C43.3697 23.9578 43.356 23.662 43.4487 23.415C43.528 23.1298 43.6814 22.9476 43.9089 22.8684C44.1819 22.7735 44.4807 22.8627 44.8054 23.1363C45.1168 23.3715 45.3525 23.719 45.5124 24.1787C46.312 26.4772 47.5797 29.9011 49.3155 34.4506C51.2017 39.506 52.458 42.934 53.0844 44.7345L53.3584 45.4121L53.5983 46.1017L53.7382 46.5039L53.8382 46.7912C55.0659 50.1003 56.8325 55.0685 59.1381 61.6958L59.6579 63.1898L62.2856 62.2756C62.9633 62.684 63.4021 63.1755 63.602 63.7501C63.7486 64.1715 63.7909 64.5863 63.7288 64.9944C63.6761 65.3562 63.5361 65.5767 63.3086 65.6559C63.2403 65.6796 63.1019 65.6849 62.8932 65.6716L62.7367 65.6616C62.6135 65.7474 62.4041 65.8417 62.1083 65.9446L61.5281 66.1465C61.3556 66.1636 61.1669 66.2077 60.9621 66.279C60.8945 66.8178 60.656 67.1585 60.2465 67.3009Z" fill="white"/>
<path d="M69.7047 63.3038C69.4398 63.4203 69.1137 63.3421 68.7263 63.0693C68.3757 62.8247 68.0943 62.4611 67.8821 61.9784C67.7352 61.6442 67.5964 61.2178 67.4657 60.6993C67.2983 60.1526 67.1575 59.7493 67.0433 59.4894C65.5906 56.1847 62.6977 49.88 58.3646 40.5754C54.6353 32.6447 51.7506 26.3586 49.7104 21.7172C49.5635 21.383 49.5205 21.0918 49.5816 20.8434C49.6263 20.5579 49.7505 20.3704 49.9543 20.2808C50.1988 20.1733 50.4862 20.2464 50.8165 20.4999C51.1305 20.7164 51.3854 21.0474 51.5812 21.493C52.5605 23.7208 54.0906 27.0358 56.1715 31.4378C58.4442 36.3314 59.9641 39.6508 60.7312 41.396L61.0555 42.0509L61.3493 42.7193L61.5207 43.1091L61.6431 43.3876C63.1242 46.5912 65.2766 51.4048 68.1003 57.8285L68.7368 59.2766L71.0904 58.242C71.7631 58.6109 72.2219 59.0738 72.4667 59.6308C72.6463 60.0392 72.728 60.4464 72.7118 60.8522C72.6998 61.212 72.5919 61.4366 72.3881 61.5262C72.327 61.5531 72.1986 61.5652 72.0029 61.5626L71.8562 61.5606C71.7502 61.6515 71.5648 61.7552 71.2999 61.8716L70.7803 62.1C70.6213 62.1256 70.4502 62.1787 70.2668 62.2593C70.2589 62.7944 70.0715 63.1426 69.7047 63.3038Z" fill="white"/>
<path d="M51.443 70.2688C50.9658 70.4358 50.5294 70.518 50.1338 70.5155C49.6629 70.5393 49.3263 70.2623 49.1242 69.6846L41.4656 47.7946C41.3162 47.3677 41.0168 46.7535 40.5673 45.9522C40.119 45.2351 39.807 44.6254 39.6313 44.123L39.5917 44.01C39.7727 43.1573 39.9284 42.5953 40.0591 42.3241C40.4107 42.2011 40.8578 41.9883 41.4004 41.6857C41.8927 41.4007 42.3398 41.1878 42.7417 41.0472C43.1436 40.9066 43.5768 40.896 44.0415 41.0154C44.4973 41.1096 44.7824 41.32 44.8966 41.6465C45.1602 42.4 44.7144 42.9789 43.559 43.3832L43.0315 43.5677C42.872 43.5953 42.6918 43.6443 42.4908 43.7146C42.2648 43.7937 42.131 43.8546 42.0896 43.8973C42.3884 44.7513 42.7989 45.7635 43.3212 46.934L43.7656 47.9626L44.566 50.0084C44.7329 50.4856 44.9501 51.2272 45.2175 52.2332L45.8803 54.3694L46.3682 54.0718C46.8179 53.7454 47.2059 53.525 47.5325 53.4108C47.8088 53.3141 48.0995 53.3393 48.4046 53.4862C48.701 53.6081 48.8975 53.8072 48.9942 54.0835C49.0996 54.3849 49.0958 54.6963 48.9828 55.0178C48.886 55.3054 48.6995 55.4975 48.4232 55.5941L47.9579 55.7147L47.4681 55.886C47.0914 56.0178 46.8584 56.198 46.7692 56.4266L50.8424 68.0686L52.9127 67.2174C54.3444 66.7165 55.1745 66.7925 55.403 67.4456L55.4557 67.5963C55.4105 67.9504 55.2221 68.2983 54.8905 68.6398C54.5501 68.9562 54.2003 69.2055 53.8411 69.3875L52.611 69.8602L51.443 70.2688Z" fill="white"/>
<path d="M45.5497 76.7721C45.0883 76.9326 44.6716 76.8786 44.2996 76.6101C43.9755 76.3647 43.727 75.9936 43.5541 75.4966C40.9732 68.0779 38.6516 61.8622 36.5894 56.8495C35.6881 57.0039 35.06 57.1428 34.705 57.2663C33.2497 57.7726 32.2457 58.2612 31.6932 58.7319C32.3848 60.7197 33.588 63.6636 35.3029 67.5635C37.0687 71.7243 38.2604 74.6921 38.8778 76.4669C39.0013 76.8219 39.0121 77.1961 38.9103 77.5897C38.7961 77.9477 38.5793 78.1823 38.2598 78.2935C37.7984 78.454 37.0884 77.7858 36.1299 76.2888C34.7222 74.0726 32.501 69.1749 29.4664 61.5957C27.4026 56.4642 25.3272 50.899 23.2403 44.9002C22.822 43.8121 22.2609 42.2565 21.557 40.2332C21.3347 39.5942 21.5253 39.1698 22.1287 38.9599C22.4837 38.8364 22.8695 38.8016 23.2862 38.8556C23.7384 38.8973 24.0903 38.9937 24.3419 39.1449C24.5951 40.3302 24.9872 41.686 25.5182 43.2124C26.0368 44.7032 26.7376 46.4888 27.6205 48.5692C28.5791 50.9814 29.2745 52.8087 29.7067 54.0511L30.0401 55.0095C30.1034 55.3058 30.203 55.6492 30.3388 56.0396C30.4623 56.3946 30.6583 56.8437 30.9269 57.3869C31.1399 57.3128 31.4887 57.1716 31.9733 56.9632C32.4579 56.7548 32.9363 56.5287 33.4085 56.2848C34.5429 55.7708 35.394 55.415 35.9619 55.2175C34.8876 52.1293 33.858 49.2842 32.8732 46.6822L29.6733 37.8274L29.1732 36.3898C29.6346 36.2292 30.0737 36.176 30.4904 36.23C30.8948 36.2485 31.2289 36.3511 31.4929 36.5378C31.9482 36.8171 32.378 37.4236 32.7824 38.3573L33.2085 39.582C34.2705 42.6346 36.4793 48.412 39.8351 56.9141C42.8713 64.6122 45.0686 70.4135 46.427 74.3181C46.5999 74.8151 46.5945 75.3143 46.4109 75.8159C46.2627 76.3052 45.9757 76.6239 45.5497 76.7721Z" fill="white"/>
</svg>
