<svg width="140" height="128" viewBox="0 0 140 128" fill="none" xmlns="http://www.w3.org/2000/svg">
<path d="M39.9715 94.6271C36.9417 103.384 44.3202 108.049 48.3882 109.288C39.3097 107.244 18.4892 99.423 7.83545 84.4874C-5.4818 65.8178 2.47251 41.7586 10.8343 29.1611C19.1961 16.5635 66.3363 -2.053 82.7301 -0.0940565C99.124 1.86489 111.324 20.8512 112.025 39.616C112.727 58.3809 93.9173 71.4538 72.7906 79.3593C51.6639 87.2648 43.7588 83.6812 39.9715 94.6271Z" fill="#4FCB64"/>
<path d="M39.6076 95.2021C36.5778 103.959 43.8481 108.436 47.9161 109.674C38.8376 107.631 20.2259 104.744 9.57211 89.8079C-3.74514 71.1383 1.05608 47.4575 10.3149 35.5038C23.5762 18.3826 65.4225 -0.208366 84.3055 6.38863C99.8922 11.834 112.899 27.3339 113.601 46.0987C114.303 64.8636 97.8228 76.191 76.6961 84.0965C55.5694 92.002 43.3948 84.2562 39.6076 95.2021Z" stroke="black"/>
<path d="M88.1066 45.0672C87.8129 45.1896 87.3809 44.9387 86.8107 44.3145C86.2283 43.661 85.6251 42.5852 85.0011 41.0873C84.7809 40.5586 84.3943 39.5478 83.8413 38.0548C83.4474 36.9436 82.9752 35.7271 82.4246 34.4054L79.3268 27.2169L76.229 20.0283C76.0333 19.5584 76.059 19.0823 76.3063 18.6002C76.5413 18.0887 76.8937 17.7351 77.3637 17.5393C77.6574 17.417 77.9499 17.4158 78.2411 17.5357C78.5323 17.6557 78.7453 17.8772 78.8798 18.2003C79.9565 20.7849 81.2716 24.356 82.8253 28.9133C84.5454 33.9529 85.8459 37.53 86.7268 39.6447C87.3752 41.2014 87.8168 42.3444 88.0517 43.0738C88.3037 43.7615 88.42 44.2474 88.4003 44.5313C88.4101 44.803 88.3122 44.9816 88.1066 45.0672ZM90.4517 52.9312C90.0993 53.0781 89.6942 53.0572 89.2365 52.8687C88.8083 52.668 88.4962 52.3326 88.3005 51.8627C88.0803 51.334 88.0669 50.8054 88.2603 50.2767C88.4414 49.7187 88.7817 49.3357 89.281 49.1277C89.8097 48.9075 90.3212 48.9357 90.8155 49.2123C91.327 49.4473 91.7113 49.8732 91.9682 50.49C92.3964 51.518 91.8909 52.3318 90.4517 52.9312Z" fill="white"/>
<path d="M79.9344 57.5759C79.3269 57.7971 78.7156 57.833 78.1005 57.6836C77.4854 57.5341 76.8944 57.241 76.3276 56.8042C75.3148 56.0526 74.3373 54.8732 73.3951 53.2659C72.7364 52.1571 72.0672 50.8446 71.3875 49.3284L70.8233 47.8843L70.2829 46.4005C70.0869 45.9324 69.8655 45.3594 69.6186 44.6816C69.2182 43.5824 68.9209 42.591 68.7264 41.7073C68.4961 40.7952 68.4042 39.8431 68.4506 38.851C68.537 37.9688 68.861 37.249 69.4226 36.6917C69.7742 36.3977 70.1525 36.1769 70.5575 36.0294C71.75 35.595 72.8351 35.6355 73.8129 36.1509C74.8915 36.7333 75.748 37.5107 76.3825 38.483C77.2096 39.6343 77.8591 40.7879 78.3312 41.944C78.8949 43.2119 79.3869 44.4229 79.8073 45.577L80.3778 47.1433C80.4912 47.4547 80.6485 48.0614 80.8496 48.9634C81.0065 49.674 81.1717 50.2675 81.3451 50.7438L81.3852 50.8537C81.437 51.4158 81.5897 52.0449 81.8432 52.7411C82.0301 53.254 82.0886 53.8344 82.0187 54.4824C81.9489 55.1303 81.7366 55.7367 81.3817 56.3017C81.0468 56.9217 80.5644 57.3464 79.9344 57.5759ZM79.4514 56.0399C79.9014 55.876 80.1605 55.3978 80.2286 54.6053C80.2784 53.9024 80.2028 53.1 80.0017 52.198C79.8164 51.2695 79.5686 50.2392 79.2582 49.1073C79.1297 48.6146 78.9287 47.9927 78.6552 47.2416L77.7006 44.7258C77.2953 43.753 76.7099 42.5656 75.9445 41.1637C75.3041 39.9652 74.5596 38.9706 73.7109 38.18C73.3191 37.804 72.9078 37.5492 72.4768 37.4156C72.0459 37.2821 71.6392 37.285 71.2567 37.4243C70.6942 37.6292 70.4081 38.138 70.3983 38.9508C70.3344 39.8248 70.4096 40.7311 70.6241 41.6698C70.8427 42.6899 71.1009 43.6437 71.3987 44.5312L71.6952 45.4503C71.7662 45.715 71.8817 46.0671 72.0418 46.5068L72.0819 46.6167C72.5289 47.8441 73.2369 49.2981 74.2058 50.9787C75.4532 53.284 76.6125 54.8226 77.6836 55.5945C78.3672 56.0717 78.9564 56.2202 79.4514 56.0399Z" fill="white"/>
<path d="M60.9037 67.3009C60.6079 67.4038 60.2683 67.3073 59.8848 67.0112C59.5373 66.7456 59.277 66.3638 59.1037 65.8658C58.9838 65.521 58.8827 65.0838 58.8004 64.5541C58.6821 63.9941 58.5763 63.58 58.483 63.3118C57.2969 59.9024 54.9042 53.3913 51.3049 43.7785C48.1988 35.5831 45.8128 29.0911 44.1469 24.3026C44.0269 23.9578 44.0133 23.662 44.1059 23.415C44.1852 23.1298 44.3386 22.9476 44.5661 22.8684C44.8391 22.7735 45.138 22.8627 45.4627 23.1363C45.774 23.3715 46.0097 23.719 46.1696 24.1787C46.9692 26.4772 48.2369 29.9011 49.9727 34.4506C51.8589 39.506 53.1153 42.934 53.7416 44.7345L54.0156 45.4121L54.2555 46.1017L54.3955 46.5039L54.4954 46.7912C55.7231 50.1003 57.4898 55.0685 59.7954 61.6958L60.3151 63.1898L62.9428 62.2756C63.6205 62.684 64.0593 63.1755 64.2592 63.7501C64.4058 64.1715 64.4481 64.5863 64.386 64.9944C64.3334 65.3562 64.1933 65.5767 63.9658 65.6559C63.8975 65.6796 63.7591 65.6849 63.5504 65.6716L63.3939 65.6616C63.2707 65.7474 63.0613 65.8417 62.7655 65.9446L62.1854 66.1465C62.0128 66.1636 61.8241 66.2077 61.6194 66.279C61.5518 66.8178 61.3132 67.1585 60.9037 67.3009Z" fill="white"/>
<path d="M70.362 63.3038C70.0971 63.4203 69.7709 63.3421 69.3836 63.0693C69.0329 62.8247 68.7515 62.4611 68.5393 61.9784C68.3924 61.6442 68.2536 61.2178 68.1229 60.6993C67.9556 60.1526 67.8148 59.7493 67.7005 59.4894C66.2479 56.1847 63.355 49.88 59.0218 40.5754C55.2925 32.6447 52.4078 26.3586 50.3676 21.7172C50.2207 21.383 50.1778 21.0918 50.2388 20.8434C50.2835 20.5579 50.4077 20.3704 50.6115 20.2808C50.856 20.1733 51.1434 20.2464 51.4737 20.4999C51.7877 20.7164 52.0426 21.0474 52.2385 21.493C53.2178 23.7208 54.7478 27.0358 56.8287 31.4378C59.1014 36.3314 60.6213 39.6508 61.3884 41.396L61.7128 42.0509L62.0066 42.7193L62.1779 43.1091L62.3003 43.3876C63.7815 46.5912 65.9339 51.4048 68.7575 57.8285L69.3941 59.2766L71.7476 58.242C72.4203 58.6109 72.8791 59.0738 73.1239 59.6308C73.3035 60.0392 73.3852 60.4464 73.3691 60.8522C73.357 61.212 73.2491 61.4366 73.0453 61.5262C72.9842 61.5531 72.8558 61.5652 72.6601 61.5626L72.5134 61.5606C72.4075 61.6515 72.222 61.7552 71.9571 61.8716L71.4375 62.1C71.2786 62.1256 71.1074 62.1787 70.924 62.2593C70.9161 62.7944 70.7287 63.1426 70.362 63.3038Z" fill="white"/>
<path d="M52.1003 70.2688C51.623 70.4358 51.1866 70.518 50.791 70.5155C50.3201 70.5393 49.9836 70.2623 49.7814 69.6846L42.1228 47.7946C41.9734 47.3677 41.674 46.7535 41.2245 45.9522C40.7762 45.2351 40.4642 44.6254 40.2885 44.123L40.2489 44.01C40.4299 43.1573 40.5857 42.5953 40.7163 42.3241C41.068 42.2011 41.5151 41.9883 42.0576 41.6857C42.5499 41.4007 42.997 41.1878 43.3989 41.0472C43.8008 40.9066 44.234 40.896 44.6987 41.0154C45.1545 41.1096 45.4396 41.32 45.5538 41.6465C45.8175 42.4 45.3716 42.9789 44.2162 43.3832L43.6887 43.5677C43.5292 43.5953 43.349 43.6443 43.1481 43.7146C42.922 43.7937 42.7882 43.8546 42.7468 43.8973C43.0456 44.7513 43.4561 45.7635 43.9784 46.934L44.4229 47.9626L45.2232 50.0084C45.3902 50.4856 45.6073 51.2272 45.8747 52.2332L46.5375 54.3694L47.0255 54.0718C47.4751 53.7454 47.8632 53.525 48.1897 53.4108C48.466 53.3141 48.7567 53.3393 49.0619 53.4862C49.3582 53.6081 49.5547 53.8072 49.6514 54.0835C49.7569 54.3849 49.7531 54.6963 49.64 55.0178C49.5433 55.3054 49.3568 55.4975 49.0805 55.5941L48.6152 55.7147L48.1254 55.886C47.7486 56.0178 47.5156 56.198 47.4264 56.4266L51.4996 68.0686L53.5699 67.2174C55.0016 66.7165 55.8317 66.7925 56.0602 67.4456L56.1129 67.5963C56.0677 67.9504 55.8793 68.2983 55.5477 68.6398C55.2073 68.9562 54.8576 69.2055 54.4984 69.3875L53.2682 69.8602L52.1003 70.2688Z" fill="white"/>
<path d="M46.207 76.7721C45.7455 76.9326 45.3288 76.8786 44.9568 76.6101C44.6327 76.3647 44.3842 75.9936 44.2113 75.4966C41.6304 68.0779 39.3088 61.8622 37.2466 56.8495C36.3453 57.0039 35.7172 57.1428 35.3622 57.2663C33.9069 57.7726 32.903 58.2612 32.3505 58.7319C33.042 60.7197 34.2452 63.6636 35.9601 67.5635C37.726 71.7243 38.9176 74.6921 39.535 76.4669C39.6585 76.8219 39.6693 77.1961 39.5675 77.5897C39.4533 77.9477 39.2365 78.1823 38.917 78.2935C38.4556 78.454 37.7456 77.7858 36.7871 76.2888C35.3794 74.0726 33.1583 69.1749 30.1236 61.5957C28.0598 56.4642 25.9845 50.899 23.8975 44.9002C23.4792 43.8121 22.9181 42.2565 22.2142 40.2332C21.9919 39.5942 22.1825 39.1698 22.786 38.9599C23.1409 38.8364 23.5267 38.8016 23.9435 38.8556C24.3957 38.8973 24.7476 38.9937 24.9991 39.1449C25.2523 40.3302 25.6444 41.686 26.1754 43.2124C26.694 44.7032 27.3948 46.4888 28.2778 48.5692C29.2363 50.9814 29.9317 52.8087 30.3639 54.0511L30.6973 55.0095C30.7606 55.3058 30.8602 55.6492 30.996 56.0396C31.1195 56.3946 31.3156 56.8437 31.5841 57.3869C31.7971 57.3128 32.1459 57.1716 32.6305 56.9632C33.1151 56.7548 33.5935 56.5287 34.0658 56.2848C35.2001 55.7708 36.0512 55.415 36.6192 55.2175C35.5448 52.1293 34.5152 49.2842 33.5304 46.6822L30.3305 37.8274L29.8304 36.3898C30.2919 36.2292 30.7309 36.176 31.1477 36.23C31.552 36.2485 31.8862 36.3511 32.1501 36.5378C32.6054 36.8171 33.0352 37.4236 33.4397 38.3573L33.8657 39.582C34.9277 42.6346 37.1366 48.412 40.4923 56.9141C43.5285 64.6122 45.7258 70.4135 47.0842 74.3181C47.2571 74.8151 47.2517 75.3143 47.0681 75.8159C46.92 76.3052 46.6329 76.6239 46.207 76.7721Z" fill="white"/>
</svg>
