<svg width="305" height="71" viewBox="0 0 305 71" fill="none" xmlns="http://www.w3.org/2000/svg">
<rect x="86.9062" y="2.49748" width="43.4441" height="68.1386" fill="#FE941B"/>
<rect x="133.827" y="0.636047" width="49.5726" height="66.1015" fill="#4FCB64"/>
<rect x="242.991" y="0.636047" width="61.0486" height="66.1015" fill="#CC62A5"/>
<rect x="187.22" y="4.5345" width="53.7092" height="66.1015" fill="#15C9FE"/>
<path d="M28.2332 59.3166L15.9081 38.4168H7.74091V59.3166H0.984375V8.20371H17.6901C21.6005 8.20371 24.8921 8.86371 27.565 10.1837C30.2874 11.5037 32.3169 13.2881 33.6533 15.537C34.9898 17.7858 35.658 20.3525 35.658 23.2369C35.658 26.7569 34.6185 29.8613 32.5396 32.5502C30.5102 35.239 27.4413 37.0235 23.3329 37.9034L36.3262 59.3166H28.2332ZM7.74091 33.0635H17.6901C21.353 33.0635 24.1001 32.1835 25.9316 30.4235C27.763 28.6146 28.6787 26.2191 28.6787 23.2369C28.6787 20.2058 27.763 17.8592 25.9316 16.197C24.1496 14.5348 21.4025 13.7037 17.6901 13.7037H7.74091V33.0635Z" fill="black"/>
<path d="M62.5652 59.8299C59.1498 59.8299 56.0809 59.2433 53.3585 58.0699C50.6856 56.8477 48.5819 55.1855 47.0475 53.0833C45.513 50.9322 44.721 48.4634 44.6715 45.6767H51.8736C52.121 48.0723 53.111 50.1011 54.8435 51.7633C56.6254 53.3766 59.1993 54.1833 62.5652 54.1833C65.7826 54.1833 68.307 53.4011 70.1385 51.8367C72.0194 50.2233 72.9599 48.17 72.9599 45.6767C72.9599 43.7212 72.4154 42.1323 71.3264 40.9101C70.2375 39.6879 68.8763 38.759 67.2428 38.1234C65.6094 37.4879 63.4067 36.8035 60.6348 36.0701C57.2194 35.1901 54.4722 34.3101 52.3933 33.4302C50.3639 32.5502 48.6067 31.1813 47.1217 29.3235C45.6863 27.4169 44.9685 24.8747 44.9685 21.6969C44.9685 18.9103 45.6863 16.4414 47.1217 14.2903C48.5572 12.1392 50.5618 10.477 53.1358 9.3037C55.7592 8.13038 58.7538 7.54372 62.1197 7.54372C66.9706 7.54372 70.9304 8.74148 73.9993 11.137C77.1177 13.5326 78.8749 16.7103 79.2709 20.6703H71.8462C71.5987 18.7147 70.5592 17.0036 68.7278 15.537C66.8963 14.0214 64.4709 13.2637 61.4515 13.2637C58.6301 13.2637 56.3284 13.997 54.5465 15.4636C52.7645 16.8814 51.8736 18.8858 51.8736 21.4769C51.8736 23.3347 52.3933 24.8502 53.4328 26.0236C54.5217 27.1969 55.8334 28.1013 57.3679 28.7369C58.9518 29.3235 61.1545 30.008 63.9759 30.7902C67.3913 31.7191 70.1385 32.6479 72.2174 33.5768C74.2963 34.4568 76.0783 35.8501 77.5632 37.7568C79.0482 39.6145 79.7907 42.1567 79.7907 45.3834C79.7907 47.8767 79.1224 50.2233 77.786 52.4233C76.4495 54.6233 74.4696 56.4077 71.8462 57.7766C69.2227 59.1455 66.1291 59.8299 62.5652 59.8299Z" fill="black"/>
<path d="M233.998 59.8299H227.242L200.067 19.1303V59.8299H193.311V8.64372H200.067L227.242 49.27V8.64372H233.998V59.8299Z" fill="white"/>
<path d="M288.843 23.0902C287.408 20.108 285.329 17.8103 282.607 16.197C279.884 14.5348 276.716 13.7036 273.103 13.7036C269.49 13.7036 266.223 14.5348 263.302 16.197C260.431 17.8103 258.154 20.1569 256.471 23.2369C254.838 26.268 254.021 29.788 254.021 33.7968C254.021 37.8057 254.838 41.3256 256.471 44.3567C258.154 47.3878 260.431 49.7344 263.302 51.3967C266.223 53.01 269.49 53.8166 273.103 53.8166C278.152 53.8166 282.31 52.3255 285.576 49.3433C288.843 46.3611 290.749 42.3278 291.294 37.2434H270.653V31.8168H298.496V36.9501C298.1 41.1545 296.763 45.0167 294.486 48.5367C292.209 52.0078 289.215 54.77 285.502 56.8233C281.79 58.8277 277.657 59.8299 273.103 59.8299C268.302 59.8299 263.921 58.7299 259.961 56.5299C256.001 54.2811 252.858 51.1767 250.532 47.2167C248.255 43.2567 247.116 38.7834 247.116 33.7968C247.116 28.8102 248.255 24.3369 250.532 20.3769C252.858 16.3681 256.001 13.2637 259.961 11.0637C263.921 8.8148 268.302 7.69037 273.103 7.69037C278.597 7.69037 283.448 9.0348 287.655 11.7237C291.912 14.4125 295.006 18.2014 296.936 23.0902H288.843Z" fill="white"/>
<path d="M169.746 48.4634H147.175L143.017 59.8299H135.889L154.6 9.01038H162.396L181.032 59.8299H173.904L169.746 48.4634ZM167.816 43.0367L158.46 17.2236L149.105 43.0367H167.816Z" fill="white"/>
<path d="M103.552 54.4033H121.669V59.8299H96.7959V8.71706H103.552V54.4033Z" fill="white"/>
</svg>
