<svg width="48" height="45" viewBox="0 0 48 45" fill="none" xmlns="http://www.w3.org/2000/svg">
<path d="M27.767 34.7829C27.1329 34.6908 26.5908 35.1817 26.5908 35.7954V42.9545H2.04542V2.04542H26.5908V9.17385C26.5908 9.68518 26.959 10.1454 27.4602 10.217C28.0942 10.3091 28.6364 9.81817 28.6364 9.20453V1.02276C28.6364 0.460227 28.1761 0 27.6136 0H1.02276C0.460227 0 0 0.460227 0 1.02276V43.9772C0 44.5398 0.460227 45 1.02276 45H27.6136C28.1761 45 28.6364 44.5398 28.6364 43.9772V35.8262C28.6364 35.3147 28.2682 34.8545 27.767 34.7829Z" fill="#8F95A5"/>
<path d="M46.749 21.7841L36.5218 11.5568C36.1127 11.1682 35.4684 11.1783 35.0798 11.5772C34.7014 11.9761 34.7014 12.5999 35.0798 12.9988L43.5582 21.4772H12.3037C11.8025 21.4772 11.3525 21.825 11.2707 22.3261C11.1583 22.9704 11.6593 23.5227 12.2832 23.5227H43.5684L35.0798 32.0011C34.6707 32.3897 34.6605 33.0443 35.0594 33.4431C35.448 33.8523 36.1026 33.8624 36.5014 33.4636C36.5117 33.4533 36.5218 33.4431 36.5218 33.4431L46.7491 23.2158C47.1479 22.8375 47.1479 22.1829 46.749 21.7841Z" fill="#8F95A5"/>
</svg>
