<svg width="662" height="668" viewBox="0 0 662 668" fill="none" xmlns="http://www.w3.org/2000/svg">
<path d="M9.37646 609.671L654.716 609.618" stroke="#263238" stroke-linecap="round" stroke-linejoin="round"/>
<path d="M97.1964 563.216C97.1964 563.216 62.1767 501.717 70.2541 486.077C78.3315 470.438 98.9944 498.57 98.9944 498.57C98.9944 498.57 81.0284 441.235 90.9169 416.21C100.806 391.184 117.846 416.21 118.679 433.938C119.512 451.666 115.096 481.887 115.096 481.887C115.096 481.887 122.275 419.343 139.329 438.102C156.382 456.861 117.78 519.418 117.78 519.418C117.78 519.418 143.823 504.876 142.898 523.596C141.973 542.315 111.474 559.039 111.474 559.039" fill="white"/>
<path d="M97.5003 551.754C97.5003 551.754 65.0849 521.52 80.8696 507.97C96.6542 494.419 104.97 522.512 104.97 522.512C104.97 522.512 87.5192 435.987 115.784 432.854C144.048 429.721 123.253 507.917 123.253 507.917C123.253 507.917 147.353 474.55 145.727 501.664C144.101 528.778 108.301 551.754 108.301 551.754" stroke="#263238" stroke-miterlimit="10"/>
<path d="M113.417 546.242L91.5117 522.512" stroke="#263238" stroke-miterlimit="10"/>
<path d="M108.856 548.079L114.779 478.714" stroke="#263238" stroke-miterlimit="10"/>
<path d="M107.931 543.056L127.563 517.039" stroke="#263238" stroke-miterlimit="10"/>
<path d="M136.314 538.217H75.7402L81.795 609.671H130.26L136.314 538.217Z" fill="#263238"/>
<path d="M401.891 212.331C401.891 205.13 400.472 197.999 397.717 191.346C394.961 184.693 390.921 178.648 385.829 173.556C380.737 168.464 374.692 164.424 368.039 161.669C361.386 158.913 354.255 157.494 347.054 157.494H327.964C313.421 157.494 299.473 163.272 289.189 173.556C278.905 183.839 273.128 197.787 273.128 212.331" stroke="#263238" stroke-width="3" stroke-linecap="round" stroke-linejoin="round"/>
<path d="M401.891 252.943V212.331" stroke="#263238" stroke-width="6" stroke-linecap="round" stroke-linejoin="round"/>
<path d="M273.128 212.331V252.943" stroke="#263238" stroke-width="6" stroke-linecap="round" stroke-linejoin="round"/>
<path d="M312.51 313.874C312.51 313.874 315.934 337.789 315.247 343.936C314.56 350.083 313.198 356.231 296.118 349.396C279.037 342.561 248.301 354.869 228.484 378.771C208.667 402.672 171.109 482.614 171.109 492.172C171.109 501.73 178.618 514.646 192.261 516.761C205.904 518.876 238.029 479.877 238.029 479.877C238.029 479.877 251.685 557.069 251.685 563.163C251.685 569.258 245.564 609.618 245.564 609.618H438.894L431.372 559.753L445.041 449.762C445.041 449.762 501.742 526.954 514.036 530.404C526.331 533.855 545.46 527.668 550.246 513.324C555.031 498.98 547.509 483.949 537.938 473.016C528.367 462.083 468.269 365.762 457.296 356.892C446.323 348.021 415.627 347.32 404.694 350.057C393.761 352.793 375.319 356.892 370.533 354.155C365.747 351.419 365.761 325.468 370.533 313.847C370.573 313.874 328.903 324.807 312.51 313.874Z" fill="white" stroke="#263238" stroke-linecap="round" stroke-linejoin="round"/>
<path d="M285.806 521.877C288.01 522.727 290.255 523.464 292.535 524.085" stroke="#263238" stroke-linecap="round" stroke-linejoin="round"/>
<path d="M250.548 478.053C250.548 478.053 253.589 504.599 278.601 518.506" stroke="#263238" stroke-linecap="round" stroke-linejoin="round"/>
<path d="M328.348 400.306L341.647 419.74" stroke="#263238" stroke-linecap="round" stroke-linejoin="round"/>
<path d="M459.86 418.88L463.377 411.556" stroke="#263238" stroke-linecap="round" stroke-linejoin="round"/>
<path d="M454.162 409.507L445.041 449.815L456.251 426.429" stroke="#263238" stroke-linecap="round" stroke-linejoin="round"/>
<path d="M495.118 482.138C495.118 482.138 509.554 472.884 523.766 472.884" stroke="#263238" stroke-linecap="round" stroke-linejoin="round"/>
<path d="M465.743 509.86C474.898 504.911 483.646 499.244 491.905 492.912C503.77 483.806 518.671 479.586 533.548 481.12C547.178 482.587 554.555 499.535 554.912 516.497C555.269 533.458 546.068 543.756 529.49 546.334C512.912 548.912 493.373 545.237 481.224 542.289C474.793 540.656 468.268 539.424 461.685 538.601C461.685 538.601 445.847 514.276 465.743 509.86Z" fill="white" stroke="#263238" stroke-linecap="round" stroke-linejoin="round"/>
<path d="M554.912 516.497C554.556 499.535 547.179 482.587 533.549 481.12C518.671 479.586 503.771 483.806 491.906 492.912L490.055 494.327C505.919 494.869 537.991 501.347 532.967 545.647C547.351 542.196 555.256 532.215 554.912 516.497Z" fill="white" stroke="#263238" stroke-linecap="round" stroke-linejoin="round"/>
<path d="M312.51 313.874C312.51 313.874 315.934 337.789 315.247 343.936C314.731 348.55 313.832 353.19 306.217 352.291C317.111 370.098 348.746 411.9 378.266 354.935C374.829 355.147 372.053 354.935 370.572 354.115C365.8 351.379 365.8 325.428 370.572 313.808C370.572 313.874 328.903 324.807 312.51 313.874Z" fill="white" stroke="#263238" stroke-linecap="round" stroke-linejoin="round"/>
<path d="M312.51 313.874C312.51 313.874 313.396 320.087 314.175 326.988C322.102 331.186 330.862 333.57 339.822 333.968C349.723 334.126 359.444 331.313 367.73 325.891C368.171 321.782 369.126 317.745 370.572 313.874C370.572 313.874 328.903 324.807 312.51 313.874Z" fill="#263238" stroke="#263238" stroke-linecap="round" stroke-linejoin="round"/>
<path d="M274.965 231.196H271.197C266.568 231.196 262.816 234.948 262.816 239.577V271.649C262.816 276.278 266.568 280.03 271.197 280.03H274.965C279.594 280.03 283.347 276.278 283.347 271.649V239.577C283.347 234.948 279.594 231.196 274.965 231.196Z" fill="#263238" stroke="#263238" stroke-linecap="round" stroke-linejoin="round"/>
<path d="M275.177 231.235C274.873 231.235 274.556 231.235 274.238 231.235H271.912C271.594 231.235 271.29 231.235 270.973 231.235V279.991C271.29 279.991 271.594 279.991 271.912 279.991H274.238C274.556 279.991 274.873 279.991 275.177 279.991V231.235Z" fill="white" stroke="#263238" stroke-linecap="round" stroke-linejoin="round"/>
<path d="M404.152 231.196H400.384C395.755 231.196 392.002 234.948 392.002 239.577V271.649C392.002 276.278 395.755 280.03 400.384 280.03H404.152C408.781 280.03 412.533 276.278 412.533 271.649V239.577C412.533 234.948 408.781 231.196 404.152 231.196Z" fill="#263238" stroke="#263238" stroke-linecap="round" stroke-linejoin="round"/>
<path d="M404.376 231.235C404.072 231.235 403.754 231.235 403.437 231.235H401.111C400.793 231.235 400.476 231.235 400.172 231.235V279.991C400.476 279.991 400.793 279.991 401.111 279.991H403.437C403.754 279.991 404.072 279.991 404.376 279.991V231.235Z" fill="white" stroke="#263238" stroke-linecap="round" stroke-linejoin="round"/>
<path d="M240.805 269.759C239.205 269.904 237.666 270.447 236.33 271.338C234.993 272.229 233.9 273.44 233.151 274.861C230.084 279.964 220.393 298.843 221.411 304.461C222.429 310.08 264.786 349.872 264.786 352.423C264.786 354.975 231.115 400.901 208.654 421.313C186.193 441.724 168.346 464.674 165.279 483.05C162.212 501.426 172.934 516.721 184.171 519.788C195.408 522.855 209.17 516.219 224.981 496.31C240.792 476.4 284.18 389.664 290.816 360.144C290.816 360.144 292.337 346.924 286.216 339.216C280.095 331.509 264.786 313.702 264.786 313.702C264.786 313.702 267.853 278.497 265.302 275.946C262.75 273.394 260.199 279.013 260.199 279.013C260.199 279.013 257.832 267.207 254.58 267.776C251.024 268.41 249.993 272.878 249.993 272.878C249.993 272.878 247.441 262.607 240.805 269.759Z" fill="white" stroke="#263238" stroke-linecap="round" stroke-linejoin="round"/>
<path d="M260.199 278.946C260.199 278.946 252.875 308.255 253.589 313.199" stroke="#263238" stroke-linecap="round" stroke-linejoin="round"/>
<path d="M249.993 272.812C249.993 272.812 242.233 301.315 241.241 305.281C240.911 306.578 240.851 307.929 241.065 309.25C241.279 310.571 241.762 311.835 242.484 312.962" stroke="#263238" stroke-linecap="round" stroke-linejoin="round"/>
<path d="M240.805 269.759C240.805 269.759 229.845 300.323 229.845 303.549C229.845 306.775 232.331 310.727 232.331 310.727" stroke="#263238" stroke-linecap="round" stroke-linejoin="round"/>
<path d="M231.049 397.477C224.073 405.856 216.594 413.802 208.654 421.273C186.18 441.671 168.346 464.635 165.279 483.01C162.212 501.386 172.933 516.682 184.17 519.749C195.407 522.816 209.17 516.179 224.981 496.27C234.089 484.822 252.306 451.243 267.404 419.158C244.401 413.05 234.909 403.532 231.049 397.477Z" fill="white" stroke="#263238" stroke-linecap="round" stroke-linejoin="round"/>
<path d="M282.898 205.893C282.898 205.893 282.012 276.924 284.682 290.25C287.353 303.575 311.321 326.208 338.884 327.094C366.448 327.979 388.169 302.676 390.826 289.351C393.483 276.025 390.826 222.761 390.39 201.451C389.953 180.14 359.309 161.05 328.256 165.929C297.202 170.807 281.126 189.011 282.898 205.893Z" fill="white" stroke="#263238" stroke-linecap="round" stroke-linejoin="round"/>
<path d="M350.386 234.752C350.386 234.752 352.157 247.179 353.942 249.836C355.727 252.493 358.82 256.063 352.62 258.72C346.42 261.377 341.515 258.27 341.515 255.164" stroke="#263238" stroke-linecap="round" stroke-linejoin="round"/>
<path d="M357.048 278.695C357.048 278.695 333.067 281.762 322.412 271.186C322.412 271.186 325.056 287.619 333.067 290.289C341.078 292.96 357.048 278.695 357.048 278.695Z" fill="white" stroke="#263238" stroke-linecap="round" stroke-linejoin="round"/>
<path d="M325.968 235.188L328.189 242.287" stroke="#263238" stroke-linecap="round" stroke-linejoin="round"/>
<path d="M316.199 241.851C316.199 241.851 322.412 245.817 333.953 242.287" stroke="#263238" stroke-width="2" stroke-linecap="round" stroke-linejoin="round"/>
<path d="M369.475 235.188L371.696 242.287" stroke="#263238" stroke-linecap="round" stroke-linejoin="round"/>
<path d="M359.706 241.851C359.706 241.851 365.919 245.817 377.473 242.287" stroke="#263238" stroke-width="2" stroke-linecap="round" stroke-linejoin="round"/>
<path d="M313.092 222.761C315.262 219.867 318.077 217.518 321.312 215.901C324.547 214.283 328.115 213.441 331.733 213.441" stroke="#263238" stroke-width="2" stroke-linecap="round" stroke-linejoin="round"/>
<path d="M355.713 212.542C355.713 212.542 368.59 208.999 377.474 219.152" stroke="#263238" stroke-width="2" stroke-linecap="round" stroke-linejoin="round"/>
<path d="M339.122 231.526C340.25 233.452 340.832 235.649 340.804 237.881C340.776 240.112 340.14 242.294 338.964 244.191L338.713 244.588C336.857 247.568 334.273 250.027 331.203 251.732C328.134 253.437 324.681 254.331 321.17 254.331H318.394C315.572 254.33 312.8 253.589 310.354 252.181C307.909 250.772 305.876 248.747 304.46 246.306V246.306C303.421 244.517 302.811 242.512 302.678 240.447C302.545 238.383 302.892 236.316 303.693 234.408C304.656 232.115 306.24 230.136 308.268 228.695C310.295 227.253 312.685 226.407 315.168 226.252L327.806 225.458C330.07 225.321 332.326 225.816 334.325 226.887C336.323 227.959 337.984 229.565 339.122 231.526V231.526Z" stroke="#263238" stroke-linecap="round" stroke-linejoin="round"/>
<path d="M353.664 231.526C352.536 233.452 351.955 235.649 351.983 237.881C352.011 240.112 352.647 242.294 353.823 244.191L354.074 244.588C355.93 247.568 358.514 250.027 361.583 251.732C364.653 253.437 368.106 254.331 371.617 254.331H374.393C377.215 254.33 379.987 253.589 382.433 252.181C384.878 250.772 386.91 248.747 388.327 246.306V246.306C389.369 244.519 389.981 242.513 390.114 240.448C390.247 238.383 389.898 236.315 389.094 234.408V234.408C388.131 232.115 386.546 230.136 384.519 228.695C382.491 227.254 380.102 226.407 377.619 226.252L364.994 225.458C362.729 225.322 360.47 225.817 358.47 226.888C356.469 227.959 354.806 229.565 353.664 231.526V231.526Z" stroke="#263238" stroke-linecap="round" stroke-linejoin="round"/>
<path d="M340.616 233.853C340.616 233.853 344.582 230.746 352.157 233.853" stroke="#263238" stroke-linecap="round" stroke-linejoin="round"/>
<path d="M335.289 227.203H357.049" stroke="#263238" stroke-linecap="round" stroke-linejoin="round"/>
<path d="M303.666 234.395H282.897" stroke="#263238" stroke-linecap="round" stroke-linejoin="round"/>
<path d="M362.376 187.239C362.376 187.239 373.878 224.176 391.341 233.721C390.958 221.056 390.508 209.158 390.35 201.451C389.9 180.14 359.27 161.051 328.216 165.929C297.162 170.807 281.153 189.011 282.924 205.893C282.924 205.893 282.779 217.487 282.792 232.201C297.783 225.736 337.258 207.73 362.376 187.239Z" fill="#263238"/>
<path d="M279.818 222.497C279.818 222.497 338.052 198.08 369.529 167.079" stroke="#737373" stroke-linecap="round" stroke-linejoin="round"/>
<path d="M275.111 202.773C275.111 202.773 336.175 188.68 371.406 151.572" stroke="#737373" stroke-linecap="round" stroke-linejoin="round"/>
<path d="M373.746 171.296C373.746 171.296 374.684 195.251 400.053 217.328" stroke="#737373" stroke-linecap="round" stroke-linejoin="round"/>
<path d="M367.135 320.352C367.135 320.352 367.135 336.454 355.065 362.114C342.996 387.774 342.48 413.434 350.531 432.55C358.582 451.666 380.223 459.228 403.411 450.674C426.599 442.121 429.573 403.876 427.062 380.727C424.55 357.579 401.944 330.412 396.867 316.822C391.791 303.232 388.314 296.199 388.314 296.199C388.314 296.199 375.226 314.31 367.162 318.329L367.135 320.352Z" fill="#263238"/>
<path d="M375.622 302.346C378.531 324.306 375.618 346.645 367.175 367.124C353.082 400.941 363.883 437.111 380.329 444.62C396.774 452.129 412.731 449.326 420.716 438.988" stroke="#737373" stroke-linecap="round" stroke-linejoin="round"/>
<path d="M381.73 294.837C381.73 294.837 397.7 332.408 391.129 360.593C384.559 388.778 387.375 424.538 407.099 431.519C426.823 438.499 438.1 424.538 438.1 424.538" stroke="#737373" stroke-linecap="round" stroke-linejoin="round"/>
<path d="M400.991 319.254C400.991 319.254 414.608 370.918 414.608 397.689C414.608 424.459 431.054 420.242 435.284 407.088" stroke="#737373" stroke-linecap="round" stroke-linejoin="round"/>
<path d="M367.135 320.352C367.135 320.352 367.135 336.454 355.065 362.114C342.996 387.774 342.48 413.434 350.531 432.55C358.582 451.666 380.223 459.228 403.411 450.674C426.599 442.121 429.573 403.876 427.062 380.727C424.55 357.579 401.944 330.412 396.867 316.822C391.791 303.232 388.314 296.199 388.314 296.199C388.314 296.199 375.226 314.31 367.162 318.329L367.135 320.352Z" stroke="#263238" stroke-linecap="round" stroke-linejoin="round"/>
<path d="M429.23 462.78L343.397 459.318C339.61 459.165 336.417 462.111 336.264 465.897L331.484 584.411C331.331 588.197 334.277 591.39 338.063 591.543L423.897 595.005C427.683 595.158 430.876 592.212 431.029 588.426L435.81 469.913C435.962 466.126 433.017 462.933 429.23 462.78Z" fill="#263238" stroke="#263238" stroke-linecap="round" stroke-linejoin="round"/>
<path d="M472.962 510.72C472.962 510.72 429.018 497.05 421.523 494.75C414.027 492.449 370.85 524.693 369.132 529.294C367.413 533.894 373.732 533.907 373.732 533.907C373.732 533.907 371.088 538.508 375.054 540.808C376.305 541.651 377.633 542.372 379.02 542.963C379.02 542.963 376.72 548.145 381.321 549.877C385.921 551.609 392.267 546.995 392.267 546.995L402.631 539.513C402.631 539.513 390.178 554.755 392.835 557.941C396.497 562.304 398.837 557.624 398.837 557.624L413.154 540.663L427.538 533.749C427.538 533.749 439.052 540.663 457.481 541.231C475.91 541.8 479.955 533.749 479.955 533.749" fill="white"/>
<path d="M472.962 510.72C472.962 510.72 429.018 497.05 421.523 494.75C414.027 492.449 370.85 524.693 369.132 529.294C367.413 533.894 373.732 533.907 373.732 533.907C373.732 533.907 371.088 538.508 375.054 540.808C376.305 541.651 377.633 542.372 379.02 542.963C379.02 542.963 376.72 548.145 381.321 549.877C385.921 551.609 392.267 546.995 392.267 546.995L402.631 539.513C402.631 539.513 390.178 554.755 392.835 557.941C396.497 562.304 398.837 557.624 398.837 557.624L413.154 540.663L427.538 533.749C427.538 533.749 439.052 540.663 457.481 541.231C475.91 541.8 479.955 533.749 479.955 533.749" stroke="#263238" stroke-linecap="round" stroke-linejoin="round"/>
<path d="M379.112 542.963C379.112 542.963 395.254 531.885 399.273 527.879C403.292 523.873 416.313 515.505 420.332 515.505" stroke="#263238" stroke-linecap="round" stroke-linejoin="round"/>
<path d="M402.724 539.552C402.724 539.552 410.656 530.589 413.643 529.254C416.631 527.919 420.994 525.909 420.994 525.909" stroke="#263238" stroke-linecap="round" stroke-linejoin="round"/>
<path d="M373.732 533.907C373.732 533.907 396.206 518.043 403.9 513.377C408.501 510.569 413.305 508.108 418.271 506.013" stroke="#263238" stroke-linecap="round" stroke-linejoin="round"/>
<path d="M97.1964 563.216C97.1964 563.216 62.1767 501.717 70.2541 486.077C78.3315 470.438 98.9944 498.57 98.9944 498.57C98.9944 498.57 81.0284 441.235 90.9169 416.21C100.806 391.184 117.846 416.21 118.679 433.938C119.512 451.666 115.096 481.887 115.096 481.887C115.096 481.887 122.275 419.343 139.329 438.102C156.382 456.861 117.78 519.418 117.78 519.418C117.78 519.418 143.823 504.876 142.898 523.596C141.973 542.315 111.474 559.039 111.474 559.039" fill="#F9F9F9"/>
<path d="M97.5003 551.754C97.5003 551.754 65.0849 521.52 80.8696 507.97C96.6542 494.419 104.97 522.512 104.97 522.512C104.97 522.512 87.5192 435.987 115.784 432.854C144.048 429.721 123.253 507.917 123.253 507.917C123.253 507.917 147.353 474.55 145.727 501.664C144.101 528.778 108.301 551.754 108.301 551.754" stroke="#263238" stroke-miterlimit="10"/>
<path d="M136.314 538.217H75.7402L81.795 609.671H130.26L136.314 538.217Z" fill="#263238"/>
<path d="M181.393 307.344C188.181 304.788 194.595 299.95 207.883 296.705C203.428 304.235 194.285 308.977 202.102 316.663C214.902 329.25 211.643 342.501 204.993 352.292C193.268 369.552 168.833 381.594 145.261 380.485C132.351 379.878 118.368 364.608 117.976 349.914C117.583 335.22 129.936 318.048 146.538 312.037C163.141 306.025 173.769 310.214 181.393 307.344Z" fill="#FDE500"/>
<path d="M185.789 306.191C192.704 304.003 200.444 296.704 208.161 297.161C201.224 302.039 193.232 307.21 201.446 318.99C211.714 333.715 209.342 349.296 201.995 358.576C191.472 371.866 155.982 383.839 138.903 375.5C127.289 369.83 117.19 359.521 116.797 344.827C116.405 330.133 140.351 315.522 156.954 309.511C173.556 303.499 176.913 309 185.789 306.191Z" stroke="black"/>
<path d="M191.499 344.318C191.244 344.446 190.955 344.377 190.63 344.111C190.31 343.812 190.022 343.405 189.764 342.891C189.36 342.083 188.897 341.075 188.377 339.865L187.95 338.885L187.026 336.913C186.597 336.057 185.582 334.177 183.98 331.274C182.378 328.372 181.362 326.492 180.933 325.635C180.896 325.562 180.829 325.427 180.731 325.231C180.637 325.002 180.48 324.668 180.26 324.227C180.032 323.729 179.74 323.125 179.384 322.415C178.49 320.628 177.835 319.532 177.42 319.127C177.318 319.178 177.115 319.326 176.812 319.569L176.135 320C175.914 320.111 175.675 320.123 175.42 320.037C175.152 319.926 174.944 319.724 174.797 319.43C174.65 319.136 174.725 318.777 175.023 318.353C175.471 317.761 176.378 317.047 177.744 316.209C178.297 315.871 178.634 315.672 178.753 315.612C178.957 315.51 179.193 315.515 179.461 315.625C179.729 315.736 179.936 315.938 180.083 316.232C180.23 316.526 180.276 316.809 180.222 317.081C180.171 317.321 180.036 317.496 179.815 317.607L179.338 317.8C179.189 317.843 179.03 317.908 178.86 317.993L178.605 318.12C179.558 319.725 180.371 321.201 181.045 322.548L182.196 324.911C182.535 325.629 182.925 326.429 183.366 327.31C183.954 328.485 184.693 329.876 185.582 331.482C186.685 333.472 187.432 334.858 187.824 335.641C188.29 336.572 188.876 337.656 189.581 338.895C190.299 340.159 190.884 341.243 191.338 342.149C191.938 343.349 191.992 344.072 191.499 344.318Z" fill="white"/>
<path d="M185.286 344.251C184.962 344.412 184.533 344.338 183.999 344.03L183.961 343.954C183.462 343.077 182.81 342.148 182.006 341.168C181.201 340.188 180.164 339.037 178.893 337.715C177.935 336.726 177.097 335.827 176.377 335.017L181.369 345.08C181.504 345.353 181.554 345.583 181.519 345.769C181.493 345.931 181.344 346.079 181.072 346.214C180.867 346.316 180.676 346.336 180.498 346.276C180.311 346.199 180.167 346.058 180.066 345.854L179.964 345.65L176.29 338.115C175.226 335.884 174.006 333.381 172.629 330.606L171.071 327.464C170.97 327.26 170.945 327.102 170.996 326.992C171.039 326.864 171.196 326.733 171.469 326.598C171.895 326.387 172.329 326.278 172.771 326.271C173.204 326.247 173.62 326.316 174.02 326.479C174.843 326.813 175.538 327.359 176.105 328.117C176.343 328.424 176.571 328.799 176.79 329.242C176.917 329.497 177.031 329.791 177.132 330.123C177.25 330.446 177.321 330.655 177.347 330.748C177.397 330.935 177.447 331.229 177.497 331.628C177.547 332.028 177.58 332.288 177.596 332.407L177.645 333.274L177.719 334.065C178.04 334.669 178.526 335.393 179.178 336.237C179.847 337.072 180.499 337.831 181.135 338.513C181.584 338.99 182.355 339.775 183.448 340.866L185.303 342.747L185.329 342.798C185.472 343.087 185.569 343.347 185.62 343.577C185.704 343.874 185.592 344.099 185.286 344.251ZM175.756 333.893C175.876 333.536 176 333.06 176.13 332.466L175.423 330.079C175.398 329.985 175.348 329.862 175.272 329.709C175.027 329.215 174.65 328.691 174.142 328.137C173.888 327.881 173.625 327.693 173.353 327.573C173.09 327.428 172.869 327.389 172.69 327.456L173.906 330.036C174.421 331.202 174.835 332.1 175.147 332.73C175.443 333.326 175.646 333.714 175.756 333.893Z" fill="white"/>
<path d="M175.774 351.597C175.504 351.737 175.276 351.792 175.088 351.761C174.917 351.721 174.771 351.583 174.648 351.347L172.925 348.033C172.626 347.996 172.143 348.076 171.475 348.273C170.806 348.471 170.193 348.693 169.636 348.94C169.635 349.391 169.723 349.891 169.902 350.441L170.064 350.999C170.109 351.126 170.194 351.414 170.32 351.862C170.446 352.311 170.538 352.713 170.594 353.069C170.642 353.409 170.659 353.689 170.646 353.91C170.005 354.243 169.546 354.268 169.27 353.983C169.315 353.617 169.114 352.715 168.666 351.276L167.093 346.213C166.324 343.828 165.688 341.78 165.185 340.071C164.699 338.353 164.361 336.879 164.171 335.649C163.954 334.284 164.022 333.509 164.376 333.325C164.731 333.141 165.035 333.068 165.291 333.106C165.642 333.781 166.648 335.325 168.311 337.739C169.963 340.093 171.031 341.734 171.513 342.661C171.978 343.555 172.737 344.789 173.791 346.362C174.845 347.977 175.635 349.291 176.162 350.303C176.46 350.876 176.331 351.308 175.774 351.597ZM171.63 346.842C171.765 346.772 171.921 346.659 172.097 346.503C171.66 345.788 171.098 344.912 170.41 343.878C168.04 340.268 166.632 338.033 166.185 337.173L166.079 336.971C165.998 337.227 166.161 338.117 166.568 339.641C166.983 341.139 167.467 342.73 168.021 344.413C168.575 346.096 168.975 347.195 169.221 347.71C170.035 347.544 170.838 347.255 171.63 346.842Z" fill="white"/>
<path d="M165.745 357.163C165.574 357.246 165.396 357.227 165.211 357.106C165.025 356.984 164.853 356.761 164.696 356.436L162.829 352.652C162.654 352.335 162.384 351.801 162.019 351.048C161.214 349.474 160.325 347.687 159.355 345.686L158.72 344.377C158.965 345.273 159.259 346.556 159.605 348.226C159.975 349.948 160.324 351.342 160.651 352.409L160.726 352.563L160.885 353.088C161.033 353.48 161.135 353.907 161.188 354.366C161.217 354.86 161.051 355.194 160.692 355.368C160.076 355.666 159.378 355.012 158.599 353.404C158.167 352.515 157.613 351.611 156.935 350.693C156.267 349.75 155.375 348.63 154.26 347.333L152.097 344.833L153.538 347.936C153.986 348.86 154.883 350.601 156.23 353.159L157.127 354.878L158.883 358.368C159.057 358.727 159.087 359.114 158.971 359.53C158.544 359.737 158.182 359.754 157.887 359.58C157.6 359.381 157.332 359.025 157.083 358.512L156.114 356.384C155.718 355.435 155.407 354.73 155.183 354.268L152.731 349.342L150.266 344.39C149.909 343.655 149.391 342.543 148.712 341.056L149.206 340.309C149.351 340.26 149.537 340.296 149.765 340.418C149.985 340.523 150.276 340.73 150.638 341.041C151.58 341.894 153.164 343.745 155.391 346.594C155.709 346.989 155.956 347.324 156.131 347.598C156.817 348.49 157.328 349.172 157.662 349.644L159.005 351.433L158.774 350.499L158.241 348.159C157.918 346.795 157.617 345.609 157.34 344.603C157.081 343.588 156.775 342.501 156.423 341.34C155.989 339.966 155.591 338.839 155.227 337.959L155.153 337.805C155.079 337.566 155.099 337.346 155.212 337.143C155.316 336.923 155.488 336.755 155.728 336.639C155.882 336.564 156.052 336.566 156.238 336.645C156.424 336.724 156.554 336.84 156.629 336.994C157.624 339.047 159.19 342.079 161.327 346.092C162.383 348.052 163.392 349.981 164.355 351.88C164.813 352.735 165.365 353.83 166.012 355.164C166.203 355.558 166.27 355.958 166.214 356.365C166.158 356.773 166.002 357.039 165.745 357.163Z" fill="white"/>
<path d="M149.676 366.838C148.715 367.203 147.821 367.343 146.995 367.259C146.476 367.181 146.156 366.982 146.034 366.661C145.913 366.341 145.896 366.057 145.986 365.809C146.065 365.534 146.251 365.341 146.545 365.23C146.812 365.128 147.24 365.088 147.829 365.109C148.471 365.11 148.859 365.085 148.992 365.035C149.5 364.842 149.873 364.456 150.111 363.877C150.366 363.26 150.477 362.546 150.444 361.734C150.418 360.216 150.202 358.922 149.797 357.854C149.361 356.705 148.718 355.574 147.867 354.461C147.034 353.31 146.081 352.251 145.011 351.282L143.883 350.243C142.709 349.161 141.787 348.304 141.12 347.671C140.478 347.028 139.852 346.303 139.24 345.496C138.353 344.366 137.681 343.2 137.225 341.998C136.86 341.037 136.676 340.068 136.672 339.091C136.695 338.105 136.929 337.191 137.373 336.35C137.798 335.455 138.504 334.821 139.493 334.446C139.973 334.263 140.497 334.233 141.062 334.354C141.618 334.449 142.07 334.675 142.419 335.031L142.057 336.131C141.363 336.394 140.791 336.459 140.343 336.323C139.882 336.559 139.546 336.962 139.334 337.531C139.139 338.063 139.049 338.632 139.065 339.237C139.097 339.806 139.21 340.344 139.402 340.851C139.788 341.866 140.316 342.857 140.989 343.824C141.678 344.755 142.427 345.601 143.236 346.363L148.169 350.908C148.988 351.698 149.759 352.643 150.483 353.743C151.206 354.844 151.796 355.995 152.252 357.197C152.921 358.96 153.122 360.778 152.855 362.652C152.705 363.626 152.356 364.476 151.807 365.204C151.268 365.959 150.558 366.503 149.676 366.838Z" fill="white"/>
<path d="M517.739 128.569C512.32 128.358 513.819 130.596 507.165 135.471C510.471 121.479 510.211 129.718 507.667 118.688C504.486 104.9 511.543 97.6252 518.82 92.4363C526.097 87.2474 540.511 84.5183 549.946 86.8414C561.769 89.7529 570.003 103.417 567.085 119.097C565.214 129.155 556.547 137.063 543.355 136.553C530.163 136.043 526.259 128.901 517.739 128.569Z" fill="#4FCB64"/>
<path d="M515.962 128.49C511.16 130.639 510.81 130.312 506.947 136.269C509.885 125.356 509.907 127.862 507.503 117.651C504.499 104.887 507.775 96.4217 515.2 92.1032C525.835 85.9179 554.625 87.1011 563.139 94.6833C570.166 100.942 573.527 111.384 569.88 121.465C566.233 131.546 555.146 133.968 542.35 133.573C529.553 133.178 522.818 125.421 515.962 128.49Z" stroke="black"/>
<path d="M550.379 124.501C549.937 124.487 549.1 122.185 547.866 117.594C546.479 112.224 545.289 107.291 544.296 102.795L543.971 113.663C543.943 114.591 543.984 116.173 544.094 118.409C544.176 120.844 544.207 122.415 544.186 123.121C544.18 123.32 544.053 123.493 543.805 123.641C543.558 123.766 543.28 123.824 542.971 123.815C542.507 123.801 542.28 123.617 542.291 123.264L542.386 122.305C542.451 121.599 542.487 121.136 542.494 120.915C542.529 119.744 542.518 117.887 542.462 115.343C542.406 112.754 542.387 111.184 542.404 110.632L542.53 106.39C542.551 105.706 542.614 104.691 542.721 103.345C542.844 102.177 542.919 101.162 542.945 100.301L542.951 100.102C542.984 98.9974 543.243 98.4524 543.729 98.4669C544.016 98.4755 544.366 98.9724 544.779 99.9575C545.46 101.57 546.303 104.447 547.307 108.589C547.876 110.994 548.535 114.087 549.284 117.868C549.265 117.779 549.419 118.547 549.746 120.17L549.774 120.337C549.838 118.194 549.918 116.273 550.013 114.574L550.252 108.81L550.545 99.0025C550.65 98.4529 551.012 98.1873 551.63 98.2058C552.227 98.2237 552.512 98.6633 552.486 99.5248L552.48 99.7236C552.34 99.9847 552.264 100.303 552.253 100.679C552.212 102.026 552.118 104.057 551.971 106.772C551.823 109.509 551.728 111.563 551.687 112.932L551.385 123.038C551.374 123.392 551.265 123.72 551.057 124.023C550.87 124.35 550.644 124.509 550.379 124.501Z" fill="white"/>
<path d="M535.972 124.151C534.848 124.118 533.974 123.601 533.35 122.603C532.673 121.584 532.211 120.345 531.964 118.886C531.684 117.334 531.524 115.678 531.486 113.916C531.444 112.318 531.45 110.584 531.506 108.716L531.573 106.459C531.611 105.824 531.64 105.154 531.661 104.446C531.52 104.297 531.453 104.113 531.459 103.896C531.466 103.678 531.553 103.49 531.721 103.332C531.89 103.155 532.074 103.07 532.274 103.076C532.926 103.096 533.234 103.749 533.195 105.037C533.17 105.871 533.168 107.45 533.189 109.774C533.211 112.098 533.209 113.677 533.184 114.511C533.268 114.75 533.335 115.224 533.386 115.933C533.456 116.643 533.484 117.225 533.47 117.678C533.458 118.077 533.507 118.578 533.616 119.18C533.726 119.764 533.889 120.359 534.107 120.965C534.324 121.606 534.616 122.141 534.985 122.57C535.354 122.98 535.747 123.192 536.164 123.204C536.418 123.212 536.629 123.136 536.797 122.978C536.983 122.82 537.108 122.588 537.172 122.281C537.296 121.777 537.365 121.28 537.38 120.79L537.538 115.486C537.558 114.815 537.52 113.96 537.424 112.923C537.35 111.777 537.321 110.914 537.338 110.334L537.344 110.143C537.353 109.853 537.352 109.59 537.341 109.354L537.337 108.564C537.352 108.056 537.348 107.285 537.324 106.249C537.28 105.322 537.267 104.542 537.286 103.907C537.292 103.707 537.397 103.538 537.6 103.399C537.822 103.26 538.06 103.195 538.314 103.202L538.975 103.848L538.962 104.311C538.955 104.529 538.911 104.79 538.829 105.096C538.741 105.602 538.697 105.891 538.694 105.964C538.645 107.614 538.668 109.893 538.762 112.8C538.834 115.851 538.845 118.22 538.795 119.907C538.767 120.813 538.653 121.609 538.451 122.292C538.33 122.706 538.165 123.037 537.958 123.285C537.769 123.534 537.509 123.744 537.177 123.915C536.863 124.087 536.462 124.166 535.972 124.151Z" fill="white"/>
<path d="M524.495 125.712C523.707 125.689 523.339 124.808 523.391 123.07C523.486 119.92 523.487 114.878 523.395 107.945C523.331 101.012 523.182 97.352 522.949 96.9646C522.972 96.2042 523.288 95.6293 523.898 95.2399C524.119 95.1106 524.421 95.0109 524.804 94.9408C525.214 94.8444 525.583 94.801 525.908 94.8108C526.072 94.7885 526.412 94.7851 526.928 94.8005C527.552 94.8192 527.997 94.9412 528.262 95.1666C528.528 95.3648 528.653 95.7219 528.638 96.2378C528.629 96.5365 528.514 96.7641 528.291 96.9205C528.07 97.0498 527.797 97.1096 527.471 97.0998L527.065 97.0469L526.494 97.0298C525.734 97.0071 525.349 97.1451 525.34 97.4438C525.298 98.8558 525.338 100.705 525.46 102.992C525.566 104.898 525.62 106.707 525.624 108.419C525.815 108.371 526.171 108.3 526.69 108.206C527.237 108.087 527.646 108.031 527.918 108.039C528.217 108.048 528.471 108.192 528.68 108.47C528.89 108.721 528.99 109.009 528.98 109.335C528.969 109.715 528.784 109.981 528.426 110.134C528.371 110.159 528.233 110.223 528.013 110.325C527.82 110.401 527.561 110.448 527.234 110.465C526.989 110.485 526.58 110.513 526.008 110.551L525.56 110.537C525.512 112.167 525.581 114.384 525.769 117.189C525.926 120.129 525.982 122.346 525.937 123.839L525.891 124.001L525.848 124.081C525.872 124.191 525.88 124.368 525.873 124.612C525.862 124.965 525.732 125.246 525.481 125.456C525.231 125.639 524.902 125.724 524.495 125.712Z" fill="white"/>
<path d="M552.744 242.475C547.012 239.967 547.809 242.692 538.914 244.4C547.519 232.764 544.26 240.335 545.524 228.966C547.105 214.753 557.299 210.98 566.976 209.245C576.652 207.511 593.088 211.114 602.358 217.303C613.976 225.061 617.857 241.313 609.056 254.689C603.411 263.269 591.262 266.946 577.308 260.844C563.355 254.742 561.754 246.418 552.744 242.475Z" fill="#263238"/>
<path d="M550.868 241.642C544.943 241.599 544.686 241.145 538.392 245.051C545.488 236.129 544.605 238.475 545.724 227.929C547.123 214.746 553.696 208.25 563.216 207.391C576.852 206.159 607.28 219.541 613.66 230.242C618.927 239.075 618.751 250.245 611.195 258.088C603.638 265.932 590.88 263.462 577.309 257.636C563.737 251.81 559.325 241.705 550.868 241.642Z" stroke="black"/>
<path d="M591.603 251.983C591.156 251.791 591.094 249.4 591.418 244.809C591.854 239.462 592.34 234.584 592.878 230.176L588.789 239.722C588.44 240.537 587.935 241.962 587.275 243.999C586.518 246.2 586.006 247.611 585.74 248.232C585.665 248.407 585.476 248.509 585.171 248.54C584.875 248.55 584.57 248.489 584.257 248.355C583.787 248.153 583.618 247.897 583.751 247.587L584.18 246.772C584.491 246.17 584.688 245.772 584.771 245.578C585.211 244.55 585.842 242.891 586.664 240.602C587.501 238.275 588.024 236.868 588.232 236.383L589.828 232.658C590.085 232.057 590.501 231.178 591.075 230.024C591.605 229.034 592.032 228.16 592.356 227.404L592.431 227.229C592.847 226.259 593.301 225.879 593.793 226.09C594.084 226.215 594.27 226.8 594.352 227.845C594.493 229.559 594.361 232.464 593.957 236.562C593.708 238.935 593.314 241.958 592.774 245.631C592.785 245.544 592.678 246.29 592.451 247.869L592.423 248.029C593.229 246.147 593.974 244.468 594.659 242.994L596.895 237.958L600.585 229.343C600.882 228.897 601.344 228.808 601.971 229.076C602.575 229.335 602.715 229.843 602.391 230.599L602.316 230.774C602.082 230.949 601.895 231.202 601.753 231.532C601.246 232.715 600.448 234.486 599.359 236.844C598.261 239.221 597.455 241.011 596.94 242.214L593.138 251.091C593.005 251.401 592.779 251.649 592.462 251.834C592.158 252.049 591.872 252.098 591.603 251.983Z" fill="white"/>
<path d="M576.976 245.803C575.837 245.315 575.121 244.5 574.828 243.356C574.486 242.173 574.442 240.882 574.693 239.481C574.942 237.986 575.352 236.446 575.922 234.861C576.43 233.42 577.036 231.879 577.739 230.239L578.588 228.255C578.845 227.706 579.107 227.12 579.373 226.499C579.281 226.309 579.275 226.118 579.357 225.927C579.439 225.736 579.593 225.604 579.82 225.531C580.054 225.443 580.272 225.442 580.474 225.528C581.135 225.812 581.224 226.519 580.739 227.65C580.426 228.383 579.878 229.788 579.097 231.866C578.315 233.945 577.768 235.35 577.454 236.083C577.457 236.329 577.362 236.779 577.17 237.432C576.995 238.092 576.823 238.622 576.653 239.02C576.502 239.37 576.379 239.836 576.283 240.417C576.193 240.981 576.155 241.578 576.169 242.206C576.169 242.866 576.283 243.461 576.512 243.993C576.748 244.509 577.077 244.857 577.5 245.038C577.757 245.148 577.999 245.167 578.226 245.094C578.471 245.03 578.679 244.874 578.85 244.627C579.152 244.228 579.394 243.813 579.579 243.383L581.574 238.724C581.827 238.135 582.083 237.359 582.343 236.396C582.663 235.345 582.932 234.565 583.15 234.055L583.222 233.888C583.331 233.633 583.421 233.398 583.491 233.183L583.76 232.478C583.951 232.032 584.213 231.343 584.547 230.412C584.822 229.568 585.078 228.867 585.317 228.31C585.392 228.135 585.558 228.026 585.815 227.986C586.09 227.953 586.356 227.991 586.613 228.101L587.067 228.946L586.893 229.352C586.811 229.543 586.675 229.759 586.486 229.998C586.221 230.413 586.076 230.652 586.048 230.715C585.427 232.165 584.663 234.203 583.755 236.831C582.774 239.578 581.967 241.692 581.332 243.173C580.991 243.97 580.599 244.631 580.156 245.158C579.889 245.477 579.607 245.705 579.309 245.841C579.03 245.985 578.69 246.066 578.292 246.084C577.911 246.109 577.473 246.016 576.976 245.803Z" fill="white"/>
<path d="M564.689 242.518C563.891 242.177 563.819 241.242 564.473 239.716C565.658 236.949 567.401 232.46 569.704 226.248C572.034 220.048 573.146 216.728 573.042 216.288C573.328 215.62 573.85 215.237 574.609 215.138C574.88 215.113 575.223 215.147 575.639 215.241C576.093 215.322 576.485 215.433 576.815 215.575C576.99 215.622 577.339 215.757 577.862 215.981C578.495 216.252 578.908 216.542 579.102 216.851C579.305 217.135 579.31 217.504 579.116 217.958C579.004 218.22 578.807 218.376 578.525 218.424C578.254 218.449 577.953 218.391 577.623 218.25L577.226 218.037L576.648 217.79C575.877 217.46 575.436 217.426 575.324 217.688C574.792 218.929 574.194 220.592 573.529 222.678C572.979 224.418 572.409 226.052 571.821 227.578C572.034 227.613 572.422 227.694 572.986 227.823C573.587 227.939 574.025 228.056 574.301 228.174C574.603 228.304 574.814 228.535 574.931 228.868C575.06 229.177 575.062 229.474 574.94 229.761C574.797 230.094 574.516 230.256 574.097 230.246C574.032 230.247 573.868 230.247 573.607 230.248C573.384 230.237 573.102 230.173 572.762 230.056C572.504 229.973 572.076 229.832 571.478 229.633L571.024 229.438C570.411 230.869 569.716 232.872 568.939 235.447C568.083 238.129 567.374 240.126 566.812 241.438L566.71 241.563L566.638 241.617C566.625 241.724 566.572 241.885 566.48 242.1C566.347 242.41 566.116 242.607 565.787 242.692C565.468 242.753 565.102 242.695 564.689 242.518Z" fill="white"/>
<path d="M130.776 127.267C136.599 125.56 135.583 128.397 144.132 131.874C136.731 117.592 139.258 126.462 139.013 113.799C138.706 97.9698 129.066 91.9987 119.755 88.3513C110.444 84.7039 94.0582 85.671 84.4538 90.7634C72.4171 97.1453 67.2057 114.217 74.6459 130.437C79.4183 140.842 90.9782 147.061 105.154 142.912C119.331 138.763 121.621 129.949 130.776 127.267Z" fill="#15C9FE"/>
<path d="M132.683 126.696C138.48 127.72 138.77 127.27 144.585 132.68C138.423 121.639 139.082 124.364 138.907 112.628C138.689 97.9589 132.827 89.6656 123.592 87.0031C110.366 83.1896 79.4463 92.3204 72.2742 102.869C66.3542 111.576 65.553 123.823 72.2583 133.768C78.9637 143.713 91.6545 143.32 105.433 139.404C119.212 135.487 124.407 125.234 132.683 126.696Z" stroke="black"/>
<path d="M124.888 120.482C124.439 120.69 122.447 118.807 118.911 114.833C114.831 110.157 111.167 105.82 107.92 101.821L113.044 112.855C113.481 113.797 114.316 115.359 115.547 117.54C116.85 119.934 117.668 121.49 118.001 122.208C118.095 122.409 118.055 122.646 117.881 122.918C117.697 123.167 117.448 123.364 117.134 123.51C116.663 123.729 116.344 123.659 116.177 123.3L115.792 122.293C115.503 121.555 115.307 121.073 115.203 120.849C114.651 119.66 113.709 117.808 112.376 115.292C111.023 112.73 110.216 111.169 109.956 110.609L107.956 106.303C107.634 105.608 107.188 104.56 106.62 103.161C106.158 101.931 105.724 100.879 105.317 100.004L105.224 99.8022C104.703 98.6809 104.689 98.0057 105.183 97.7765C105.474 97.6411 106.073 97.9627 106.98 98.7411C108.47 100.012 110.755 102.468 113.836 106.108C115.611 108.227 117.822 110.991 120.467 114.397C120.403 114.317 120.941 115.008 122.083 116.468L122.195 116.62C121.184 114.445 120.301 112.484 119.544 110.736L116.893 104.852L112.268 94.8947C112.098 94.2924 112.326 93.8454 112.954 93.5538C113.56 93.2726 114.065 93.5693 114.472 94.4439L114.565 94.6457C114.556 94.9773 114.64 95.3337 114.817 95.715C115.452 97.0829 116.376 99.1617 117.59 101.951C118.814 104.763 119.749 106.865 120.395 108.255L125.16 118.515C125.327 118.874 125.382 119.257 125.326 119.664C125.303 120.084 125.157 120.357 124.888 120.482Z" fill="white"/>
<path d="M110.303 127.356C109.161 127.886 108.028 127.808 106.904 127.122C105.715 126.443 104.632 125.435 103.653 124.099C102.595 122.688 101.605 121.111 100.684 119.368C99.8395 117.79 98.9769 116.053 98.0962 114.157L97.0316 111.865C96.7508 111.212 96.4436 110.527 96.1102 109.809C95.8945 109.73 95.7353 109.58 95.6327 109.359C95.5301 109.138 95.5232 108.906 95.6119 108.663C95.6921 108.402 95.8335 108.225 96.036 108.131C96.6988 107.823 97.3337 108.323 97.9408 109.63C98.3341 110.477 99.124 112.057 100.311 114.371C101.497 116.685 102.287 118.265 102.68 119.112C102.883 119.309 103.189 119.749 103.596 120.433C104.021 121.108 104.341 121.676 104.555 122.136C104.743 122.541 105.042 123.017 105.453 123.565C105.856 124.094 106.318 124.607 106.839 125.104C107.378 125.637 107.939 126.025 108.522 126.269C109.097 126.495 109.596 126.509 110.02 126.312C110.277 126.193 110.451 126.012 110.539 125.769C110.646 125.518 110.655 125.223 110.565 124.884C110.436 124.317 110.256 123.785 110.025 123.288L107.524 117.903C107.208 117.222 106.741 116.387 106.125 115.397C105.476 114.288 105.015 113.44 104.741 112.85L104.651 112.657C104.514 112.363 104.381 112.1 104.252 111.869L103.852 111.081C103.613 110.566 103.222 109.796 102.679 108.772C102.169 107.867 101.765 107.093 101.466 106.448C101.372 106.246 101.392 106.024 101.526 105.783C101.678 105.533 101.883 105.348 102.141 105.228L103.127 105.543L103.345 106.012C103.447 106.233 103.534 106.517 103.606 106.864C103.772 107.414 103.872 107.726 103.906 107.799C104.684 109.475 105.849 111.743 107.401 114.603C109.004 117.619 110.202 119.983 110.997 121.695C111.425 122.616 111.709 123.469 111.85 124.254C111.936 124.729 111.938 125.142 111.855 125.494C111.791 125.837 111.635 126.177 111.39 126.516C111.162 126.845 110.8 127.125 110.303 127.356Z" fill="white"/>
<path d="M99.6055 134.672C98.806 135.043 97.9966 134.347 97.1772 132.582C95.692 129.385 93.1653 124.341 89.5972 117.452C86.0566 110.55 84.0727 106.964 83.6453 106.693C83.2868 105.921 83.3148 105.188 83.7292 104.492C83.8858 104.252 84.1378 104.001 84.4854 103.739C84.8477 103.437 85.1942 103.209 85.5251 103.055C85.6777 102.951 86.0159 102.777 86.5397 102.534C87.1737 102.239 87.6798 102.138 88.0579 102.231C88.4232 102.296 88.7275 102.59 88.9708 103.114C89.1116 103.417 89.1102 103.703 88.9665 103.97C88.8099 104.211 88.5663 104.408 88.2354 104.561L87.8027 104.712L87.2238 104.981C86.4519 105.339 86.1363 105.67 86.2772 105.973C86.9429 107.407 87.9101 109.237 89.1785 111.463C90.2402 113.316 91.2019 115.098 92.0636 116.809C92.231 116.664 92.551 116.415 93.0236 116.062C93.5109 115.668 93.8924 115.407 94.1681 115.279C94.4713 115.138 94.7973 115.154 95.1458 115.327C95.4816 115.473 95.7263 115.711 95.88 116.042C96.0592 116.428 96.0081 116.787 95.7265 117.119C95.6842 117.172 95.5783 117.305 95.409 117.518C95.2544 117.69 95.0181 117.867 94.7001 118.048C94.4648 118.191 94.0705 118.424 93.5172 118.748L93.0623 118.96C93.8305 120.614 95.0118 122.796 96.6062 125.508C98.2371 128.37 99.4047 130.559 100.109 132.076L100.144 132.26L100.141 132.362C100.22 132.46 100.317 132.632 100.432 132.88C100.599 133.239 100.609 133.586 100.464 133.922C100.305 134.23 100.019 134.48 99.6055 134.672Z" fill="white"/>
<path d="M383.596 116.436C393.671 121.389 382.603 138.821 376.952 145.15C380.827 141.71 390.247 132.514 395.998 130.208C402.388 127.646 412.747 127.164 422.519 125.563C435.807 123.385 498.304 110.735 497.335 77.3014C496.366 43.8674 434.55 39.8891 411.784 39.8891C389.018 39.8891 322.005 47.3155 323.458 79.9241C325.386 123.181 371.002 110.244 383.596 116.436Z" fill="#FDE500"/>
<path d="M453.863 102.839C453.185 102.695 452.602 102.383 452.113 101.904C451.661 101.424 451.398 100.8 451.323 100.033L451.944 98.8097C452.169 98.8097 452.527 98.9057 453.016 99.0975C453.58 99.2414 454.013 99.3134 454.314 99.3134C454.991 99.3134 455.593 98.9297 456.12 98.1622C456.685 97.3947 457.099 96.3874 457.362 95.1402C457.851 92.8378 458.096 90.7752 458.096 88.9524C458.096 85.7866 457.305 82.4529 455.725 78.9513L455.104 77.5842C454.389 76.0013 453.787 74.5862 453.298 73.3391C452.809 72.0919 452.395 70.7489 452.056 69.3098C451.605 67.4391 451.379 65.5684 451.379 63.6977C451.379 61.5871 451.755 59.3806 452.508 57.0782C452.884 55.9749 453.411 55.0875 454.088 54.416C454.803 53.6965 455.593 53.3367 456.459 53.3367C457.136 53.3367 457.757 53.6245 458.321 54.2001C458.923 54.7278 459.224 55.3753 459.224 56.1428C459.224 56.5745 459.093 56.9103 458.829 57.1501C458.566 57.39 458.246 57.5099 457.87 57.5099C457.456 57.5099 457.061 57.366 456.685 57.0782C455.857 57.1261 455.198 58.0615 454.709 59.8843C454.295 61.5631 454.088 62.9542 454.088 64.0574C454.088 65.4485 454.258 66.8635 454.596 68.3025C454.935 69.6936 455.368 70.9647 455.894 72.1159L457.136 74.994L459.112 79.7427C459.638 81.0858 460.052 82.6448 460.353 84.4195C460.692 86.1943 460.861 87.9931 460.861 89.8159C460.861 92.7419 460.334 95.524 459.281 98.1622C458.754 99.5053 458.002 100.585 457.023 101.4C456.083 102.215 455.029 102.623 453.863 102.623V102.839Z" fill="white"/>
<path d="M440.597 102.788C439.78 102.788 439.049 102.601 438.402 102.226C437.756 101.886 437.229 101.376 436.821 100.696C436.004 99.2669 435.477 97.6511 435.239 95.8481C435.001 94.2833 434.882 92.4123 434.882 90.2351C434.78 86.5612 434.729 82.0708 434.729 76.7639L434.677 72.8348C434.643 72.6307 434.626 72.2906 434.626 71.8143C434.558 70.5216 434.524 69.7392 434.524 69.4671C434.831 68.7527 435.188 68.3955 435.596 68.3955C436.004 68.3955 436.361 68.7016 436.668 69.314C437.008 69.9263 437.178 70.5896 437.178 71.304V85.1834C437.178 86.5441 437.297 88.3471 437.535 90.5923C437.773 93.3818 437.892 95.1847 437.892 96.0012C437.892 98.5185 438.964 99.7772 441.107 99.7772C443.556 99.7772 444.781 90.6263 444.781 72.3246V69.4671V69.0078C444.747 68.9058 444.73 68.7697 444.73 68.5996C444.73 68.1914 444.815 67.9022 444.985 67.7321C445.189 67.528 445.563 67.426 446.108 67.426C446.55 67.426 446.89 67.562 447.128 67.8342C447.4 68.0723 447.57 68.3615 447.638 68.7016C447.672 68.9058 447.689 69.297 447.689 69.8753C447.689 70.4196 447.638 71.287 447.536 72.4777C447.4 73.4642 447.332 74.3146 447.332 75.029C447.332 75.8114 447.298 76.5088 447.23 77.1211L447.128 79.2643V79.6725C447.162 79.8086 447.179 79.9616 447.179 80.1317C447.179 95.2358 444.985 102.788 440.597 102.788Z" fill="white"/>
<path d="M425.12 101.491C424.42 101.491 423.774 101.243 423.182 100.747C422.59 100.28 422.105 99.6373 421.729 98.8198C420.948 97.0389 420.464 95.0973 420.275 92.9952C420.033 91.0099 419.912 89.0975 419.912 87.2582C419.912 86.9078 419.926 86.6159 419.952 86.3823V85.594C419.952 85.448 419.939 85.375 419.912 85.375V84.5867L419.952 81.5211C419.979 80.5869 420.087 79.0979 420.275 77.0541C420.41 75.6527 420.719 74.2951 421.204 72.9813C421.392 72.3974 421.634 71.9594 421.931 71.6675C422.227 71.3463 422.563 71.1857 422.94 71.1857C424.016 71.1857 424.985 71.4047 425.846 71.8426C426.707 72.2514 427.434 72.8353 428.026 73.5944C428.564 74.3243 429.022 75.2294 429.399 76.3096C429.775 77.3607 430.044 78.4848 430.206 79.6818C430.367 80.908 430.448 82.2073 430.448 83.5795V83.9298C430.448 84.8349 430.462 85.6524 430.489 86.3823L430.529 88.8786C430.529 97.287 428.726 101.491 425.12 101.491ZM424.958 99.6519C425.443 99.6519 425.887 99.4475 426.29 99.0388C426.694 98.6009 427.003 98.0169 427.219 97.287C427.73 95.798 428.04 94.1923 428.147 92.4697C428.282 90.9807 428.349 89.6961 428.349 88.6158C428.349 87.302 428.255 85.5794 428.066 83.4481C427.905 81.2 427.824 79.5212 427.824 78.4118V77.6235C427.77 76.514 427.421 75.5505 426.775 74.7331C426.156 73.9156 425.389 73.5068 424.474 73.5068C423.559 73.5068 422.953 74.0761 422.657 75.2148C422.388 76.1199 422.253 77.2877 422.253 78.7183C422.253 79.273 422.267 79.7402 422.294 80.1197V81.3022L422.213 83.3167C422.159 83.9298 422.132 84.6013 422.132 85.3312C422.132 86.9078 422.173 88.4698 422.253 90.0172C422.361 92.2069 422.63 94.3382 423.061 96.4112C423.491 98.5717 424.124 99.6519 424.958 99.6519Z" fill="white"/>
<path d="M413.234 102.788C410.274 102.788 408.794 102.277 408.794 101.257C408.794 100.44 409.322 100.032 410.376 100.032H410.938L411.448 100.083C411.72 100.083 411.907 99.9983 412.009 99.8282C412.111 99.6581 412.162 99.3519 412.162 98.9097C412.162 98.3314 412.128 97.4299 412.06 96.2052C411.958 95.3888 411.839 93.926 411.703 91.8169C411.397 86.6121 411.244 82.683 411.244 80.0296C411.244 79.0771 411.261 78.2097 411.295 77.4272L411.346 74.8249C411.346 73.7023 411.295 72.7668 411.193 72.0184C410.648 72.1544 410.257 72.2225 410.019 72.2225C409.203 72.2225 408.794 71.8143 408.794 70.9978C408.794 70.5896 409.05 70.2324 409.56 69.9262C410.07 69.6201 410.716 69.399 411.499 69.2629C412.86 68.9907 414.067 68.8547 415.122 68.8547C415.53 68.8547 415.87 69.0078 416.142 69.3139C416.449 69.5861 416.602 69.9092 416.602 70.2834C416.602 70.6576 416.483 70.9808 416.244 71.253C416.04 71.5251 415.768 71.6612 415.428 71.6612C415.224 71.6612 415.054 71.6442 414.918 71.6101H414.509C414.169 71.6101 413.914 71.6952 413.744 71.8653C413.608 72.0013 413.54 72.2735 413.54 72.6817C413.54 75.9815 413.744 80.9481 414.152 87.5816C414.22 88.8063 414.356 90.6093 414.561 92.9905C414.731 94.5554 414.816 96.1542 414.816 97.7871V99.7261C415.02 99.6921 415.36 99.6751 415.836 99.6751C417.265 99.6751 417.979 100.27 417.979 101.461V101.767L416.704 102.635C416.67 102.635 416.551 102.652 416.346 102.686C416.176 102.686 415.836 102.686 415.326 102.686C414.237 102.754 413.54 102.788 413.234 102.788Z" fill="white"/>
<path d="M403.676 102.839C402.927 102.839 402.247 101.929 401.635 100.109C400.92 98.1373 400.393 96.1088 400.053 94.0234L399.696 92.0897C398.709 86.6677 398.08 83.5775 397.808 82.8192H397.195C397.195 83.9188 397.178 84.9235 397.144 85.8335V88.9616C397.144 94.0424 397.468 98.0046 398.114 100.848L397.553 102.384H396.124L395.46 101.531L395.512 97.7203C395.512 94.3078 395.358 89.1322 395.052 82.1936C394.78 74.7999 394.644 69.6244 394.644 66.6669C394.644 64.8469 395.205 63.937 396.328 63.937C398.165 63.937 399.662 64.4678 400.818 65.5294C402.009 66.5911 402.604 68.0698 402.604 69.9656V73.9468C402.604 74.5156 402.519 75.1791 402.349 75.9374C402.179 76.6578 401.992 77.2455 401.788 77.7005L400.818 79.748L400.002 81.4542L400.257 82.8192L400.971 86.8573C401.448 89.7768 401.907 92.1466 402.349 93.9666C402.791 95.7865 403.336 97.4359 403.982 98.9146L404.288 99.5971C404.628 100.355 404.798 100.962 404.798 101.417C404.798 101.796 404.696 102.119 404.492 102.384C404.288 102.687 404.016 102.839 403.676 102.839ZM397.4 80.0324C398.148 79.6153 398.777 78.4778 399.288 76.6199C399.832 74.7241 400.104 72.98 400.104 71.3875C400.104 70.1742 399.968 69.0367 399.696 67.975C399.526 67.3684 399.236 66.9134 398.828 66.61C398.454 66.2688 397.978 66.0982 397.4 66.0982L397.297 66.3825L397.195 66.8944L397.297 73.6056C397.365 75.5772 397.4 77.7195 397.4 80.0324Z" fill="white"/>
<path d="M382.529 102.839C381.79 102.839 381.128 102.664 380.543 102.315C379.958 101.998 379.481 101.521 379.112 100.886C378.373 99.5531 377.896 98.0451 377.68 96.3625C377.465 94.9022 377.357 93.1561 377.357 91.1243C377.265 87.6956 377.218 83.5051 377.218 78.5525L377.172 74.8858C377.141 74.6953 377.126 74.3778 377.126 73.9334C377.064 72.727 377.034 71.9968 377.034 71.7428C377.311 71.0761 377.634 70.7428 378.003 70.7428C378.373 70.7428 378.696 71.0285 378.973 71.6C379.281 72.1714 379.435 72.7905 379.435 73.4572V86.4099C379.435 87.6798 379.543 89.3624 379.758 91.4576C379.974 94.0609 380.081 95.7435 380.081 96.5054C380.081 98.8547 381.051 100.029 382.991 100.029C385.207 100.029 386.315 91.4894 386.315 74.4096V71.7428V71.3142C386.285 71.219 386.269 71.092 386.269 70.9333C386.269 70.5523 386.346 70.2825 386.5 70.1237C386.685 69.9333 387.023 69.838 387.516 69.838C387.916 69.838 388.224 69.965 388.44 70.219C388.686 70.4412 388.84 70.7111 388.901 71.0285C388.932 71.219 388.948 71.5841 388.948 72.1238C388.948 72.6317 388.901 73.4413 388.809 74.5524C388.686 75.4731 388.624 76.2668 388.624 76.9334C388.624 77.6636 388.594 78.3144 388.532 78.8859L388.44 80.8859V81.2669C388.47 81.3939 388.486 81.5367 388.486 81.6955C388.486 95.7911 386.5 102.839 382.529 102.839Z" fill="white"/>
<path d="M370.232 102.788C369.484 102.788 368.685 102.605 367.834 102.24C367.018 101.926 366.388 101.561 365.946 101.143C363.667 98.8987 362.527 92.765 362.527 82.7421V80.6279V78.2005V76.3212C362.527 74.2331 362.544 72.38 362.578 70.7617C362.612 69.0912 362.68 67.2902 362.782 65.3587C362.885 63.3229 363.038 61.6785 363.242 60.4256C363.446 59.1206 363.786 57.6589 364.262 56.0406C364.67 54.5268 365.164 53.3522 365.742 52.517C366.354 51.6817 367.137 50.977 368.089 50.4028C368.94 49.8286 369.994 49.5414 371.253 49.5414C371.763 49.5414 372.154 49.7242 372.427 50.0896C372.699 50.455 372.835 50.9248 372.835 51.499C372.835 52.021 372.716 52.4909 372.478 52.9085C372.274 53.3261 372.018 53.561 371.712 53.6132H369.314C368.634 53.6132 368.038 54.2658 367.528 55.5708C367.018 56.8759 366.661 58.5724 366.456 60.6605C366.014 64.5235 365.793 67.6556 365.793 70.057V70.4485L365.691 77.9656C365.623 80.2103 365.589 82.7421 365.589 85.561C365.589 87.5447 365.64 89.163 365.742 90.4159C365.912 92.2951 366.201 93.8612 366.61 95.1141C367.018 96.5235 367.715 97.5415 368.702 98.1679C369.212 98.4811 369.773 98.6377 370.386 98.6377C370.76 98.6377 371.134 98.4289 371.508 98.0113C371.95 98.0113 372.308 98.1679 372.58 98.4811C372.886 98.7421 373.039 99.1597 373.039 99.734C373.039 101.77 372.103 102.788 370.232 102.788Z" fill="white"/>
<path d="M381.311 119.492C391.386 124.54 382.603 138.7 376.951 145.15C380.827 141.645 389.545 133.541 393.42 129.166C395.886 126.383 404.895 122.789 418.695 124C457.757 127.426 490.91 109.818 489.941 75.7478C488.973 41.6777 434.593 34.1065 411.827 34.1065C389.061 34.1065 328.512 42.5189 329.966 75.7478C331.419 108.977 368.717 113.183 381.311 119.492Z" stroke="black"/>
<path d="M454.376 214.18C445.979 214.322 440.233 222.013 429.964 228.975C434.971 210.221 439.509 212.715 435.478 198.331C430.438 180.35 441.31 170.184 452.542 162.759C463.773 155.334 486.082 150.606 500.717 152.944C519.058 155.874 531.927 173.299 527.535 194.255C524.718 207.697 512.273 221.15 491.831 221.501C471.389 221.851 467.578 213.957 454.376 214.18Z" fill="#FE95D0"/>
<path d="M454.369 215.37C447.208 218.681 445.51 219.728 432.352 231.253C436.866 208.762 440.888 212.09 436.973 197.822C432.079 179.987 436.758 167.853 447.801 161.33C463.616 151.988 506.959 151.991 519.987 162.197C530.742 170.62 536.104 185.16 530.913 199.594C525.723 214.028 509.117 218.087 489.856 218.271C470.595 218.454 464.591 210.643 454.369 215.37Z" stroke="black"/>
<path d="M487.873 198.919C487.413 198.85 487.014 198.685 486.675 198.424C486.363 198.161 486.175 197.814 486.112 197.382L486.513 196.68C486.665 196.676 486.908 196.724 487.242 196.823C487.626 196.893 487.92 196.926 488.123 196.92C488.581 196.908 488.982 196.68 489.327 196.237C489.696 195.793 489.96 195.217 490.119 194.508C490.414 193.199 490.547 192.03 490.518 191.001C490.469 189.214 489.882 187.347 488.759 185.4L488.318 184.64C487.81 183.76 487.381 182.973 487.03 182.278C486.68 181.583 486.379 180.833 486.128 180.027C485.793 178.979 485.611 177.928 485.582 176.872C485.549 175.68 485.769 174.428 486.242 173.114C486.479 172.484 486.821 171.974 487.269 171.582C487.741 171.162 488.27 170.944 488.855 170.928C489.313 170.916 489.737 171.066 490.128 171.381C490.543 171.667 490.757 172.027 490.769 172.46C490.775 172.704 490.692 172.896 490.517 173.036C490.343 173.177 490.128 173.25 489.874 173.257C489.594 173.265 489.325 173.191 489.066 173.036C488.507 173.078 488.076 173.619 487.774 174.657C487.52 175.612 487.402 176.401 487.419 177.024C487.441 177.809 487.578 178.605 487.829 179.411C488.08 180.19 488.392 180.899 488.767 181.539L489.651 183.14L491.061 185.784C491.438 186.532 491.743 187.404 491.974 188.4C492.231 189.396 492.373 190.408 492.402 191.437C492.448 193.088 492.135 194.669 491.464 196.177C491.129 196.945 490.637 197.569 489.988 198.047C489.364 198.525 488.658 198.775 487.87 198.797L487.873 198.919Z" fill="white"/>
<path d="M497.123 198.528L497.182 196.78C497.182 196.271 497.2 195.704 497.237 195.077L497.372 193.559C497.302 193.225 497.271 189.945 497.279 183.719C497.288 177.493 497.314 173.498 497.358 171.735C495.632 171.573 494.538 171.329 494.079 171.002C493.765 170.744 493.616 170.466 493.634 170.168C493.648 169.929 493.81 169.729 494.118 169.568C494.459 169.378 494.793 169.293 495.121 169.312C495.957 169.362 496.967 169.481 498.154 169.671C499.278 169.887 500.288 170.022 501.183 170.074L501.541 170.096L501.899 170.117C502.824 170.171 503.265 170.557 503.223 171.273C503.202 171.631 503.035 171.92 502.723 172.141C502.412 172.332 502.063 172.417 501.675 172.394C501.406 172.378 501.021 172.31 500.519 172.191L499.635 171.959L499.577 172.18L499.519 172.401C499.362 175.056 499.366 179.307 499.53 185.154C499.685 190.642 499.673 194.892 499.495 197.905C499.474 198.263 499.291 198.566 498.947 198.815C498.633 199.066 498.282 199.18 497.894 199.157L497.123 198.528Z" fill="white"/>
<path d="M482.793 198.909C482.223 198.925 481.8 198.85 481.523 198.684C481.245 198.519 481.1 198.2 481.087 197.73C481.067 196.987 480.908 195.727 480.611 193.951L480.44 193.175L476.747 192.719C476.614 193.293 476.436 194.45 476.211 196.192C476.096 197.409 475.883 198.221 475.572 198.626C475.405 198.854 475.16 198.972 474.838 198.981C474.541 198.989 474.266 198.91 474.014 198.744C473.761 198.552 473.63 198.32 473.623 198.048L473.692 197.86L473.725 197.711C475.183 191.3 476.248 184.987 476.918 178.772C476.916 178.673 476.924 178.512 476.942 178.288C476.96 178.04 476.975 177.692 476.988 177.246C477.037 176.327 477.091 175.595 477.15 175.048C477.234 174.5 477.371 174.087 477.562 173.809L478.825 173.774C479.172 173.765 479.471 173.843 479.724 174.01C479.976 174.152 480.106 174.371 480.114 174.668C480.166 176.551 480.504 179.342 481.127 183.043C481.728 186.843 482.049 189.511 482.092 191.047C482.096 191.195 482.168 191.578 482.309 192.193C482.449 192.76 482.521 193.129 482.526 193.303C482.531 193.476 482.675 194.216 482.959 195.521C483.215 196.704 483.348 197.469 483.357 197.816L483.359 197.853C483.374 198.398 483.185 198.75 482.793 198.909ZM480.143 191.844C480.059 191.475 480.009 191.018 479.994 190.473C479.932 188.244 479.655 185.401 479.163 181.945L478.684 178.091C477.78 183.941 477.172 188.357 476.858 191.34C477.236 191.578 478.331 191.746 480.143 191.844Z" fill="white"/>
<path d="M466.77 199.503C466.303 199.516 465.735 199.298 465.068 198.849C465.246 196.256 465.338 192.279 465.346 186.916C465.347 181.335 465.363 177.983 465.394 176.86L465.363 175.738C465.403 172.682 465.407 170.562 465.374 169.378C465.362 168.942 465.524 168.594 465.86 168.335C466.227 168.076 466.644 167.94 467.111 167.927C468.202 167.897 469.372 167.958 470.624 168.11C471.437 168.212 472.081 168.397 472.556 168.664C473.063 168.931 473.321 169.267 473.333 169.672C473.357 170.544 472.574 171.002 470.986 171.046C470.385 170.751 469.571 170.618 468.543 170.646L467.982 170.662L467.997 171.223C468.031 172.438 468.012 173.981 467.939 175.854C467.831 177.603 467.797 179.178 467.836 180.58L467.871 181.842L468.245 181.832L468.712 181.819C470.238 181.776 471.013 182.16 471.035 182.97C471.046 183.375 470.884 183.707 470.548 183.966C470.244 184.224 469.858 184.359 469.391 184.372C468.643 184.393 468.033 184.332 467.562 184.189L467.928 197.413C467.966 198.784 467.58 199.481 466.77 199.503Z" fill="white"/>
<path d="M256.767 137.509C267.225 137.598 267.337 143.646 280.047 152.677C274.027 128.086 270.432 134.478 275.622 115.525C282.109 91.8347 273.555 79.5329 259.65 69.9046C245.746 60.2762 218.012 54.3218 199.755 57.5652C176.874 61.63 160.641 84.6803 165.868 112.172C169.221 129.806 182.882 140.903 208.341 141.126C233.801 141.349 240.325 137.37 256.767 137.509Z" fill="#FE941B"/>
<path d="M256.851 134.984C265.706 139.079 267.807 140.374 284.08 154.626C278.497 126.811 273.523 130.927 278.365 113.282C284.417 91.2248 278.63 76.2191 264.974 68.1522C245.414 56.5981 191.812 56.6022 175.699 69.2233C162.399 79.6412 155.767 97.6223 162.187 115.473C168.606 133.324 189.142 138.345 212.963 138.571C236.783 138.798 244.208 129.138 256.851 134.984Z" stroke="black"/>
<path d="M210.873 114.249C210.247 114.249 209.784 114.153 209.485 113.963C209.185 113.772 209.036 113.418 209.036 112.901C209.036 112.085 208.899 110.696 208.627 108.737L208.464 107.879L204.422 107.267C204.258 107.893 204.027 109.158 203.728 111.064C203.564 112.398 203.306 113.282 202.952 113.718C202.761 113.963 202.489 114.085 202.135 114.085C201.809 114.085 201.509 113.99 201.237 113.8C200.965 113.582 200.829 113.323 200.829 113.024L200.91 112.82L200.951 112.656C202.748 105.661 204.109 98.7602 205.034 91.9551C205.034 91.8463 205.048 91.6693 205.075 91.4243C205.102 91.1521 205.129 90.771 205.157 90.2811C205.238 89.2739 205.32 88.4709 205.402 87.8721C205.511 87.2732 205.674 86.8241 205.892 86.5247H207.28C207.661 86.5247 207.988 86.6199 208.26 86.8105C208.532 86.9738 208.668 87.2188 208.668 87.5454C208.668 89.6142 208.954 92.6901 209.526 96.7731C210.07 100.965 210.342 103.905 210.342 105.593C210.342 105.756 210.41 106.178 210.546 106.858C210.682 107.484 210.75 107.893 210.75 108.083C210.75 108.274 210.887 109.09 211.159 110.533C211.404 111.84 211.526 112.683 211.526 113.065V113.105C211.526 113.704 211.308 114.085 210.873 114.249ZM208.178 106.409C208.096 106.001 208.056 105.497 208.056 104.898C208.056 102.449 207.838 99.3183 207.402 95.5074L206.994 91.261C205.824 97.6578 205.021 102.489 204.585 105.756C204.993 106.028 206.191 106.246 208.178 106.409Z" fill="white"/>
<path d="M192.178 114.435C191.738 114.435 191.331 114.263 190.959 113.92C190.62 113.577 190.434 113.157 190.4 112.661V111.173V110.028C190.366 109.684 190.349 109.284 190.349 108.826C190.349 108.024 190.298 106.803 190.196 105.162L190.095 101.499C190.095 99.6292 190.146 96.8435 190.247 93.142C190.383 89.8221 190.45 87.0364 190.45 84.785C190.45 84.2508 190.4 83.4494 190.298 82.3809C190.196 81.2743 190.146 80.4729 190.146 79.9769C190.146 77.2675 190.857 75.9128 192.28 75.9128C193.398 75.9128 194.685 76.1609 196.142 76.657C197.633 77.153 198.378 77.7445 198.378 78.4314C198.378 78.813 198.226 79.1755 197.921 79.5189C197.65 79.8242 197.311 80.0723 196.904 80.2631C195.482 79.6907 194.194 79.3091 193.042 79.1183C193.076 79.6907 193.093 80.5111 193.093 81.5796C193.093 83.106 193.076 84.4797 193.042 85.7008C192.941 87.5325 192.89 88.9063 192.89 89.8221L193.042 90.7379L193.855 90.6807C194.126 90.6425 194.465 90.6235 194.872 90.6235C196.498 90.6235 197.311 91.1577 197.311 92.2262C197.311 92.6459 197.159 93.0085 196.854 93.3137C196.549 93.5808 196.159 93.7144 195.685 93.7144C195.075 93.7144 194.601 93.6762 194.262 93.5999H192.991C193.059 94.5921 193.093 96.0422 193.093 97.9502C193.093 99.8581 193.076 101.575 193.042 103.102C192.941 105.429 192.89 107.166 192.89 108.311C192.89 110.448 192.924 111.516 192.991 111.516L194.668 111.459C195.244 111.421 195.939 111.401 196.752 111.401C198.039 111.401 198.683 111.859 198.683 112.775C198.683 113.309 198.463 113.71 198.022 113.977C197.616 114.283 197.108 114.435 196.498 114.435H192.178Z" fill="white"/>
<path d="M247.468 114.435C246.972 114.435 246.563 114.114 246.242 113.472C246.563 112.859 246.724 110.377 246.724 106.028C246.724 105.006 246.651 103.896 246.505 102.7L246.373 101.43C246.286 100.641 246.242 100.043 246.242 99.6342V98.4957C245.95 97.7659 245.41 96.4084 244.622 94.4232C243.863 92.4381 243.25 90.7741 242.783 89.4312C242.228 87.8839 241.951 86.833 241.951 86.2783V86.0594L242.958 85.3149C243.454 85.3733 243.98 86.0156 244.534 87.2417C245.001 88.3218 245.512 89.8691 246.067 91.8834C246.651 93.8978 246.943 94.9633 246.943 95.0801C247.06 94.759 247.293 93.6642 247.643 91.7958C247.994 89.9275 248.388 88.278 248.826 86.8476C249.322 85.4171 249.833 84.7019 250.358 84.7019C250.65 84.7019 250.898 84.7895 251.103 84.9646C251.336 85.1398 251.453 85.3587 251.453 85.6215C251.453 87.1103 251.044 89.2122 250.227 91.9272C249.351 94.8757 248.913 97.0068 248.913 98.3205V111.501C248.913 113.457 248.432 114.435 247.468 114.435Z" fill="white"/>
<path d="M240.598 114.51C239.703 114.068 238.596 113.847 237.277 113.847C236.879 114.215 236.457 114.399 236.009 114.399C235.71 114.399 235.449 114.197 235.225 113.792C235.026 113.424 234.927 113.019 234.927 112.577C234.927 109.485 235.014 105.361 235.188 100.207C235.337 94.7219 235.412 90.6171 235.412 87.8928V87.5062C235.263 85.1869 235.188 83.4566 235.188 82.3154C235.188 78.818 235.623 77.0693 236.494 77.0693C236.743 77.0693 236.954 77.2165 237.128 77.5111C237.327 77.7688 237.427 78.0817 237.427 78.4498C237.427 78.8916 237.389 79.5911 237.315 80.5483C237.24 81.4686 237.203 82.1681 237.203 82.6467C237.203 85.1133 237.215 87.3406 237.24 89.3286C237.265 91.2797 237.277 93.4886 237.277 95.9552C237.153 96.5074 237.091 97.2805 237.091 98.2745V98.9372L237.016 103.3C236.966 104.588 236.942 106.061 236.942 107.718C236.942 110.258 237.352 111.528 238.173 111.528C238.223 111.528 238.297 111.528 238.397 111.528C238.521 111.491 238.683 111.473 238.882 111.473C239.106 111.436 239.392 111.417 239.74 111.417C241.083 111.417 241.755 111.97 241.755 113.074C241.755 113.442 241.643 113.755 241.419 114.013C241.195 114.271 240.922 114.436 240.598 114.51Z" fill="white"/>
<path d="M228.281 113.876C225.736 113.876 224.464 113.437 224.464 112.559C224.464 111.858 224.917 111.507 225.824 111.507H226.306L226.745 111.55C226.979 111.55 227.14 111.477 227.228 111.331C227.315 111.185 227.359 110.922 227.359 110.541C227.359 110.044 227.33 109.269 227.272 108.216C227.184 107.514 227.081 106.257 226.964 104.443C226.701 99.9687 226.57 96.5907 226.57 94.3094C226.57 93.4905 226.584 92.7447 226.614 92.0721L226.657 89.8347C226.657 88.8695 226.614 88.0653 226.526 87.4218C226.058 87.5388 225.721 87.5973 225.517 87.5973C224.815 87.5973 224.464 87.2463 224.464 86.5444C224.464 86.1935 224.683 85.8864 225.122 85.6231C225.561 85.3599 226.116 85.1698 226.789 85.0528C227.959 84.8189 228.997 84.7019 229.904 84.7019C230.255 84.7019 230.547 84.8335 230.781 85.0967C231.044 85.3307 231.176 85.6085 231.176 85.9302C231.176 86.252 231.074 86.5298 230.869 86.7638C230.693 86.9977 230.459 87.1147 230.167 87.1147C229.992 87.1147 229.845 87.1001 229.728 87.0709H229.377C229.085 87.0709 228.866 87.144 228.719 87.2902C228.602 87.4072 228.544 87.6412 228.544 87.9921C228.544 90.8291 228.719 95.0991 229.07 100.802C229.129 101.855 229.246 103.405 229.421 105.452C229.567 106.798 229.641 108.172 229.641 109.576V111.243C229.816 111.214 230.108 111.199 230.518 111.199C231.746 111.199 232.361 111.711 232.361 112.735V112.998L231.264 113.744C231.235 113.744 231.132 113.759 230.957 113.788C230.81 113.788 230.518 113.788 230.079 113.788C229.143 113.846 228.544 113.876 228.281 113.876Z" fill="white"/>
<path d="M216.155 114.435C215.558 114.336 215.045 114.12 214.614 113.789C214.216 113.458 213.984 113.027 213.918 112.496L214.465 111.651C214.664 111.651 214.978 111.718 215.409 111.85C215.906 111.95 216.288 111.999 216.553 111.999C217.149 111.999 217.679 111.734 218.143 111.204C218.64 110.674 219.005 109.978 219.237 109.116C219.668 107.525 219.883 106.1 219.883 104.841C219.883 102.654 219.187 100.35 217.795 97.9312L217.249 96.9867C216.619 95.8931 216.089 94.9154 215.658 94.0538C215.227 93.1921 214.862 92.2642 214.564 91.27C214.167 89.9775 213.968 88.685 213.968 87.3925C213.968 85.9344 214.299 84.4099 214.962 82.8192C215.293 82.0569 215.757 81.4438 216.354 80.9799C216.983 80.4827 217.679 80.2342 218.442 80.2342C219.038 80.2342 219.585 80.433 220.082 80.8307C220.612 81.1953 220.877 81.6427 220.877 82.1729C220.877 82.4712 220.761 82.7032 220.53 82.8689C220.298 83.0346 220.016 83.1174 219.684 83.1174C219.32 83.1174 218.972 83.018 218.64 82.8192C217.911 82.8523 217.331 83.4985 216.901 84.7579C216.536 85.9178 216.354 86.8789 216.354 87.6411C216.354 88.6022 216.503 89.5798 216.801 90.574C217.099 91.5351 217.481 92.4133 217.945 93.2087L219.038 95.1971L220.778 98.478C221.242 99.406 221.607 100.483 221.872 101.709C222.17 102.935 222.319 104.178 222.319 105.438C222.319 107.459 221.855 109.381 220.927 111.204C220.463 112.132 219.8 112.878 218.939 113.441C218.11 114.004 217.182 114.286 216.155 114.286V114.435Z" fill="white"/>
<path d="M314.601 48.64C307.682 52.1912 308.451 62.1119 301.496 70.3122C304.058 58.0117 305.356 56.8709 301.496 55.0353C296.671 52.7407 296.972 53.0276 280.688 52.1671C264.404 51.3067 249.734 40.6943 249.131 22.6247C248.527 4.55513 277.778 0.826477 288.936 0.826477C300.094 0.826477 327.721 6.03735 330.942 20.095C334.163 34.1526 325.155 43.2227 314.601 48.64Z" fill="#CC62A5"/>
<path d="M313.43 49.8115C307.614 54.6161 310.501 55.0831 304.058 68.2621C306.087 57.7482 302.029 56.811 297.908 55.0831C292.756 52.9233 296.249 53.8359 278.863 53.0259C261.476 52.216 245.813 42.2267 245.169 25.218C244.525 8.20926 274.96 4.82114 286.873 4.82114C298.786 4.82114 332.015 5.59023 333.947 22.5989C335.878 39.6077 320.166 44.247 313.43 49.8115Z" stroke="black"/>
<path d="M277.654 40.243C277.419 40.2488 277.205 40.1716 277.012 40.0113C276.843 39.8504 276.756 39.6522 276.75 39.4166L276.736 35.9867C276.769 34.4535 276.776 33.3099 276.758 32.5559C276.741 31.8727 276.61 30.8622 276.365 29.5244C276.097 28.2108 275.954 27.1888 275.936 26.4584C275.914 25.5631 275.759 24.5413 275.471 23.3932C275.184 22.2451 274.827 21.1459 274.4 20.0955C273.998 19.0916 273.653 18.0157 273.366 16.8676C273.077 15.6959 272.923 14.6742 272.901 13.8024C272.897 13.6375 272.988 13.4938 273.174 13.3713C273.359 13.2489 273.558 13.1851 273.77 13.1798C274.029 13.1735 274.283 13.4383 274.532 13.9744C274.83 14.5801 275.122 15.4334 275.409 16.5343C275.695 17.6353 275.864 18.2913 275.917 18.5022L276.436 20.9294L276.828 22.4758C276.889 22.097 276.936 21.6008 276.968 20.9871C277.061 19.028 277.198 17.3979 277.378 16.0969C277.521 15.1975 277.693 14.5096 277.893 14.0331C278.116 13.509 278.392 13.2428 278.722 13.2347C279.358 13.2191 279.679 13.329 279.685 13.5646C279.718 14.9076 279.484 16.8937 278.983 19.5229C278.482 22.1521 278.248 24.15 278.282 25.5165L278.225 26.0837C278.187 26.4383 278.18 26.6507 278.205 26.7208L278.219 27.2862C278.244 28.2994 278.318 29.8535 278.44 31.9487L278.627 36.6474L278.717 37.4585L278.809 38.305L278.831 39.1885C278.838 39.4713 278.726 39.7098 278.495 39.9041C278.264 40.1219 277.984 40.2349 277.654 40.243Z" fill="white"/>
<path d="M286.16 40.069C285.854 40.0765 285.568 39.9774 285.304 39.7718C285.063 39.5655 284.927 39.3095 284.896 39.0038L284.874 38.0849L284.856 37.3781C284.827 37.1666 284.809 36.9195 284.803 36.6368C284.79 36.142 284.736 35.3889 284.641 34.3776L284.514 32.1174C284.486 30.9629 284.479 29.2421 284.493 26.9549C284.537 24.9028 284.542 23.1817 284.508 21.7916C284.5 21.4617 284.452 20.9678 284.365 20.3098C284.278 19.6283 284.23 19.1344 284.223 18.8281C284.181 17.1553 284.656 16.3067 285.645 16.2823C286.423 16.2632 287.322 16.3943 288.342 16.6756C289.387 16.9564 289.914 17.3088 289.924 17.7329C289.93 17.9685 289.83 18.195 289.623 18.4122C289.439 18.6054 289.207 18.7643 288.927 18.8891C287.929 18.56 287.028 18.3465 286.224 18.2484C286.256 18.6012 286.281 19.1075 286.297 19.7672C286.32 20.7097 286.329 21.5581 286.324 22.3127C286.281 23.4453 286.267 24.2944 286.281 24.8599L286.401 25.4227L286.965 25.3735C287.153 25.3453 287.388 25.3277 287.671 25.3207C288.802 25.2929 289.376 25.6088 289.392 26.2685C289.398 26.5277 289.298 26.7541 289.09 26.9478C288.882 27.118 288.614 27.2071 288.284 27.2153C287.86 27.2257 287.529 27.2103 287.292 27.1689L286.409 27.1907C286.471 27.8021 286.517 28.6969 286.546 29.8749C286.575 31.053 286.589 32.1135 286.589 33.0565C286.553 34.4955 286.544 35.5684 286.562 36.2752C286.594 37.5946 286.634 38.2538 286.681 38.2526L287.847 38.1886C288.247 38.1551 288.729 38.1315 289.295 38.1175C290.19 38.0955 290.645 38.3672 290.659 38.9327C290.667 39.2625 290.52 39.5137 290.217 39.6862C289.939 39.8816 289.588 39.9846 289.164 39.995L286.16 40.069Z" fill="white"/>
<path d="M295.215 39.8814C294.789 39.8211 294.42 39.677 294.108 39.4489C293.819 39.2203 293.647 38.918 293.59 38.5422L293.964 37.9318C294.106 37.9284 294.331 37.97 294.639 38.0567C294.995 38.1187 295.266 38.1473 295.455 38.1427C295.879 38.1322 296.251 37.9345 296.572 37.5494C296.916 37.1637 297.163 36.6625 297.313 36.0459C297.591 34.9074 297.72 33.8905 297.697 32.9952C297.659 31.4402 297.124 29.8148 296.092 28.1193L295.687 27.4573C295.22 26.6908 294.826 26.0051 294.505 25.4C294.183 24.795 293.908 24.1416 293.678 23.44C293.373 22.5281 293.209 21.6127 293.186 20.6938C293.161 19.6571 293.37 18.5675 293.813 17.425C294.035 16.8773 294.355 16.4333 294.771 16.093C295.209 15.7286 295.7 15.5397 296.242 15.5263C296.666 15.5159 297.058 15.6477 297.419 15.9217C297.802 16.1716 297.998 16.485 298.008 16.862C298.013 17.0741 297.934 17.241 297.772 17.3629C297.61 17.4847 297.411 17.5486 297.176 17.5544C296.917 17.5608 296.668 17.4962 296.428 17.3606C295.911 17.3969 295.51 17.8665 295.225 18.7694C294.987 19.6004 294.874 20.2869 294.887 20.8288C294.904 21.512 295.027 22.2045 295.257 22.9061C295.485 23.5841 295.772 24.2018 296.116 24.7592L296.928 26.1537L298.222 28.4558C298.568 29.1074 298.846 29.8667 299.056 30.7339C299.29 31.6004 299.418 32.4813 299.44 33.3767C299.475 34.8139 299.179 36.1885 298.551 37.5006C298.237 38.1685 297.779 38.7102 297.177 39.1258C296.597 39.5409 295.943 39.7574 295.212 39.7754L295.215 39.8814Z" fill="white"/>
<path d="M304.9 33.8787C304.665 33.8845 304.434 33.5955 304.207 33.0117C303.98 32.4044 303.852 31.4999 303.822 30.2983C303.812 29.8742 303.815 29.0725 303.834 27.8933C303.859 27.0204 303.859 26.0538 303.833 24.9935L303.62 19.1992L303.406 13.405C303.397 13.028 303.542 12.7061 303.842 12.4394C304.141 12.1492 304.48 11.9994 304.857 11.9901C305.092 11.9843 305.294 12.0618 305.463 12.2227C305.632 12.3836 305.72 12.5936 305.727 12.8527C305.778 14.9261 305.729 17.7446 305.581 21.3081C305.419 25.2492 305.359 28.0679 305.4 29.7643C305.431 31.0131 305.43 31.9207 305.397 32.4874C305.386 33.0298 305.336 33.3965 305.247 33.5873C305.181 33.7775 305.065 33.8747 304.9 33.8787ZM304.413 39.9378C304.13 39.9448 303.856 39.8219 303.591 39.5691C303.349 39.3157 303.223 39.0005 303.214 38.6236C303.203 38.1995 303.336 37.8308 303.611 37.5175C303.885 37.1807 304.223 37.0074 304.624 36.9975C305.048 36.9871 305.393 37.1436 305.661 37.467C305.951 37.7664 306.102 38.1634 306.114 38.6582C306.135 39.4829 305.568 39.9094 304.413 39.9378Z" fill="white"/>
<path d="M179.011 160.502C203.419 161.775 224.638 182.922 221.153 215.736C219.752 228.925 233.497 241.438 242.698 247.392C229.883 245.428 235.259 245.737 215.935 240.608C191.779 234.197 173.172 273.712 126.877 280.582C80.5811 287.451 62.5619 254.543 61.0315 238.642C58.6022 213.402 71.1197 195.243 89.6183 184.369C112.928 170.668 147.351 158.849 179.011 160.502Z" fill="#4FCB64"/>
<path d="M174.695 162.454C199.751 166.519 221.723 183.963 224.091 224.256C224.874 237.587 242.225 245.013 246.515 250.188C242.676 245.993 231.681 245.238 212.345 240.05C188.175 233.564 171.875 267.11 125.577 273.964C79.278 280.819 60.3279 244.875 61.0041 228.786C61.8736 208.094 65.991 195.624 95.9285 177.939C119.226 164.177 143.376 157.374 174.695 162.454Z" stroke="black"/>
<path d="M187.103 215.547C186.664 215.693 186.065 215.283 185.307 214.318C184.533 213.309 183.775 211.686 183.033 209.45C182.77 208.66 182.319 207.155 181.679 204.933C181.227 203.282 180.674 201.469 180.019 199.496L176.304 188.753L172.59 178.009C172.357 177.308 172.445 176.621 172.855 175.949C173.25 175.234 173.799 174.759 174.5 174.526C174.939 174.381 175.363 174.41 175.772 174.615C176.181 174.82 176.465 175.164 176.625 175.646C177.907 179.505 179.428 184.818 181.189 191.585C183.139 199.068 184.638 204.389 185.687 207.546C186.458 209.87 186.975 211.573 187.237 212.654C187.528 213.677 187.644 214.393 187.586 214.802C187.57 215.197 187.409 215.445 187.103 215.547ZM189.654 227.188C189.128 227.363 188.544 227.289 187.901 226.967C187.302 226.63 186.887 226.111 186.654 225.409C186.391 224.62 186.429 223.853 186.766 223.108C187.088 222.32 187.622 221.801 188.367 221.554C189.157 221.292 189.894 221.387 190.581 221.841C191.296 222.236 191.807 222.894 192.113 223.815C192.622 225.35 191.803 226.474 189.654 227.188Z" fill="white"/>
<path d="M173.924 232.785C173.021 233.04 172.132 233.026 171.257 232.744C170.382 232.461 169.558 231.973 168.784 231.28C167.398 230.083 166.109 228.27 164.917 225.841C164.082 224.164 163.254 222.192 162.432 219.923L161.77 217.771L161.147 215.564C160.913 214.865 160.654 214.011 160.369 213.003C159.908 211.368 159.583 209.9 159.397 208.6C159.161 207.254 159.13 205.865 159.304 204.433C159.524 203.165 160.07 202.158 160.944 201.411C161.484 201.023 162.056 200.744 162.658 200.573C164.432 200.072 165.999 200.248 167.36 201.099C168.859 202.058 170.016 203.276 170.831 204.752C171.905 206.509 172.722 208.249 173.281 209.974C173.961 211.871 174.544 213.677 175.029 215.394L175.687 217.724C175.818 218.187 175.98 219.082 176.175 220.41C176.326 221.456 176.501 222.333 176.701 223.042L176.747 223.205C176.762 224.025 176.916 224.953 177.208 225.988C177.424 226.751 177.446 227.598 177.275 228.529C177.104 229.459 176.732 230.315 176.157 231.095C175.606 231.957 174.861 232.52 173.924 232.785ZM173.39 230.509C174.059 230.32 174.486 229.655 174.669 228.514C174.817 227.502 174.794 226.332 174.599 225.004C174.431 223.639 174.182 222.12 173.855 220.448C173.721 219.72 173.497 218.798 173.182 217.681L172.069 213.935C171.587 212.483 170.867 210.7 169.909 208.588C169.11 206.783 168.138 205.263 166.994 204.027C166.467 203.44 165.899 203.027 165.289 202.787C164.679 202.547 164.09 202.508 163.521 202.669C162.684 202.905 162.215 203.611 162.114 204.787C161.928 206.046 161.939 207.367 162.149 208.749C162.356 210.25 162.628 211.659 162.964 212.976L163.294 214.339C163.369 214.73 163.498 215.253 163.683 215.907L163.729 216.07C164.245 217.896 165.114 220.077 166.336 222.615C167.895 226.088 169.409 228.441 170.877 229.674C171.816 230.438 172.654 230.717 173.39 230.509Z" fill="white"/>
<path d="M145.318 244.825C144.879 244.943 144.397 244.766 143.874 244.296C143.399 243.874 143.063 243.293 142.866 242.554C142.729 242.041 142.629 241.397 142.567 240.621C142.456 239.798 142.347 239.187 142.241 238.788C140.889 233.723 138.123 224.036 133.943 209.728C130.325 197.526 127.566 187.868 125.668 180.754C125.531 180.242 125.543 179.812 125.704 179.464C125.849 179.059 126.091 178.812 126.429 178.722C126.835 178.614 127.258 178.775 127.699 179.206C128.125 179.58 128.428 180.109 128.611 180.792C129.522 184.206 130.99 189.301 133.015 196.076C135.204 203.6 136.656 208.7 137.369 211.374L137.693 212.385L137.967 213.41L138.126 214.007L138.24 214.434C139.663 219.358 141.688 226.743 144.315 236.589L144.907 238.808L148.811 237.766C149.749 238.431 150.331 239.19 150.559 240.043C150.726 240.669 150.743 241.274 150.609 241.859C150.494 242.377 150.268 242.682 149.93 242.772C149.828 242.799 149.627 242.791 149.326 242.75L149.101 242.719C148.913 242.83 148.6 242.944 148.16 243.061L147.298 243.291C147.047 243.297 146.769 243.341 146.464 243.422C146.309 244.195 145.927 244.663 145.318 244.825Z" fill="white"/>
<path d="M159.445 240.052C159.049 240.193 158.585 240.044 158.054 239.608C157.572 239.216 157.203 238.659 156.948 237.937C156.771 237.437 156.616 236.805 156.482 236.04C156.299 235.23 156.138 234.631 156.001 234.242C154.252 229.3 150.739 219.859 145.463 205.918C140.914 194.032 137.411 184.619 134.955 177.678C134.778 177.178 134.747 176.751 134.862 176.398C134.957 175.99 135.158 175.731 135.462 175.624C135.828 175.494 136.236 175.631 136.687 176.034C137.119 176.381 137.452 176.887 137.688 177.554C138.867 180.885 140.727 185.851 143.268 192.449C146.034 199.78 147.879 204.751 148.802 207.361L149.202 208.344L149.555 209.344L149.762 209.927L149.909 210.343C151.71 215.142 154.31 222.344 157.71 231.95L158.476 234.116L161.996 232.87C162.93 233.477 163.545 234.197 163.84 235.029C164.056 235.64 164.131 236.239 164.064 236.825C164.008 237.344 163.827 237.658 163.522 237.766C163.431 237.798 163.244 237.802 162.961 237.777L162.748 237.759C162.585 237.879 162.305 238.009 161.909 238.149L161.132 238.424C160.899 238.444 160.646 238.503 160.371 238.6C160.303 239.374 159.994 239.858 159.445 240.052Z" fill="white"/>
<path d="M132.251 248.178C131.542 248.369 130.901 248.441 130.328 248.395C129.643 248.379 129.186 247.941 128.955 247.083L120.214 214.559C120.044 213.924 119.676 213.003 119.111 211.794C118.539 210.707 118.153 209.791 117.952 209.044L117.907 208.876C118.261 207.661 118.547 206.864 118.765 206.485C119.287 206.344 119.958 206.084 120.776 205.704C121.52 205.344 122.19 205.084 122.787 204.924C123.384 204.763 124.013 204.794 124.673 205.017C125.323 205.203 125.713 205.538 125.844 206.023C126.145 207.143 125.437 207.933 123.72 208.395L122.936 208.605C122.702 208.628 122.436 208.68 122.137 208.76C121.802 208.85 121.601 208.924 121.537 208.981C121.878 210.25 122.364 211.76 122.994 213.511L123.527 215.049L124.467 218.098C124.657 218.807 124.892 219.904 125.171 221.39L125.902 224.555L126.641 224.176C127.327 223.751 127.912 223.474 128.398 223.344C128.808 223.233 129.226 223.301 129.653 223.547C130.069 223.755 130.332 224.064 130.442 224.475C130.563 224.923 130.524 225.373 130.325 225.827C130.154 226.233 129.864 226.491 129.453 226.601L128.766 226.726L128.039 226.921C127.479 227.072 127.122 227.308 126.968 227.629L131.617 244.927L134.707 243.917C136.834 243.345 138.028 243.544 138.289 244.515L138.349 244.739C138.245 245.247 137.935 245.73 137.418 246.189C136.891 246.611 136.358 246.934 135.818 247.159L133.986 247.712L132.251 248.178Z" fill="white"/>
<path d="M123.016 256.964C122.33 257.146 121.733 257.024 121.223 256.595C120.78 256.205 120.46 255.64 120.263 254.902C117.322 243.881 114.627 234.63 112.179 227.149C110.857 227.275 109.932 227.409 109.405 227.55C107.243 228.127 105.736 228.727 104.886 229.349C105.674 232.302 107.1 236.695 109.165 242.527C111.276 248.742 112.683 253.168 113.386 255.805C113.527 256.332 113.502 256.876 113.313 257.435C113.109 257.941 112.77 258.257 112.295 258.384C111.609 258.567 110.653 257.523 109.426 255.252C107.625 251.891 104.934 244.56 101.353 233.257C98.9154 225.604 96.5075 217.321 94.1293 208.409C93.6403 206.789 92.9948 204.476 92.1927 201.47C91.9394 200.521 92.261 199.926 93.1574 199.687C93.6848 199.546 94.2473 199.538 94.845 199.66C95.4954 199.769 95.9947 199.947 96.3428 200.193C96.5821 201.937 97.0044 203.942 97.6095 206.21C98.2005 208.425 99.0236 211.086 100.079 214.194C101.208 217.79 102.019 220.511 102.511 222.357L102.891 223.78C102.951 224.216 103.059 224.724 103.213 225.304C103.354 225.832 103.59 226.503 103.92 227.319C104.237 227.234 104.757 227.067 105.481 226.818C106.205 226.568 106.923 226.292 107.633 225.989C109.331 225.367 110.602 224.943 111.445 224.718C110.221 220.13 109.036 215.899 107.889 212.025L104.205 198.857L103.636 196.722C104.321 196.539 104.963 196.509 105.56 196.632C106.144 196.702 106.617 196.886 106.979 197.185C107.608 197.638 108.166 198.563 108.651 199.959L109.137 201.778C110.347 206.313 112.925 214.917 116.872 227.591C120.443 239.065 123.002 247.703 124.55 253.504C124.747 254.242 124.686 254.965 124.366 255.671C124.099 256.364 123.649 256.795 123.016 256.964Z" fill="white"/>
<path d="M487.85 252.152C465.649 250.271 443.86 266.733 442.933 296.8C442.561 308.885 428.593 318.478 419.545 322.713C431.362 322.53 426.468 322.142 444.557 319.91C467.167 317.119 479.064 355.116 520.02 367.068C560.976 379.021 581.335 351.54 584.692 337.37C590.02 314.878 580.971 296.923 565.615 284.807C546.266 269.538 516.646 254.591 487.85 252.152Z" fill="#FE941B"/>
<path d="M491.505 254.451C468.373 255.01 446.365 268.036 439.222 304.129C436.859 316.071 420.268 320.623 415.751 324.764C419.739 321.452 429.762 322.136 447.869 319.851C470.502 316.995 481.056 349.314 522.017 361.254C562.977 373.193 584.554 343.086 585.942 328.472C587.726 309.677 585.556 297.905 560.716 278.217C541.385 262.895 520.42 253.752 491.505 254.451Z" stroke="black"/>
<path d="M535.491 335.244C534.687 334.903 535.146 332.709 536.866 328.662L540.07 321.379C541.02 319.23 542.067 316.811 543.209 314.124C543.629 313.135 544.186 311.566 544.881 309.418C545.685 307.097 546.192 305.689 546.402 305.195C546.573 304.793 546.893 304.51 547.365 304.346C547.836 304.181 548.272 304.184 548.674 304.355C549.755 304.815 550.685 305.502 551.463 306.416C552.286 307.313 552.899 308.358 553.304 309.551C554.141 312.131 554.342 314.661 553.909 317.139C553.701 318.4 553.361 319.587 552.888 320.699C552.717 321.101 552.544 321.465 552.369 321.792L551.791 323.023L550.708 325.572C549.867 327.549 549.143 329.083 548.533 330.174C547.691 331.639 546.752 332.863 545.714 333.845C544.545 334.88 543.157 335.657 541.55 336.178C540.797 336.405 539.889 336.566 538.827 336.662L535.491 335.244ZM538.534 333.747C539.152 334.01 539.789 334.098 540.446 334.013C541.115 333.896 541.754 333.639 542.361 333.24C542.88 332.877 543.42 332.377 543.983 331.741C544.589 331.087 545.105 330.431 545.53 329.773C546.399 328.501 547.173 327.152 547.852 325.726C548.04 325.368 548.286 324.834 548.588 324.124C552.553 314.794 552.814 309.16 549.37 307.222C548.563 308.521 547.772 310.081 546.997 311.904C546.17 313.85 544.849 317.301 543.035 322.256C541.426 326.642 540.083 330.102 539.007 332.635L538.534 333.747Z" fill="white"/>
<path d="M522.45 334.682C522.037 334.506 521.73 334.169 521.53 333.67C521.361 333.184 521.369 332.681 521.552 332.161L522.199 330.641L522.695 329.471C522.813 329.107 522.971 328.691 523.17 328.223C523.517 327.405 524 326.137 524.617 324.421L526.112 320.639C526.924 318.729 528.18 315.904 529.883 312.164C531.451 308.827 532.724 306.009 533.701 303.709C533.933 303.164 534.233 302.325 534.602 301.193C534.987 300.022 535.287 299.184 535.502 298.677C536.678 295.91 537.933 294.81 539.267 295.377C540.316 295.822 541.415 296.589 542.565 297.676C543.748 298.776 544.19 299.677 543.892 300.379C543.726 300.769 543.426 301.078 542.991 301.308C542.604 301.511 542.179 301.63 541.715 301.663C540.629 300.511 539.588 299.608 538.591 298.954C538.374 299.553 538.034 300.397 537.57 301.489C536.907 303.048 536.295 304.444 535.733 305.678C534.843 307.508 534.199 308.891 533.801 309.826L533.547 310.822L534.334 311.088C534.604 311.157 534.93 311.272 535.312 311.434C536.836 312.082 537.367 312.952 536.903 314.043C536.72 314.472 536.42 314.782 536.002 314.972C535.6 315.123 535.177 315.104 534.732 314.915C534.16 314.672 533.732 314.444 533.448 314.231L532.257 313.725C531.889 314.766 531.292 316.26 530.463 318.209C529.635 320.158 528.874 321.905 528.18 323.45C527.074 325.787 526.272 327.54 525.775 328.71C524.848 330.892 524.416 331.997 524.479 332.024L526.076 332.634C526.633 332.824 527.292 333.082 528.055 333.406C529.262 333.919 529.666 334.643 529.269 335.578C529.037 336.124 528.657 336.445 528.128 336.543C527.614 336.692 527.071 336.646 526.5 336.403L522.45 334.682Z" fill="white"/>
<path d="M511.325 329.954C510.946 329.793 510.671 329.469 510.499 328.982C510.357 328.507 510.379 328.01 510.565 327.491L511.211 325.971L511.708 324.802C511.828 324.439 511.987 324.023 512.186 323.555C512.534 322.737 513.02 321.471 513.645 319.758L515.148 315.979C515.96 314.07 517.213 311.243 518.907 307.499C520.465 304.158 521.732 301.338 522.71 299.038C522.941 298.493 523.246 297.656 523.622 296.527C524.015 295.36 524.319 294.523 524.534 294.016C525.711 291.249 526.911 290.125 528.135 290.645C529.097 291.054 530.097 291.778 531.134 292.818C532.202 293.869 532.586 294.746 532.288 295.448C532.122 295.837 531.834 296.152 531.422 296.391C531.057 296.604 530.657 296.733 530.225 296.78C529.249 295.675 528.307 294.814 527.399 294.198C527.18 294.795 526.838 295.639 526.374 296.731C525.712 298.29 525.101 299.686 524.542 300.921C523.659 302.755 523.019 304.139 522.621 305.075L522.355 306.066L523.079 306.305C523.329 306.365 523.629 306.469 523.979 306.618C525.378 307.213 525.845 308.056 525.381 309.147C525.199 309.576 524.911 309.89 524.516 310.09C524.138 310.252 523.744 310.246 523.336 310.072C522.812 309.849 522.42 309.637 522.162 309.435L521.069 308.971C520.697 310.009 520.096 311.502 519.268 313.451C518.44 315.4 517.68 317.147 516.988 318.694C515.89 321.034 515.093 322.789 514.596 323.958C513.668 326.141 513.233 327.245 513.292 327.269L514.759 327.824C515.271 327.996 515.877 328.23 516.577 328.528C517.684 328.998 518.039 329.701 517.642 330.637C517.41 331.182 517.046 331.511 516.551 331.623C516.069 331.786 515.566 331.756 515.041 331.533L511.325 329.954Z" fill="white"/>
<path d="M495.656 322.628C495.954 320.795 496.729 318.406 497.98 315.462L499.852 311.32C500.447 310.093 501.071 308.713 501.723 307.178C501.721 306.66 501.794 306.228 501.94 305.883L502 305.743C502.566 305.28 503.295 304 504.187 301.901L505.153 299.76C505.477 299.084 505.819 298.323 506.179 297.478C506.964 295.629 507.458 294.12 507.66 292.948C507.94 292.549 508.257 292.24 508.609 292.02C508.975 291.769 509.314 291.71 509.627 291.843L511.695 292.721C512.572 293.094 513.253 293.624 513.738 294.311C514.236 294.966 514.504 295.727 514.542 296.594C514.623 298.145 514.29 299.797 513.545 301.551C513.012 302.804 512.577 303.784 512.24 304.492C511.791 305.373 511.282 306.137 510.712 306.782C510.444 307.149 510.157 307.434 509.849 307.636C509.586 307.82 509.218 308.034 508.745 308.276C508.08 308.622 507.147 308.817 505.945 308.861C505.444 308.907 504.825 308.885 504.088 308.793L501.951 313.821L500.767 316.868L500.242 318.364C499.621 320.172 499.052 321.686 498.532 322.908C498.373 323.284 498.083 323.53 497.663 323.648C497.23 323.797 496.81 323.785 496.403 323.611L495.656 322.628ZM504.953 306.887C506.921 307.39 508.97 305.136 511.1 300.124C511.486 299.216 511.739 298.491 511.858 297.95C511.924 297.534 511.925 297.183 511.862 296.897C511.812 296.58 511.663 296.277 511.416 295.987C511.152 295.653 510.816 295.399 510.409 295.226C510.422 295.194 510.256 295.106 509.912 294.959L508.773 297.637C507.988 299.486 507.305 301.137 506.724 302.591C506.031 304.22 505.594 305.291 505.413 305.806L504.993 306.793L504.953 306.887Z" fill="white"/>
<path d="M481.034 316.734C480.382 316.319 479.885 315.809 479.544 315.204C479.242 314.615 479.185 313.993 479.372 313.336L480.437 312.615C480.671 312.715 481.008 312.95 481.449 313.321C481.984 313.687 482.407 313.936 482.719 314.068C483.421 314.366 484.177 314.32 484.987 313.928C485.837 313.553 486.614 312.917 487.317 312.019C488.619 310.364 489.585 308.796 490.214 307.314C491.307 304.742 491.64 301.685 491.212 298.145L491.041 296.76C490.848 295.16 490.713 293.745 490.637 292.516C490.561 291.287 490.596 290.014 490.742 288.695C490.92 286.977 491.332 285.357 491.978 283.837C492.707 282.122 493.859 280.495 495.434 278.956C496.204 278.225 497.057 277.736 497.99 277.488C498.979 277.218 499.922 277.274 500.818 277.655C501.52 277.953 502.063 278.46 502.449 279.176C502.891 279.87 502.979 280.529 502.714 281.152C502.565 281.503 502.312 281.718 501.957 281.797C501.601 281.876 501.228 281.832 500.839 281.667C500.41 281.485 500.05 281.194 499.76 280.794C498.886 280.469 497.881 280.939 496.745 282.205C495.736 283.387 495.041 284.426 494.66 285.322C494.18 286.452 493.867 287.677 493.721 288.995C493.591 290.274 493.6 291.498 493.748 292.665L494.041 295.55L494.447 300.278C494.529 301.602 494.419 303.051 494.118 304.625C493.856 306.216 493.41 307.753 492.781 309.234C491.77 311.611 490.264 313.64 488.261 315.32C487.252 316.179 486.1 316.725 484.805 316.956C483.549 317.205 482.317 317.072 481.108 316.559L481.034 316.734Z" fill="white"/>
</svg>
