<svg width="49" height="73" viewBox="0 0 49 73" fill="none" xmlns="http://www.w3.org/2000/svg">
<path d="M18.1446 56.1963C18.1446 56.1963 -3.35376 34.4387 1.6049 28.9057C6.56355 23.3728 19.2483 33.3256 19.2483 33.3256C19.2483 33.3256 8.21915 13.0412 14.2896 4.18753C20.3601 -4.66613 30.8212 4.18752 31.3325 10.4594C31.8438 16.7314 29.1332 27.4231 29.1332 27.4231C29.1332 27.4231 33.54 5.29599 44.0091 11.9327C54.4783 18.5695 30.7806 40.7013 30.7806 40.7013C30.7806 40.7013 46.7685 35.5565 46.2004 42.1792C45.6323 48.8019 26.9095 54.7184 26.9095 54.7184" fill="#4FCB64"/>
<path d="M18.3316 52.1414C18.3316 52.1414 -1.56791 41.4449 8.12217 36.6509C17.8122 31.857 22.917 41.7957 22.917 41.7957C22.917 41.7957 12.2043 11.1844 29.5556 10.076C46.9068 8.9675 34.1409 36.6323 34.1409 36.6323C34.1409 36.6323 48.9357 24.8274 47.9375 34.42C46.9393 44.0126 24.9621 52.1414 24.9621 52.1414" stroke="#263238" stroke-miterlimit="10"/>
<path d="M42.1595 47.3521H4.97363L8.6906 72.6315H38.4425L42.1595 47.3521Z" fill="#263238"/>
</svg>
