<svg width="113" height="136" viewBox="0 0 113 136" fill="none" xmlns="http://www.w3.org/2000/svg">
<path d="M0.493652 120.127C19.6538 99.3559 32.1343 84.8924 37.9351 76.7365C46.8413 64.4147 51.2944 53.501 51.2944 43.9956C51.2944 38.3628 49.5659 33.1113 46.1089 28.2412C42.7104 23.3125 37.4077 20.8481 30.2007 20.8481C23.8726 20.8481 18.5405 23.0485 14.2046 27.4491C11.8608 29.8548 9.78076 33.082 7.96436 37.1306H3.04248C7.02686 24.6327 12.5347 15.3913 19.5659 9.40642C26.5972 3.36285 34.5073 0.341064 43.2964 0.341064C51.6167 0.341064 59.1753 3.2455 65.9722 9.05437C72.769 14.8046 76.1675 23.2832 76.1675 34.4902C76.1675 40.3577 74.5562 46.372 71.3335 52.5329C68.1694 58.6938 62.8081 65.3828 55.2495 72.5999L27.8276 98.8278V100.324H53.4038C62.3101 100.324 68.1108 99.5906 70.8062 98.1237C73.5601 96.6568 76.314 92.7256 79.0679 86.33H83.3745L75.2886 124.264H0.493652V120.127Z" fill="#4FCB64"/>
<path d="M77.0742 108.145C77.0742 108.145 51.6552 72.1414 57.5182 62.9857C63.3811 53.83 78.3792 70.2994 78.3792 70.2994C78.3792 70.2994 65.3387 36.7338 72.5163 22.0831C79.6938 7.43251 92.0627 22.0831 92.6672 32.4616C93.2718 42.8401 90.0668 60.5323 90.0668 60.5323C90.0668 60.5323 95.2773 23.9174 107.656 34.8995C120.034 45.8817 92.0147 82.5044 92.0147 82.5044C92.0147 82.5044 110.918 73.9911 110.247 84.9501C109.575 95.909 87.4376 105.699 87.4376 105.699" fill="white"/>
<path d="M77.2949 101.435C77.2949 101.435 53.7663 83.7349 65.2235 75.8021C76.6808 67.8692 82.7165 84.3154 82.7165 84.3154C82.7165 84.3154 70.0502 33.6612 90.5658 31.827C111.081 29.9928 95.9874 75.7711 95.9874 75.7711C95.9874 75.7711 113.48 56.237 112.3 72.1104C111.12 87.9839 85.1346 101.435 85.1346 101.435" stroke="#263238" stroke-miterlimit="10"/>
<path d="M105.468 93.5096H61.5005L65.8953 135.341H101.073L105.468 93.5096Z" fill="#263238"/>
</svg>
