<svg width="48" height="73" viewBox="0 0 48 73" fill="none" xmlns="http://www.w3.org/2000/svg">
<path d="M17.3155 56.1963C17.3155 56.1963 -4.18286 34.4387 0.775794 28.9057C5.73445 23.3728 18.4192 33.3256 18.4192 33.3256C18.4192 33.3256 7.39004 13.0412 13.4605 4.18753C19.531 -4.66613 29.9921 4.18752 30.5034 10.4594C31.0147 16.7314 28.3041 27.4231 28.3041 27.4231C28.3041 27.4231 32.7109 5.29599 43.18 11.9327C53.6492 18.5695 29.9515 40.7013 29.9515 40.7013C29.9515 40.7013 45.9394 35.5565 45.3713 42.1792C44.8032 48.8019 26.0804 54.7184 26.0804 54.7184" fill="#FF6179"/>
<path d="M17.5025 52.1414C17.5025 52.1414 -2.39701 41.4449 7.29306 36.6509C16.9831 31.857 22.0879 41.7957 22.0879 41.7957C22.0879 41.7957 11.3752 11.1844 28.7265 10.076C46.0777 8.9675 33.3118 36.6323 33.3118 36.6323C33.3118 36.6323 48.1066 24.8274 47.1084 34.42C46.1102 44.0126 24.133 52.1414 24.133 52.1414" stroke="#263238" stroke-miterlimit="10"/>
<path d="M41.3304 47.3521H4.14453L7.86149 72.6315H37.6134L41.3304 47.3521Z" fill="#263238"/>
</svg>
