<svg width="116" height="136" viewBox="0 0 116 136" fill="none" xmlns="http://www.w3.org/2000/svg">
<path d="M11.8774 99.4305C17.3267 99.4305 22.9224 102.38 28.6646 108.279C34.4653 114.12 39.2407 117.041 42.9907 117.041C49.436 117.041 54.0356 114.879 56.7896 110.557C59.6021 106.177 61.0083 101.212 61.0083 95.6632C61.0083 85.4417 56.7017 77.0894 48.0884 70.606C43.1665 66.9847 35.3735 63.2758 24.7095 59.4793V56.5881C31.9751 54.0765 37.1606 51.6526 40.2661 49.3162C45.5981 45.2861 48.2642 39.8249 48.2642 32.9327C48.2642 26.9751 46.4478 22.4485 42.8149 19.3528C39.2407 16.1988 34.6704 14.6218 29.104 14.6218C23.9478 14.6218 19.2896 16.4908 15.1294 20.2289C12.7856 22.3316 10.2954 25.4565 7.65869 29.6035L3.87939 27.5008C6.69189 21.5431 10.7056 16.228 15.9204 11.5553C24.2407 4.07907 33.9673 0.340942 45.1001 0.340942C52.7759 0.340942 59.4556 2.50205 65.1392 6.82426C70.8228 11.1465 73.9575 16.7829 74.5435 23.7334C74.5435 28.6981 73.4302 33.1372 71.2036 37.0505C69.0356 40.9055 65.4907 44.0887 60.5688 46.6003V47.9144C67.7759 50.7764 73.0493 55.0987 76.3892 60.8811C79.729 66.6051 81.3989 72.6503 81.3989 79.0168C81.3989 91.8666 76.4185 102.818 66.4575 111.871C56.0864 121.392 42.9614 126.152 27.0825 126.152C19.3481 126.152 12.9028 124.692 7.74658 121.772C2.59033 118.851 0.012207 114.996 0.012207 110.207C0.012207 107.637 0.92041 105.213 2.73682 102.935C4.61182 100.599 7.65869 99.4305 11.8774 99.4305Z" fill="#15C9FE"/>
<path d="M79.9888 108.269C79.9888 108.269 54.5697 72.4289 60.4327 63.315C66.2957 54.201 81.2938 70.5954 81.2938 70.5954C81.2938 70.5954 68.2532 37.1826 75.4308 22.5987C82.6084 8.01478 94.9773 22.5987 95.5818 32.9299C96.1863 43.2611 92.9814 60.8728 92.9814 60.8728C92.9814 60.8728 98.1918 24.4246 110.57 35.3567C122.949 46.2889 94.9293 82.7448 94.9293 82.7448C94.9293 82.7448 113.833 74.2702 113.161 85.1793C112.489 96.0883 90.3521 105.834 90.3521 105.834" fill="white"/>
<path d="M80.2095 101.589C80.2095 101.589 56.6808 83.9698 68.1381 76.0731C79.5954 68.1764 85.6311 84.5476 85.6311 84.5476C85.6311 84.5476 72.9647 34.1242 93.4803 32.2983C113.996 30.4724 98.9019 76.0423 98.9019 76.0423C98.9019 76.0423 116.395 56.5971 115.215 72.3983C114.034 88.1994 88.0492 101.589 88.0492 101.589" stroke="#263238" stroke-miterlimit="10"/>
<path d="M108.383 93.7003H64.415L68.8099 135.341H103.988L108.383 93.7003Z" fill="#263238"/>
</svg>
