<svg width="48" height="73" viewBox="0 0 48 73" fill="none" xmlns="http://www.w3.org/2000/svg">
<path d="M17.8018 56.1963C17.8018 56.1963 -3.69654 34.4387 1.26212 28.9057C6.22078 23.3728 18.9055 33.3256 18.9055 33.3256C18.9055 33.3256 7.87637 13.0412 13.9469 4.18753C20.0174 -4.66613 30.4784 4.18752 30.9897 10.4594C31.501 16.7314 28.7904 27.4231 28.7904 27.4231C28.7904 27.4231 33.1972 5.29599 43.6664 11.9327C54.1355 18.5695 30.4379 40.7013 30.4379 40.7013C30.4379 40.7013 46.4257 35.5565 45.8576 42.1792C45.2895 48.8019 26.5667 54.7184 26.5667 54.7184" fill="#FE941B"/>
<path d="M17.9889 52.1414C17.9889 52.1414 -1.91068 41.4449 7.77939 36.6509C17.4695 31.857 22.5742 41.7957 22.5742 41.7957C22.5742 41.7957 11.8616 11.1844 29.2128 10.076C46.564 8.9675 33.7981 36.6323 33.7981 36.6323C33.7981 36.6323 48.593 24.8274 47.5947 34.42C46.5965 44.0126 24.6194 52.1414 24.6194 52.1414" stroke="#263238" stroke-miterlimit="10"/>
<path d="M41.8167 47.3521H4.63086L8.34782 72.6315H38.0998L41.8167 47.3521Z" fill="#263238"/>
</svg>
