<svg width="53" height="41" viewBox="0 0 53 41" fill="none" xmlns="http://www.w3.org/2000/svg">
<path fill-rule="evenodd" clip-rule="evenodd" d="M2.49121 9.11644H11.2675C11.4501 9.11644 11.603 9.26383 11.603 9.44914V28.2826C11.603 28.4637 11.4544 28.6153 11.2675 28.6153H2.48696C1.3066 28.6111 0.342773 27.6551 0.342773 26.4843V11.2516C0.342773 10.0766 1.31084 9.11644 2.49121 9.11644ZM46.6828 0.811532C48.81 3.79321 50.4277 7.14549 51.4127 10.7378C52.3638 14.1996 52.729 17.8846 52.402 21.6622C52.1048 25.1156 51.2556 28.3963 49.9436 31.4243C48.844 33.9638 47.4173 36.3264 45.7274 38.4573C45.4642 38.8027 45.1967 39.1438 44.9207 39.4807L44.8995 39.4597C44.7679 39.6113 44.6362 39.7629 44.5004 39.9103L44.1013 40.3567L43.7106 39.9019L42.1269 38.0573L41.8339 37.7161L42.1311 37.3792C44.0588 35.1766 45.6553 32.6624 46.8271 29.9124C47.9566 27.2634 48.6911 24.3912 48.9459 21.3674C49.2346 18.0067 48.9119 14.7345 48.0712 11.6601C47.2942 8.81742 46.0756 6.13897 44.4876 3.71741L44.4791 3.70898C44.1904 3.29205 43.889 2.87934 43.5748 2.47925L43.6087 2.44977L43.5875 2.42029L43.9994 2.11707L44.3008 1.89387L45.4515 0.971566L45.4897 1.0221L45.9355 0.693613L46.3686 0.373545L46.6828 0.811532ZM46.445 2.32764C46.3389 2.16761 46.237 2.01178 46.1266 1.85596L46.1138 1.86439C46.2285 2.016 46.3389 2.17182 46.445 2.32764ZM39.7237 5.49883C41.2862 7.72246 42.4708 10.2198 43.1926 12.8899C43.889 15.4672 44.1522 18.2005 43.9144 21.0053C43.7106 23.3973 43.1502 25.6841 42.2882 27.8151C41.3966 30.0177 40.1865 32.0476 38.7217 33.8458L38.3226 34.3344L37.9107 33.8543L35.9066 32.4687L35.6264 32.1444L35.8896 31.8075C37.1252 30.2409 38.4414 28.4931 39.1887 26.6064C39.9105 24.7829 40.0804 22.8204 40.2545 20.761C40.4667 18.2931 40.2375 15.8968 39.6303 13.6437C39.0613 11.5212 38.1527 9.51652 36.9681 7.7014C36.811 7.4782 36.6497 7.25499 36.4798 7.036L36.5011 7.01915L36.3057 6.7412L36.7134 6.44219L38.9807 5.3767L39.418 5.05664L39.7237 5.49883ZM38.4881 6.73699L38.3565 6.53905L38.348 6.54326L38.4881 6.73699ZM13.5051 8.7711C18.6172 5.98736 23.7336 3.20361 28.8457 0.424082C29.3382 0.158763 29.8647 0.878915 29.8647 1.43482V35.9852C29.8647 36.5706 29.3042 37.3371 28.7905 37.0507L13.5051 28.4974C13.4075 28.4426 13.3013 28.4089 13.3013 28.2952V8.97325C13.3013 8.85954 13.4075 8.82585 13.5051 8.7711Z" fill="#F9F9F9"/>
</svg>
