<?xml version="1.0" standalone="no"?>
<!DOCTYPE svg PUBLIC "-//W3C//DTD SVG 20010904//EN"
 "http://www.w3.org/TR/2001/REC-SVG-20010904/DTD/svg10.dtd">
<svg version="1.0" xmlns="http://www.w3.org/2000/svg"
 width="512.000000pt" height="512.000000pt" viewBox="0 0 512.000000 512.000000"
 preserveAspectRatio="xMidYMid meet">

<g transform="translate(0.000000,512.000000) scale(0.100000,-0.100000)"
fill="#4FCB64" stroke="none">
<path d="M1300 4789 c-337 -26 -546 -123 -738 -343 -104 -118 -170 -257 -207
-433 -32 -156 -37 -377 -32 -1578 5 -1295 3 -1259 66 -1456 84 -262 317 -500
571 -584 216 -71 296 -75 1600 -75 1304 0 1384 4 1600 75 246 81 484 319 565
565 74 223 77 312 72 1725 -5 1295 -3 1259 -66 1456 -87 269 -319 503 -586
588 -204 66 -173 65 -1520 67 -671 1 -1267 -2 -1325 -7z m1369 -1165 c52 -37
51 -8 51 -1064 0 -1056 1 -1027 -51 -1064 -41 -28 -90 -21 -140 21 -24 21
-180 156 -348 301 l-303 262 -320 0 -320 0 -29 29 -29 29 0 424 c0 386 2 425
18 444 34 42 48 44 376 44 l316 0 328 283 c180 156 336 289 347 295 29 16 77
15 104 -4z m879 -8 c39 -21 148 -183 216 -321 69 -138 126 -306 152 -445 25
-137 30 -377 9 -522 -38 -273 -164 -578 -315 -767 -73 -89 -122 -101 -181 -41
-49 49 -42 84 46 214 118 177 195 362 233 560 23 125 23 397 0 522 -38 201
-119 393 -243 575 -69 102 -76 117 -71 149 11 71 92 111 154 76z m-254 -267
c39 -31 102 -128 157 -243 171 -360 167 -772 -14 -1131 -44 -88 -103 -180
-135 -208 -46 -42 -131 -16 -158 48 -16 40 -10 64 37 131 52 75 126 244 149
338 77 311 22 616 -161 898 -34 52 -40 69 -35 98 12 76 102 115 160 69z m-274
-285 c42 -36 114 -188 141 -299 46 -186 25 -408 -55 -581 -46 -98 -72 -133
-112 -150 -29 -12 -39 -12 -66 -1 -80 34 -90 89 -35 194 109 209 108 446 -4
664 -48 94 -48 131 2 173 41 34 88 34 129 0z"/>
</g>
</svg>
