<svg width="268" height="189" viewBox="0 0 268 189" fill="none" xmlns="http://www.w3.org/2000/svg">
<path d="M203.211 45.865C232.364 56.4129 250.317 89.9024 233.985 128.441C227.421 143.931 239.488 164.186 248.458 174.805C233.631 167.695 240.041 170.053 218.48 156.702C191.529 140.013 154.374 181.107 95.6547 172.37C36.9357 163.633 27.2036 117.05 31.2107 97.1872C37.571 65.6597 59.4599 48.237 85.9204 41.863C119.263 33.8313 165.399 32.1837 203.211 45.865Z" fill="#15C9FE"/>
<path d="M197.254 46.6434C226.163 60.8164 246.394 90.091 234.409 139.864C230.443 156.332 248.761 171.743 252.059 179.607C248.947 173.099 235.882 168.129 214.329 154.7C187.388 137.915 155.234 172.615 96.5168 163.859C37.7997 155.103 28.0575 104.492 34.812 85.2152C43.4987 60.4233 53.0943 46.8088 95.9494 36.3871C129.3 28.2768 161.118 28.9273 197.254 46.6434Z" stroke="black"/>
<path d="M98.1931 118.98C97.4304 118.98 96.7221 118.803 96.0683 118.449C95.4418 118.095 94.8969 117.618 94.4338 117.019C94.0252 116.447 93.6575 115.725 93.3306 114.853C93.0037 113.954 92.7585 113.028 92.595 112.075C92.2681 110.467 92.0502 108.356 91.9413 105.741C91.914 105.114 91.9004 104.038 91.9004 102.513V99.9386C91.9276 99.2031 91.9413 98.4404 91.9413 97.6504C91.9413 96.0431 92.0366 94.7764 92.2273 93.8502C92.1456 93.4416 92.1047 93.0193 92.1047 92.5835C92.1047 90.949 92.7176 89.6278 93.9435 88.6199C95.1693 87.6119 96.7221 87.108 98.6017 87.108C99.31 87.108 99.9638 87.2987 100.563 87.68C101.162 88.0614 101.462 88.5381 101.462 89.1102C101.462 89.3826 101.353 89.6006 101.135 89.764C100.917 89.9275 100.645 90.0092 100.318 90.0092C100.046 90.0092 99.7459 89.9683 99.419 89.8866C99.1193 89.8049 98.9286 89.6823 98.8469 89.5188H98.3157V89.4371C97.3078 89.4371 96.4633 89.655 95.7823 90.0909C95.2919 90.445 94.9106 91.0307 94.6381 91.848C94.5292 92.1476 94.4475 92.529 94.393 92.9921C94.3385 93.4552 94.3112 93.8774 94.3112 94.2588C94.284 94.4767 94.2704 94.9126 94.2704 95.5664L94.3521 96.9966L94.393 98.3859C94.393 98.7945 94.3385 99.2712 94.2295 99.816C94.0933 100.497 94.0252 100.974 94.0252 101.246V102.227C94.0252 103.289 94.0661 104.747 94.1478 106.599C94.175 108.152 94.3521 109.705 94.679 111.257C94.9242 112.701 95.3873 113.927 96.0683 114.935C96.7221 115.97 97.6074 116.488 98.7243 116.488C99.1874 116.488 99.7595 116.243 100.441 115.752C101.176 115.262 101.694 115.017 101.993 115.017C102.375 115.017 102.77 115.221 103.178 115.63C103.178 116.638 102.797 117.414 102.034 117.959C101.326 118.449 100.481 118.762 99.5007 118.899C98.9559 118.953 98.52 118.98 98.1931 118.98Z" fill="white"/>
<path d="M114.412 118.735C113.976 118.735 113.676 118.653 113.513 118.49C113.377 118.326 113.281 118.013 113.227 117.55L112.859 109.827L112.9 108.683L112.941 104.883C112.941 100.933 112.927 97.9636 112.9 95.975C112.873 95.3212 112.859 93.8366 112.859 91.5211L112.9 89.8866C112.9 89.5869 112.845 89.4099 112.736 89.3554C112.627 89.2737 112.328 89.2056 111.837 89.1511C111.293 89.0966 110.898 89.0694 110.653 89.0694C109.89 89.0694 109.168 89.2192 108.487 89.5188C108.323 89.9002 108.228 90.6902 108.201 91.8888C108.174 93.0874 108.16 94.5585 108.16 96.3019C108.133 96.7105 108.146 98.4948 108.201 101.655V104.965C108.201 105.482 108.255 106.231 108.364 107.212C108.473 108.356 108.528 109.228 108.528 109.827C108.528 110.209 108.5 110.699 108.446 111.298L108.405 112.565L108.609 117.223C108.609 117.605 108.5 117.891 108.283 118.081C108.065 118.272 107.765 118.354 107.384 118.326C106.621 118.326 106.239 117.959 106.239 117.223C106.321 114.363 106.362 111.489 106.362 108.601V106.681C106.308 104.556 106.253 102.976 106.199 101.941C106.144 101.124 106.09 99.9522 106.035 98.4267C105.953 96.2747 105.858 93.1147 105.749 88.9468C105.749 88.4837 105.844 88.1431 106.035 87.9252C106.253 87.68 106.58 87.5438 107.016 87.5166C109.849 87.4621 111.987 87.4349 113.431 87.4349C113.949 87.4349 114.371 87.5983 114.698 87.9252C115.052 88.2521 115.175 88.6471 115.066 89.1102C114.957 89.764 114.902 90.5131 114.902 91.3576C114.902 91.9842 114.916 92.4609 114.943 92.7878C114.943 93.033 114.943 93.3326 114.943 93.6868C114.97 94.0409 114.97 94.4495 114.943 94.9126C114.916 95.5119 114.902 96.2611 114.902 97.16C114.848 99.1214 114.78 100.511 114.698 101.328C114.725 101.954 114.752 102.962 114.78 104.352C114.834 105.714 114.889 106.681 114.943 107.253C114.861 107.77 114.82 108.302 114.82 108.847C114.82 109.473 114.902 110.44 115.066 111.748C115.175 112.701 115.243 113.45 115.27 113.995L115.311 114.976C115.365 115.848 115.392 116.488 115.392 116.896L115.352 117.795C115.379 118.422 115.066 118.735 114.412 118.735Z" fill="white"/>
<path d="M121.916 118.531C121.617 118.531 121.372 118.408 121.181 118.163C121.017 117.891 120.936 117.564 120.936 117.182L121.017 110.318C121.099 106.994 121.14 104.42 121.14 102.595C121.14 96.2474 120.786 91.3849 120.078 88.0069C120.486 87.3804 121.004 87.0671 121.63 87.0671C122.638 87.0671 123.551 87.2987 124.368 87.7618C125.213 88.1976 125.907 88.7969 126.452 89.5597C127.514 91.1397 128.046 92.9104 128.046 94.8717C128.046 96.9148 127.61 98.74 126.738 100.347C125.866 101.954 124.6 103.208 122.938 104.107L123.02 108.234L123.101 110.399C123.129 110.862 123.142 111.53 123.142 112.402C123.224 114.227 123.265 115.711 123.265 116.855C123.265 117.373 123.156 117.782 122.938 118.081C122.72 118.381 122.379 118.531 121.916 118.531ZM122.856 102.145C123.919 101.137 124.695 100.088 125.185 98.9988C125.703 97.8819 125.962 96.6288 125.962 95.2395V95.1986C125.962 94.5721 125.894 93.7821 125.757 92.8287C125.676 92.5018 125.526 92.1749 125.308 91.848C125.09 91.5211 124.967 91.3304 124.94 91.2759C124.749 91.0035 124.245 90.5812 123.428 90.0092L122.366 89.2328C122.366 90.6221 122.448 92.7742 122.611 95.689L122.856 102.145Z" fill="white"/>
<path d="M133.892 118.735C133.484 118.735 133.116 118.558 132.789 118.204C132.462 117.85 132.312 117.455 132.34 117.019C132.421 115.63 132.462 114.213 132.462 112.769C132.462 111.516 132.435 109.609 132.381 107.049C132.353 105.877 132.258 104.12 132.094 101.777C132.067 101.314 132.026 100.647 131.972 99.7752C131.917 98.8762 131.877 98.0862 131.849 97.4052C131.822 96.9421 131.808 96.2474 131.808 95.3212L131.849 91.1533C131.849 90.9081 131.822 90.5676 131.768 90.1318L131.727 89.1919C131.727 88.7561 131.836 88.4156 132.054 88.1704C132.299 87.9252 132.612 87.8026 132.993 87.8026C133.783 87.8026 134.233 88.1704 134.342 88.9059C134.451 89.7231 134.505 90.3361 134.505 90.7447C134.505 91.235 134.464 91.7254 134.383 92.2157C134.247 93.2236 134.178 94.1362 134.178 94.9535L134.219 96.1793C134.328 98.6855 134.383 100.987 134.383 103.085V107.948C134.383 108.792 134.41 110.059 134.464 111.748L134.71 111.789L135.2 110.195C136.017 107.444 136.794 104.937 137.529 102.676C137.91 101.614 138.319 99.9659 138.755 97.7321C138.946 96.7514 139.123 95.9614 139.286 95.3621L141.329 88.0069C141.52 87.6528 141.752 87.394 142.024 87.2306C142.296 87.0399 142.569 86.9582 142.841 86.9854C143.168 87.0671 143.481 87.2987 143.781 87.68C144.081 88.0342 144.217 88.3883 144.19 88.7425C144.162 89.6959 144.081 90.6902 143.944 91.7254C143.699 95.1305 143.563 97.269 143.536 98.1407C143.427 101.791 143.372 104.529 143.372 106.354C143.372 107.226 143.44 108.601 143.577 110.481C143.713 112.333 143.795 113.559 143.822 114.159L143.985 116.202C144.013 116.774 143.876 117.223 143.577 117.55C143.277 117.877 142.882 118.04 142.392 118.04C142.092 118.04 141.833 117.945 141.615 117.754C141.397 117.536 141.275 117.25 141.248 116.896V116.529L141.288 108.315V106.844C141.234 105.428 141.179 103.248 141.125 100.306V98.631V95.9342C141.098 95.9069 141.03 95.8933 140.921 95.8933C140.757 95.9205 140.512 96.5471 140.185 97.7729C139.885 98.9716 139.599 100.184 139.327 101.41C139.055 102.608 138.878 103.371 138.796 103.698C138.551 104.869 138.401 105.537 138.346 105.7C137.584 108.288 136.971 110.454 136.508 112.197C136.044 113.913 135.663 115.657 135.363 117.428C135.2 118.299 134.71 118.735 133.892 118.735Z" fill="white"/>
<path d="M156.489 118.939C156.135 118.939 155.862 118.803 155.671 118.531C155.508 118.286 155.426 117.972 155.426 117.591C155.426 111.898 155.317 107.089 155.099 103.167C154.446 103.058 153.983 103.003 153.71 103.003C152.593 103.003 151.79 103.099 151.299 103.289C151.299 104.815 151.422 107.117 151.667 110.195C151.885 113.464 151.994 115.779 151.994 117.141C151.994 117.414 151.912 117.673 151.749 117.918C151.585 118.136 151.381 118.245 151.136 118.245C150.782 118.245 150.455 117.618 150.155 116.365C149.719 114.513 149.365 110.631 149.093 104.719C148.902 100.715 148.807 96.4109 148.807 91.8071C148.779 90.9626 148.766 89.764 148.766 88.2113C148.766 87.7209 148.997 87.4757 149.46 87.4757C149.733 87.4757 150.005 87.5438 150.278 87.68C150.577 87.8163 150.795 87.9661 150.932 88.1295C150.823 89.0012 150.768 90.0228 150.768 91.1942C150.768 92.3383 150.823 93.7276 150.932 95.3621C151.013 97.2417 151.054 98.6583 151.054 99.6117V100.347C151.027 100.565 151.013 100.824 151.013 101.124C151.013 101.396 151.04 101.75 151.095 102.186C151.258 102.186 151.531 102.172 151.912 102.145C152.294 102.118 152.675 102.077 153.056 102.023C153.955 101.941 154.623 101.9 155.059 101.9C155.059 99.53 155.031 97.3371 154.977 95.3212L154.895 88.4973V87.394C155.249 87.394 155.563 87.4621 155.835 87.5983C156.107 87.7073 156.312 87.8571 156.448 88.0478C156.693 88.3475 156.843 88.865 156.897 89.6006V90.5404C156.897 92.8831 157.034 97.3643 157.306 103.984C157.551 109.977 157.674 114.472 157.674 117.468C157.674 117.85 157.551 118.19 157.306 118.49C157.088 118.79 156.816 118.939 156.489 118.939Z" fill="white"/>
<path d="M165.89 118.613C165.482 118.613 165.155 118.422 164.909 118.04C164.692 117.632 164.583 117.141 164.583 116.569C164.583 115.67 164.637 114.567 164.746 113.26L164.828 112.197L164.909 110.032C164.909 109.078 164.814 106.953 164.623 103.657C164.433 100.361 164.337 98.236 164.337 97.2826C164.337 97.2009 164.337 97.051 164.337 96.8331C164.365 96.5879 164.378 96.2202 164.378 95.7298C164.406 95.185 164.419 94.5176 164.419 93.7276C164.419 91.739 164.283 90.4723 164.011 89.9275C163.847 89.9275 163.493 89.9683 162.948 90.05L161.804 90.1318C161.45 90.1318 161.137 90.0364 160.864 89.8457C160.592 89.6278 160.456 89.3554 160.456 89.0285C160.456 88.7016 160.782 88.4156 161.436 88.1704C162.39 87.8435 164.011 87.6119 166.299 87.4757C167.225 87.4213 167.783 87.394 167.974 87.394C168.301 87.394 168.601 87.503 168.873 87.7209C169.146 87.9388 169.282 88.2113 169.282 88.5381C169.282 88.865 169.159 89.1375 168.914 89.3554C168.696 89.5461 168.41 89.6414 168.056 89.6414L167.32 89.6006C167.102 89.5733 166.857 89.5597 166.585 89.5597H166.176C166.367 91.4121 166.462 93.0874 166.462 94.5857L166.421 97.2009C166.394 97.9909 166.381 98.8762 166.381 99.8569C166.381 101.164 166.435 102.731 166.544 104.556C166.68 106.817 166.748 108.383 166.748 109.255C166.748 110.29 166.803 111.516 166.912 112.933C167.021 114.377 167.075 115.602 167.075 116.61C167.075 117.945 166.68 118.613 165.89 118.613Z" fill="white"/>
<path d="M175.637 30.8991L219.049 114.841" stroke="#263238" stroke-linecap="round" stroke-linejoin="round"/>
<path d="M178.839 37.2124C178.839 37.2124 185.34 41.3157 198.61 38.1779C211.881 35.0402 228.657 26.888 238.322 32.56C247.988 38.2319 247.504 37.5166 251.423 41.7423C253.676 44.2372 256.684 45.9273 259.987 46.5555C259.987 46.5555 256.592 49.3909 253.015 48.1012C249.438 46.8115 243.808 39.9947 240.121 40.884C236.433 41.7733 229.882 43.6156 229.882 43.6156C229.882 43.6156 237.929 44.5499 239.82 46.4582C241.711 48.3666 245.477 53.2563 248.419 56.0376C249.946 57.6129 251.929 58.6697 254.089 59.0594C254.089 59.0594 249.357 62.2579 245.685 59.9694C242.014 57.681 240.516 52.3209 233.561 52.2316C226.607 52.1423 222.498 57.0638 214.692 62.8608C206.887 68.6579 196.076 69.0905 196.076 69.0905L178.839 37.2124Z" fill="#263238"/>
<path d="M0.976639 118.469C0.976639 118.469 63.5246 65.2532 117.988 46.9498" stroke="#737373" stroke-linecap="round" stroke-linejoin="round"/>
<path d="M21.098 135.52C21.098 135.52 73.3294 72.9551 137.085 53.8846" stroke="#737373" stroke-linecap="round" stroke-linejoin="round"/>
</svg>
