<svg width="225" height="140" viewBox="0 0 225 140" fill="none" xmlns="http://www.w3.org/2000/svg">
<path d="M175.02 27.5552C198.003 35.871 212.157 62.2735 199.281 92.6563C194.106 104.868 203.619 120.838 210.692 129.209C199.002 123.604 204.055 125.463 187.057 114.937C165.809 101.779 136.517 134.177 90.2241 127.289C43.9312 120.401 36.2586 83.676 39.4177 68.0167C44.432 43.161 61.6888 29.4253 82.5498 24.4001C108.836 18.0681 145.209 16.7692 175.02 27.5552Z" fill="#15C9FE"/>
<path d="M170.323 28.169C193.114 39.3426 209.064 62.4222 199.615 101.662C196.489 114.645 210.93 126.795 213.53 132.995C211.077 127.864 200.776 123.946 183.784 113.359C162.544 100.126 137.195 127.483 90.9036 120.58C44.6123 113.676 36.9317 73.7761 42.2568 58.5782C49.1052 39.0327 56.6703 28.2993 90.4563 20.083C116.749 13.689 141.834 14.2019 170.323 28.169Z" stroke="black"/>
<path d="M97.5987 81.5455C97.076 81.5455 96.5907 81.4242 96.1427 81.1815C95.7134 80.9389 95.34 80.6122 95.0227 80.2015C94.7427 79.8095 94.4907 79.3149 94.2667 78.7175C94.0427 78.1015 93.8747 77.4669 93.7627 76.8135C93.5387 75.7122 93.3894 74.2655 93.3147 72.4735C93.296 72.0442 93.2867 71.3069 93.2867 70.2615V68.4975C93.3054 67.9935 93.3147 67.4709 93.3147 66.9295C93.3147 65.8282 93.38 64.9602 93.5107 64.3255C93.4547 64.0455 93.4267 63.7562 93.4267 63.4575C93.4267 62.3375 93.8467 61.4322 94.6867 60.7415C95.5267 60.0509 96.5907 59.7055 97.8787 59.7055C98.364 59.7055 98.812 59.8362 99.2227 60.0975C99.6334 60.3589 99.8387 60.6855 99.8387 61.0775C99.8387 61.2642 99.764 61.4135 99.6147 61.5255C99.4654 61.6375 99.2787 61.6935 99.0547 61.6935C98.868 61.6935 98.6627 61.6655 98.4387 61.6095C98.2334 61.5535 98.1027 61.4695 98.0467 61.3575H97.6827V61.3015C96.992 61.3015 96.4134 61.4509 95.9467 61.7495C95.6107 61.9922 95.3494 62.3935 95.1627 62.9535C95.088 63.1589 95.032 63.4202 94.9947 63.7375C94.9574 64.0549 94.9387 64.3442 94.9387 64.6055C94.92 64.7549 94.9107 65.0535 94.9107 65.5015L94.9667 66.4815L94.9947 67.4335C94.9947 67.7135 94.9574 68.0402 94.8827 68.4135C94.7894 68.8802 94.7427 69.2069 94.7427 69.3935V70.0655C94.7427 70.7935 94.7707 71.7922 94.8267 73.0615C94.8454 74.1255 94.9667 75.1895 95.1907 76.2535C95.3587 77.2429 95.676 78.0829 96.1427 78.7735C96.5907 79.4829 97.1974 79.8375 97.9627 79.8375C98.28 79.8375 98.672 79.6695 99.1387 79.3335C99.6427 78.9975 99.9974 78.8295 100.203 78.8295C100.464 78.8295 100.735 78.9695 101.015 79.2495C101.015 79.9402 100.753 80.4722 100.231 80.8455C99.7454 81.1815 99.1667 81.3962 98.4947 81.4895C98.1214 81.5269 97.8227 81.5455 97.5987 81.5455ZM108.712 81.3775C108.414 81.3775 108.208 81.3215 108.096 81.2095C108.003 81.0975 107.938 80.8829 107.9 80.5655L107.648 75.2735L107.676 74.4895L107.704 71.8855C107.704 69.1789 107.695 67.1442 107.676 65.7815C107.658 65.3335 107.648 64.3162 107.648 62.7295L107.676 61.6095C107.676 61.4042 107.639 61.2829 107.564 61.2455C107.49 61.1895 107.284 61.1429 106.948 61.1055C106.575 61.0682 106.304 61.0495 106.136 61.0495C105.614 61.0495 105.119 61.1522 104.652 61.3575C104.54 61.6189 104.475 62.1602 104.456 62.9815C104.438 63.8029 104.428 64.8109 104.428 66.0055C104.41 66.2855 104.419 67.5082 104.456 69.6735V71.9415C104.456 72.2962 104.494 72.8095 104.568 73.4815C104.643 74.2655 104.68 74.8629 104.68 75.2735C104.68 75.5349 104.662 75.8709 104.624 76.2815L104.596 77.1495L104.736 80.3415C104.736 80.6029 104.662 80.7989 104.512 80.9295C104.363 81.0602 104.158 81.1162 103.896 81.0975C103.374 81.0975 103.112 80.8455 103.112 80.3415C103.168 78.3815 103.196 76.4122 103.196 74.4335V73.1175C103.159 71.6615 103.122 70.5789 103.084 69.8695C103.047 69.3095 103.01 68.5069 102.972 67.4615C102.916 65.9869 102.851 63.8215 102.776 60.9655C102.776 60.6482 102.842 60.4149 102.972 60.2655C103.122 60.0975 103.346 60.0042 103.644 59.9855C105.586 59.9482 107.051 59.9295 108.04 59.9295C108.395 59.9295 108.684 60.0415 108.908 60.2655C109.151 60.4895 109.235 60.7602 109.16 61.0775C109.086 61.5255 109.048 62.0389 109.048 62.6175C109.048 63.0469 109.058 63.3735 109.076 63.5975C109.076 63.7655 109.076 63.9709 109.076 64.2135C109.095 64.4562 109.095 64.7362 109.076 65.0535C109.058 65.4642 109.048 65.9775 109.048 66.5935C109.011 67.9375 108.964 68.8895 108.908 69.4495C108.927 69.8789 108.946 70.5695 108.964 71.5215C109.002 72.4549 109.039 73.1175 109.076 73.5095C109.02 73.8642 108.992 74.2282 108.992 74.6015C108.992 75.0309 109.048 75.6935 109.16 76.5895C109.235 77.2429 109.282 77.7562 109.3 78.1295L109.328 78.8015C109.366 79.3989 109.384 79.8375 109.384 80.1175L109.356 80.7335C109.375 81.1629 109.16 81.3775 108.712 81.3775ZM113.855 81.2375C113.649 81.2375 113.481 81.1535 113.351 80.9855C113.239 80.7989 113.183 80.5749 113.183 80.3135L113.239 75.6095C113.295 73.3322 113.323 71.5682 113.323 70.3175C113.323 65.9682 113.08 62.6362 112.595 60.3215C112.875 59.8922 113.229 59.6775 113.659 59.6775C114.349 59.6775 114.975 59.8362 115.535 60.1535C116.113 60.4522 116.589 60.8629 116.963 61.3855C117.691 62.4682 118.055 63.6815 118.055 65.0255C118.055 66.4255 117.756 67.6762 117.159 68.7775C116.561 69.8789 115.693 70.7375 114.555 71.3535L114.611 74.1815L114.667 75.6655C114.685 75.9829 114.695 76.4402 114.695 77.0375C114.751 78.2882 114.779 79.3055 114.779 80.0895C114.779 80.4442 114.704 80.7242 114.555 80.9295C114.405 81.1349 114.172 81.2375 113.855 81.2375ZM114.499 70.0095C115.227 69.3189 115.759 68.6002 116.095 67.8535C116.449 67.0882 116.627 66.2295 116.627 65.2775V65.2495C116.627 64.8202 116.58 64.2789 116.487 63.6255C116.431 63.4015 116.328 63.1775 116.179 62.9535C116.029 62.7295 115.945 62.5989 115.927 62.5615C115.796 62.3749 115.451 62.0855 114.891 61.6935L114.163 61.1615C114.163 62.1135 114.219 63.5882 114.331 65.5855L114.499 70.0095ZM122.061 81.3775C121.781 81.3775 121.529 81.2562 121.305 81.0135C121.081 80.7709 120.978 80.5002 120.997 80.2015C121.053 79.2495 121.081 78.2789 121.081 77.2895C121.081 76.4309 121.062 75.1242 121.025 73.3695C121.006 72.5669 120.941 71.3629 120.829 69.7575C120.81 69.4402 120.782 68.9829 120.745 68.3855C120.708 67.7695 120.68 67.2282 120.661 66.7615C120.642 66.4442 120.633 65.9682 120.633 65.3335L120.661 62.4775C120.661 62.3095 120.642 62.0762 120.605 61.7775L120.577 61.1335C120.577 60.8349 120.652 60.6015 120.801 60.4335C120.969 60.2655 121.184 60.1815 121.445 60.1815C121.986 60.1815 122.294 60.4335 122.369 60.9375C122.444 61.4975 122.481 61.9175 122.481 62.1975C122.481 62.5335 122.453 62.8695 122.397 63.2055C122.304 63.8962 122.257 64.5215 122.257 65.0815L122.285 65.9215C122.36 67.6389 122.397 69.2162 122.397 70.6535V73.9855C122.397 74.5642 122.416 75.4322 122.453 76.5895L122.621 76.6175L122.957 75.5255C123.517 73.6402 124.049 71.9229 124.553 70.3735C124.814 69.6455 125.094 68.5162 125.393 66.9855C125.524 66.3135 125.645 65.7722 125.757 65.3615L127.157 60.3215C127.288 60.0789 127.446 59.9015 127.633 59.7895C127.82 59.6589 128.006 59.6029 128.193 59.6215C128.417 59.6775 128.632 59.8362 128.837 60.0975C129.042 60.3402 129.136 60.5829 129.117 60.8255C129.098 61.4789 129.042 62.1602 128.949 62.8695C128.781 65.2029 128.688 66.6682 128.669 67.2655C128.594 69.7669 128.557 71.6429 128.557 72.8935C128.557 73.4909 128.604 74.4335 128.697 75.7215C128.79 76.9909 128.846 77.8309 128.865 78.2415L128.977 79.6415C128.996 80.0335 128.902 80.3415 128.697 80.5655C128.492 80.7895 128.221 80.9015 127.885 80.9015C127.68 80.9015 127.502 80.8362 127.353 80.7055C127.204 80.5562 127.12 80.3602 127.101 80.1175V79.8655L127.129 74.2375V73.2295C127.092 72.2589 127.054 70.7655 127.017 68.7495V67.6015V65.7535C126.998 65.7349 126.952 65.7255 126.877 65.7255C126.765 65.7442 126.597 66.1735 126.373 67.0135C126.168 67.8349 125.972 68.6655 125.785 69.5055C125.598 70.3269 125.477 70.8495 125.421 71.0735C125.253 71.8762 125.15 72.3335 125.113 72.4455C124.59 74.2189 124.17 75.7029 123.853 76.8975C123.536 78.0735 123.274 79.2682 123.069 80.4815C122.957 81.0789 122.621 81.3775 122.061 81.3775ZM137.545 81.5175C137.302 81.5175 137.116 81.4242 136.985 81.2375C136.873 81.0695 136.817 80.8549 136.817 80.5935C136.817 76.6922 136.742 73.3975 136.593 70.7095C136.145 70.6349 135.828 70.5975 135.641 70.5975C134.876 70.5975 134.325 70.6629 133.989 70.7935C133.989 71.8389 134.073 73.4162 134.241 75.5255C134.39 77.7655 134.465 79.3522 134.465 80.2855C134.465 80.4722 134.409 80.6495 134.297 80.8175C134.185 80.9669 134.045 81.0415 133.877 81.0415C133.634 81.0415 133.41 80.6122 133.205 79.7535C132.906 78.4842 132.664 75.8242 132.477 71.7735C132.346 69.0295 132.281 66.0802 132.281 62.9255C132.262 62.3469 132.253 61.5255 132.253 60.4615C132.253 60.1255 132.412 59.9575 132.729 59.9575C132.916 59.9575 133.102 60.0042 133.289 60.0975C133.494 60.1909 133.644 60.2935 133.737 60.4055C133.662 61.0029 133.625 61.7029 133.625 62.5055C133.625 63.2895 133.662 64.2415 133.737 65.3615C133.793 66.6495 133.821 67.6202 133.821 68.2735V68.7775C133.802 68.9269 133.793 69.1042 133.793 69.3095C133.793 69.4962 133.812 69.7389 133.849 70.0375C133.961 70.0375 134.148 70.0282 134.409 70.0095C134.67 69.9909 134.932 69.9629 135.193 69.9255C135.809 69.8695 136.266 69.8415 136.565 69.8415C136.565 68.2175 136.546 66.7149 136.509 65.3335L136.453 60.6575V59.9015C136.696 59.9015 136.91 59.9482 137.097 60.0415C137.284 60.1162 137.424 60.2189 137.517 60.3495C137.685 60.5549 137.788 60.9095 137.825 61.4135V62.0575C137.825 63.6629 137.918 66.7335 138.105 71.2695C138.273 75.3762 138.357 78.4562 138.357 80.5095C138.357 80.7709 138.273 81.0042 138.105 81.2095C137.956 81.4149 137.769 81.5175 137.545 81.5175ZM143.987 81.2935C143.707 81.2935 143.483 81.1629 143.315 80.9015C143.166 80.6215 143.091 80.2855 143.091 79.8935C143.091 79.2775 143.128 78.5215 143.203 77.6255L143.259 76.8975L143.315 75.4135C143.315 74.7602 143.25 73.3042 143.119 71.0455C142.988 68.7869 142.923 67.3309 142.923 66.6775C142.923 66.6215 142.923 66.5189 142.923 66.3695C142.942 66.2015 142.951 65.9495 142.951 65.6135C142.97 65.2402 142.979 64.7829 142.979 64.2415C142.979 62.8789 142.886 62.0109 142.699 61.6375C142.587 61.6375 142.344 61.6655 141.971 61.7215L141.187 61.7775C140.944 61.7775 140.73 61.7122 140.543 61.5815C140.356 61.4322 140.263 61.2455 140.263 61.0215C140.263 60.7975 140.487 60.6015 140.935 60.4335C141.588 60.2095 142.699 60.0509 144.267 59.9575C144.902 59.9202 145.284 59.9015 145.415 59.9015C145.639 59.9015 145.844 59.9762 146.031 60.1255C146.218 60.2749 146.311 60.4615 146.311 60.6855C146.311 60.9095 146.227 61.0962 146.059 61.2455C145.91 61.3762 145.714 61.4415 145.471 61.4415L144.967 61.4135C144.818 61.3949 144.65 61.3855 144.463 61.3855H144.183C144.314 62.6549 144.379 63.8029 144.379 64.8295L144.351 66.6215C144.332 67.1629 144.323 67.7695 144.323 68.4415C144.323 69.3375 144.36 70.4109 144.435 71.6615C144.528 73.2109 144.575 74.2842 144.575 74.8815C144.575 75.5909 144.612 76.4309 144.687 77.4015C144.762 78.3909 144.799 79.2309 144.799 79.9215C144.799 80.8362 144.528 81.2935 143.987 81.2935Z" fill="white"/>
<path d="M148.31 24.0217L181.69 88.5666" stroke="#263238" stroke-linecap="round" stroke-linejoin="round"/>
<path d="M150.771 28.8762C150.771 28.8762 155.77 32.0313 165.974 29.6186C176.178 27.2059 189.077 20.9376 196.509 25.2989C203.941 29.6601 203.569 29.1101 206.582 32.3593C208.315 34.2777 210.628 35.5772 213.167 36.0603C213.167 36.0603 210.557 38.2404 207.807 37.2488C205.056 36.2571 200.727 31.0156 197.892 31.6993C195.056 32.3831 190.019 33.7997 190.019 33.7997C190.019 33.7997 196.206 34.5181 197.661 35.9855C199.115 37.4528 202.01 41.2127 204.273 43.3512C205.447 44.5625 206.972 45.3751 208.632 45.6747C208.632 45.6747 204.994 48.1341 202.171 46.3745C199.348 44.6149 198.196 40.4934 192.848 40.4247C187.501 40.3561 184.342 44.1403 178.339 48.5978C172.337 53.0552 164.025 53.3879 164.025 53.3879L150.771 28.8762Z" fill="#263238"/>
<path d="M0.938887 90.5872C0.938887 90.5872 49.0333 49.6683 90.9113 35.5945" stroke="#737373" stroke-linecap="round" stroke-linejoin="round"/>
<path d="M16.4091 103.698C16.4091 103.698 56.5708 55.5905 105.594 40.9268" stroke="#737373" stroke-linecap="round" stroke-linejoin="round"/>
</svg>
