<svg width="206" height="75" viewBox="0 0 206 75" fill="none" xmlns="http://www.w3.org/2000/svg">
<path d="M116.727 0.847606C110.885 2.20473 107.983 5.28336 107.954 10.156C107.921 15.83 111.1 18.4354 121.291 21.0923C126.245 22.3828 127.928 24.6197 125.585 26.7924C122.926 29.257 117.722 27.6586 117.066 24.1735C116.742 22.4343 116.758 22.4393 111.3 22.743L106.462 23.0112L106.695 24.5345C107.054 26.8827 108.991 30.5079 110.642 31.9215C115.536 36.1084 129.013 35.6791 133.627 31.186L134.976 29.8719L135.235 31.3994C136.184 37.0194 141.892 42.2994 148.458 43.6329L150.567 44.0623L149.321 45.6943C145.21 51.079 145.094 62.0912 149.088 67.8107C155.202 76.5616 172.405 76.3077 178.065 67.3839L179.119 65.7231V73.6441H205.781V65.1277H189.858V40.3164H179.119L179.098 44.112C179.079 47.2126 178.996 47.7752 178.635 47.1839C176.595 43.837 172.622 41.0562 168.727 40.2523L166.627 39.818L168.758 38.2171C175.386 33.2356 179.514 24.1473 178.453 16.8716C175.666 -2.24873 148.124 -2.54479 137.634 16.4305C136.958 17.6518 136.382 18.691 136.353 18.7391C136.324 18.7871 135.38 17.9327 134.253 16.8438C131.917 14.5808 130.04 13.7525 123.661 12.1727C117.726 10.7017 116.511 9.67017 118.506 7.7935C120.404 6.00958 124.536 7.16512 125.466 9.74102C126.012 11.25 125.912 11.2356 132.222 10.8181L135.871 10.576L135.638 9.12192C134.561 2.38523 126.083 -1.32515 116.725 0.850137L116.727 0.847606ZM3.22954 17.7261V34.3886H13.9685V21.0569H15.0599C16.7822 21.0569 17.8239 22.3238 21.1446 28.4633L24.2502 34.2014L30.2211 34.3034C33.5047 34.3599 36.1894 34.306 36.1894 34.1845C36.1894 32.3078 29.4974 21.4786 27.6401 20.3501L26.6221 19.731L28.6767 18.6564C36.294 14.6685 34.8517 3.24388 26.504 1.45321C25.4505 1.22801 20.1156 1.05931 13.9499 1.05931H3.22954V17.7218V17.7261ZM165.82 3.96419C182.579 8.33835 181.045 31.8523 163.438 40.4371C145.499 49.1837 129.512 34.8247 138.039 17.6257C143.014 7.59107 155.738 1.33344 165.817 3.96672L165.82 3.96419ZM21.3681 8.57367C25.1401 10.4807 22.6375 14.0013 17.2951 14.305L13.9693 14.4948V8.09714L17.2099 8.10221C19.0646 8.10474 20.8418 8.3063 21.3681 8.57199V8.57367ZM159.892 11.5199C156.943 12.3026 153.945 15.2826 153.942 17.4317C153.937 20.943 156.744 22.209 161.161 20.6891C163.862 19.7596 164.551 19.7596 165.051 20.6917C165.898 22.2765 163.122 23.8918 161.502 22.7556C160.688 22.1863 157.687 23.982 157.657 25.0566C157.61 26.6743 161.704 27.2867 164.211 26.0367C172.175 22.0682 169.914 13.5492 161.654 16.3985C158.352 17.5371 157.643 17.5869 157.643 16.6709C157.643 15.2336 159.889 14.1945 160.869 15.1737C161.269 15.5744 164.306 13.5611 164.306 12.8939C164.306 11.8978 161.616 11.0577 159.889 11.5182L159.892 11.5199ZM147.939 19.51C146.172 20.7887 146.088 20.4563 149.329 25.0566C151.323 27.8864 152.09 29.284 152.014 29.9461C151.882 31.078 150.612 31.3791 149.72 30.4893C149.153 29.9225 149.006 29.9672 147.664 31.1177C144.274 34.0217 149.426 36.5141 153.255 33.8243C157.461 30.8689 157.468 29.0352 153.286 22.9285C150.043 18.1908 149.894 18.0963 147.937 19.5125L147.939 19.51ZM12.0091 39.9538C5.95054 40.9094 2.40379 44.4519 2.35656 49.5945C2.30933 54.8417 5.711 57.8309 14.1372 59.9395C19.3017 61.2326 21.0021 62.2194 21.0021 63.9198C21.0021 68.709 12.4292 68.2299 11.5224 63.391C11.2044 61.7024 11.2449 61.7117 5.77679 62.0077L0.927734 62.2709L1.16981 63.7891C2.27559 70.7493 6.32251 73.6458 15.3391 73.9283C22.4891 74.151 24.9469 73.4585 28.0686 70.3369L30.2059 68.1995L30.9912 69.2598C35.534 75.4035 50.88 75.8168 55.9188 69.9286C57.3923 68.2088 59.0455 64.9682 59.2142 63.4762C59.3331 62.4252 59.2994 62.4067 54.8088 61.0445L50.2853 59.6713L49.678 61.4983C47.609 67.7255 39.7977 67.7964 38.0821 61.6054C37.4985 59.5009 37.5693 54.4748 38.2146 52.3088C39.7707 47.0734 46.3438 45.9988 49.0109 50.5459C50.1234 52.4437 49.8248 52.4083 54.8729 51.2671C59.6789 50.1807 59.4723 50.373 58.3766 48.0122C54.0303 38.6607 39.4199 36.4669 31.6727 43.9981L29.5117 46.1001L28.6151 44.57C26.3808 40.755 19.3329 38.7957 12.0142 39.9538H12.0091ZM114.319 39.963C110.217 40.6749 106.165 43.2559 103.876 46.612C103.264 47.5112 103.248 47.4378 103.228 43.9239L103.209 40.3131H92.4701V51.7926H81.7312V40.3131H70.9923V73.6407H81.7312V60.309H92.4701V73.6407H103.209V66.1061L104.369 67.8546C109.194 75.137 124.118 76.4157 130.909 70.1269C138.768 62.8512 137.227 46.3 128.264 41.7267C124.805 39.9613 118.735 39.193 114.317 39.9597L114.319 39.963ZM18.0306 46.7908C18.6497 47.1114 19.3759 47.9793 19.7698 48.8717L20.4462 50.4042L27.6814 50.0559L27.4444 51.9444C27.1315 54.4427 26.9915 54.5372 24.9157 53.6195C23.9382 53.1876 21.2028 52.3501 18.8335 51.7546C13.2279 50.3502 12.5304 50.0491 12.2436 48.9079C11.7122 46.7967 15.4201 45.4396 18.0339 46.7917L18.0306 46.7908ZM120.67 48.0999C126.154 49.6232 127.265 62.2101 122.178 65.2036C118.38 67.4379 113.574 65.5359 112.447 61.349C110.208 53.0299 114.357 46.3472 120.67 48.0999ZM165.44 48.0906C171.812 49.8602 171.682 64.1788 165.279 65.9036C160.132 67.2886 156.706 63.7115 156.733 56.979C156.761 49.9833 160.075 46.6002 165.441 48.0923L165.44 48.0906Z" fill="#263238"/>
</svg>
